<svg width="32" height="32" viewBox="0 0 32 32" fill="none" xmlns="http://www.w3.org/2000/svg">
<mask id="mask0_1934_14904" style="mask-type:luminance" maskUnits="userSpaceOnUse" x="1" y="1" width="30" height="30">
<path d="M16.0003 29.3333C17.7516 29.3355 19.4861 28.9916 21.104 28.3214C22.722 27.6512 24.1916 26.6679 25.4283 25.428C26.6682 24.1912 27.6515 22.7216 28.3217 21.1037C28.9919 19.4857 29.3358 17.7513 29.3337 16C29.3358 14.2487 28.9919 12.5143 28.3217 10.8963C27.6515 9.27837 26.6682 7.80878 25.4283 6.572C24.1916 5.33211 22.722 4.34881 21.104 3.67861C19.4861 3.00841 17.7516 2.66451 16.0003 2.66667C14.2491 2.66451 12.5146 3.00841 10.8967 3.67861C9.2787 4.34881 7.80912 5.33211 6.57234 6.572C5.33244 7.80878 4.34915 9.27837 3.67895 10.8963C3.00874 12.5143 2.66484 14.2487 2.667 16C2.66484 17.7513 3.00874 19.4857 3.67895 21.1037C4.34915 22.7216 5.33244 24.1912 6.57234 25.428C7.80912 26.6679 9.2787 27.6512 10.8967 28.3214C12.5146 28.9916 14.2491 29.3355 16.0003 29.3333Z" fill="white" stroke="white" stroke-width="2.08333" stroke-linejoin="round"/>
<path d="M10.667 16L14.667 20L22.667 12" stroke="black" stroke-width="2.08333" stroke-linecap="round" stroke-linejoin="round"/>
</mask>
<g mask="url(#mask0_1934_14904)">
<path d="M0 0H32V32H0V0Z" fill="#CCC4C1"/>
<path d="M0 0H32V32H0V0Z" fill="#CCC4C1"/>
</g>
</svg>
