<svg width="43" height="43" viewBox="0 0 43 43" fill="none" xmlns="http://www.w3.org/2000/svg">
<mask id="mask0_1934_14921" style="mask-type:luminance" maskUnits="userSpaceOnUse" x="7" y="7" width="29" height="29">
<path d="M21.5003 34.8333C23.2516 34.8355 24.9861 34.4916 26.604 33.8214C28.222 33.1512 29.6916 32.1679 30.9283 30.928C32.1682 29.6912 33.1515 28.2216 33.8217 26.6037C34.4919 24.9857 34.8358 23.2513 34.8337 21.5C34.8358 19.7487 34.4919 18.0143 33.8217 16.3963C33.1515 14.7784 32.1682 13.3088 30.9283 12.072C29.6916 10.8321 28.222 9.84881 26.604 9.17861C24.9861 8.50841 23.2516 8.16451 21.5003 8.16667C19.7491 8.16451 18.0146 8.50841 16.3967 9.17861C14.7787 9.84881 13.3091 10.8321 12.0723 12.072C10.8324 13.3088 9.84915 14.7784 9.17895 16.3963C8.50874 18.0143 8.16484 19.7487 8.167 21.5C8.16484 23.2513 8.50874 24.9857 9.17895 26.6037C9.84915 28.2216 10.8324 29.6912 12.0723 30.928C13.3091 32.1679 14.7787 33.1512 16.3967 33.8214C18.0146 34.4916 19.7491 34.8355 21.5003 34.8333Z" fill="white" stroke="white" stroke-width="2.08333" stroke-linejoin="round"/>
<path d="M16.167 21.5L20.167 25.5L28.167 17.5" stroke="black" stroke-width="2.08333" stroke-linecap="round" stroke-linejoin="round"/>
</mask>
<g mask="url(#mask0_1934_14921)">
<path d="M5.5 5.5H37.5V37.5H5.5V5.5Z" fill="#F37BBB"/>
</g>
</svg>
