<svg width="28" height="28" viewBox="0 0 28 28" fill="none" xmlns="http://www.w3.org/2000/svg">
<path d="M6.125 13.125H23.625C23.8571 13.125 24.0796 13.2172 24.2437 13.3813C24.4078 13.5454 24.5 13.7679 24.5 14C24.5 14.2321 24.4078 14.4546 24.2437 14.6187C24.0796 14.7828 23.8571 14.875 23.625 14.875H6.125C5.89294 14.875 5.67038 14.7828 5.50628 14.6187C5.34219 14.4546 5.25 14.2321 5.25 14C5.25 13.7679 5.34219 13.5454 5.50628 13.3813C5.67038 13.2172 5.89294 13.125 6.125 13.125Z" fill="#6B6B6B"/>
<path d="M6.48601 14L13.7458 21.2543C13.8273 21.3358 13.8919 21.4326 13.9361 21.5391C13.9802 21.6456 14.0029 21.7597 14.0029 21.875C14.0029 21.9903 13.9802 22.1044 13.9361 22.2109C13.8919 22.3174 13.8273 22.4142 13.7458 22.4957C13.6643 22.5772 13.5675 22.6419 13.461 22.686C13.3545 22.7301 13.2403 22.7528 13.1251 22.7528C13.0098 22.7528 12.8956 22.7301 12.7891 22.686C12.6826 22.6419 12.5859 22.5772 12.5044 22.4957L4.62937 14.6207C4.54752 14.5394 4.48256 14.4427 4.43824 14.3361C4.39391 14.2296 4.37109 14.1154 4.37109 14C4.37109 13.8846 4.39391 13.7704 4.43824 13.6639C4.48256 13.5573 4.54752 13.4606 4.62937 13.3793L12.5044 5.5043C12.5859 5.42278 12.6826 5.35813 12.7891 5.31401C12.8956 5.2699 13.0098 5.24719 13.1251 5.24719C13.2403 5.24719 13.3545 5.2699 13.461 5.31401C13.5675 5.35813 13.6643 5.42278 13.7458 5.5043C13.8273 5.58581 13.8919 5.68258 13.9361 5.78908C13.9802 5.89558 14.0029 6.00972 14.0029 6.125C14.0029 6.24027 13.9802 6.35442 13.9361 6.46092C13.8919 6.56742 13.8273 6.66419 13.7458 6.7457L6.48601 14Z" fill="#6B6B6B"/>
</svg>
