<svg width="24" height="24" viewBox="0 0 24 24" fill="none" xmlns="http://www.w3.org/2000/svg">
<path d="M4.47583 11.0625V11.058C4.45057 10.9627 4.40677 10.8734 4.34695 10.795C4.28713 10.7167 4.21246 10.6509 4.1272 10.6015C4.04194 10.552 3.94777 10.5199 3.85008 10.5068C3.75238 10.4938 3.65307 10.5001 3.55783 10.5255C2.91133 10.6965 3.02533 11.442 3.02533 11.442L3.05233 11.535C3.05233 11.535 3.09133 11.661 3.12283 11.7525C3.50776 12.8318 4.07443 13.8373 4.79833 14.7255C6.14383 16.3665 8.40733 18 11.9998 18C15.5923 18 17.8558 16.3665 19.2028 14.7255C19.9267 13.8373 20.4934 12.8318 20.8783 11.7525C20.9106 11.6598 20.9406 11.5662 20.9683 11.472L20.9728 11.4525V11.4465L20.9743 11.4435C21.0219 11.2526 20.9926 11.0507 20.8926 10.8812C20.7927 10.7117 20.6302 10.5883 20.4401 10.5375C20.25 10.4868 20.0476 10.5127 19.8765 10.6098C19.7054 10.7069 19.5793 10.8673 19.5253 11.0565L19.5238 11.0625L19.5118 11.1L19.4593 11.2635C19.1324 12.1747 18.6531 13.0238 18.0418 13.7745C16.9288 15.132 15.0673 16.5 11.9998 16.5C8.93233 16.5 7.07233 15.132 5.95783 13.7745C5.34658 13.0238 4.86726 12.1747 4.54033 11.2635L4.48783 11.1L4.47583 11.0625Z" fill="#CCC4C1"/>
</svg>
