<svg width="24" height="24" viewBox="0 0 24 24" fill="none" xmlns="http://www.w3.org/2000/svg">
<path d="M19.5383 12.9375L19.5383 12.942C19.5636 13.0373 19.6074 13.1266 19.6672 13.205C19.727 13.2833 19.8017 13.3491 19.887 13.3985C19.9722 13.448 20.0664 13.4801 20.1641 13.4932C20.2618 13.5062 20.3611 13.4999 20.4563 13.4745C21.1028 13.3035 20.9888 12.558 20.9888 12.558L20.9618 12.465C20.9618 12.465 20.9228 12.339 20.8913 12.2475C20.5064 11.1682 19.9397 10.1627 19.2158 9.2745C17.8703 7.6335 15.6068 6 12.0143 6C8.42183 6 6.15833 7.6335 4.81133 9.2745C4.08743 10.1627 3.52077 11.1682 3.13583 12.2475C3.10354 12.3403 3.07353 12.4338 3.04583 12.528L3.04133 12.5475L3.04133 12.5535L3.03983 12.5565C2.99226 12.7474 3.02159 12.9494 3.12152 13.1188C3.22145 13.2883 3.38397 13.4117 3.57405 13.4625C3.76412 13.5132 3.96653 13.4873 4.13765 13.3902C4.30877 13.2931 4.4349 13.1327 4.48883 12.9435L4.49033 12.9375L4.50233 12.9L4.55483 12.7365C4.88177 11.8253 5.36109 10.9762 5.97233 10.2255C7.08533 8.868 8.94683 7.5 12.0143 7.5C15.0818 7.5 16.9418 8.868 18.0563 10.2255C18.6676 10.9762 19.1469 11.8253 19.4738 12.7365L19.5263 12.9L19.5383 12.9375ZM12.0143 10.5C13.0089 10.5 13.9627 10.8951 14.666 11.5984C15.3692 12.3016 15.7643 13.2554 15.7643 14.25C15.7643 15.2446 15.3692 16.1984 14.666 16.9017C13.9627 17.6049 13.0089 18 12.0143 18C11.0198 18 10.0659 17.6049 9.36268 16.9017C8.65942 16.1984 8.26433 15.2446 8.26433 14.25C8.26433 13.2554 8.65942 12.3016 9.36268 11.5984C10.0659 10.8951 11.0198 10.5 12.0143 10.5ZM14.2643 14.25C14.2643 13.6533 14.0273 13.081 13.6053 12.659C13.1834 12.2371 12.6111 12 12.0143 12C11.4176 12 10.8453 12.2371 10.4233 12.659C10.0014 13.081 9.76433 13.6533 9.76433 14.25C9.76433 14.8467 10.0014 15.419 10.4233 15.841C10.8453 16.2629 11.4176 16.5 12.0143 16.5C12.6111 16.5 13.1834 16.2629 13.6053 15.841C14.0273 15.419 14.2643 14.8467 14.2643 14.25Z" fill="#F37BBB"/>
</svg>
