<svg width="24" height="24" viewBox="0 0 24 24" fill="none" xmlns="http://www.w3.org/2000/svg">
<path d="M12.0001 12.64C11.643 12.6414 11.2962 12.7601 11.013 12.9777C10.7299 13.1954 10.526 13.5001 10.4329 13.8449C10.3397 14.1896 10.3624 14.5555 10.4974 14.8861C10.6324 15.2168 10.8723 15.494 11.1801 15.675V18H12.8401V15.675C13.0837 15.5309 13.2858 15.3263 13.4269 15.081C13.568 14.8356 13.6431 14.558 13.6451 14.275C13.6451 14.0595 13.6025 13.846 13.5197 13.647C13.4369 13.448 13.3156 13.2673 13.1627 13.1153C13.0098 12.9634 12.8284 12.8432 12.6289 12.7616C12.4294 12.68 12.2157 12.6387 12.0001 12.64Z" stroke="#9E9E9E" stroke-width="0.75" stroke-linecap="round" stroke-linejoin="round"/>
<path d="M18.1449 8.88501H5.84994C4.65701 8.88501 3.68994 9.85207 3.68994 11.045V19.59C3.68994 20.7829 4.65701 21.75 5.84994 21.75H18.1449C19.3379 21.75 20.3049 20.7829 20.3049 19.59V11.045C20.3049 9.85207 19.3379 8.88501 18.1449 8.88501Z" stroke="#9E9E9E" stroke-width="0.75" stroke-linecap="round" stroke-linejoin="round"/>
<path d="M6.6748 8.885V7.58C6.6748 6.1664 7.23636 4.81069 8.23593 3.81112C9.23549 2.81155 10.5912 2.25 12.0048 2.25C13.4184 2.25 14.7741 2.81155 15.7737 3.81112C16.7733 4.81069 17.3348 6.1664 17.3348 7.58V8.885" stroke="#9E9E9E" stroke-width="0.75" stroke-linecap="round" stroke-linejoin="round"/>
</svg>
