<svg width="24" height="24" viewBox="0 0 24 24" fill="none" xmlns="http://www.w3.org/2000/svg">
<path d="M12 1.5C10.6076 1.5 9.27226 2.05312 8.28769 3.03769C7.30312 4.02226 6.75 5.35761 6.75 6.75C6.75 8.14239 7.30312 9.47775 8.28769 10.4623C9.27226 11.4469 10.6076 12 12 12C13.3924 12 14.7277 11.4469 15.7123 10.4623C16.6969 9.47775 17.25 8.14239 17.25 6.75C17.25 5.35761 16.6969 4.02226 15.7123 3.03769C14.7277 2.05312 13.3924 1.5 12 1.5ZM7.5 6.75C7.5 5.55653 7.97411 4.41193 8.81802 3.56802C9.66193 2.72411 10.8065 2.25 12 2.25C13.1935 2.25 14.3381 2.72411 15.182 3.56802C16.0259 4.41193 16.5 5.55653 16.5 6.75C16.5 7.94347 16.0259 9.08807 15.182 9.93198C14.3381 10.7759 13.1935 11.25 12 11.25C10.8065 11.25 9.66193 10.7759 8.81802 9.93198C7.97411 9.08807 7.5 7.94347 7.5 6.75ZM5.625 13.5C4.92881 13.5 4.26113 13.7766 3.76884 14.2688C3.27656 14.7611 3 15.4288 3 16.125V16.6252C3 18.2377 5.0745 22.5 12 22.5C18.9255 22.5 21 18.237 21 16.6252V16.125C21 15.4288 20.7234 14.7611 20.2312 14.2688C19.7389 13.7766 19.0712 13.5 18.375 13.5H12H5.625ZM3.75 16.125C3.75 15.6277 3.94754 15.1508 4.29917 14.7992C4.65081 14.4475 5.12772 14.25 5.625 14.25H18.375C18.8723 14.25 19.3492 14.4475 19.7008 14.7992C20.0525 15.1508 20.25 15.6277 20.25 16.125V16.6252C20.25 17.763 18.5738 21.75 12 21.75C5.42625 21.75 3.75 17.763 3.75 16.6252V16.125Z" fill="#9E9E9E"/>
</svg>
