<svg width="34" height="34" viewBox="0 0 34 34" fill="none" xmlns="http://www.w3.org/2000/svg">
<rect width="34" height="34" rx="17" fill="white"/>
<path d="M19.9648 13.6467H19.9738M17.7088 25.3776H11.8434C11.1254 25.3776 10.4368 25.0924 9.92913 24.5847C9.42145 24.077 9.13623 23.3884 9.13623 22.6705V11.8419C9.13623 11.1239 9.42145 10.4354 9.92913 9.92767C10.4368 9.41998 11.1254 9.13477 11.8434 9.13477H22.6719C23.3899 9.13477 24.0785 9.41998 24.5862 9.92767C25.0938 10.4354 25.3791 11.1239 25.3791 11.8419V17.7074" stroke="black" stroke-width="1.3" stroke-linecap="round" stroke-linejoin="round"/>
<path d="M9.13623 20.8663L13.6481 16.3544C14.4855 15.5485 15.5179 15.5485 16.3553 16.3544L19.9648 19.9639" stroke="black" stroke-width="1.3" stroke-linecap="round" stroke-linejoin="round"/>
<path d="M19.063 19.06L19.9654 18.1577C20.57 17.5765 21.2738 17.4141 21.9344 17.6704M20.8677 23.5719H26.282M23.5749 20.8648V26.2791" stroke="black" stroke-width="1.3" stroke-linecap="round" stroke-linejoin="round"/>
</svg>
