<svg width="24" height="24" viewBox="0 0 24 24" fill="none" xmlns="http://www.w3.org/2000/svg">
<path d="M9.59998 20.4C9.59998 20.2409 9.66319 20.0883 9.77571 19.9758C9.88823 19.8633 10.0408 19.8 10.2 19.8C10.3591 19.8 10.5117 19.8633 10.6242 19.9758C10.7368 20.0883 10.8 20.2409 10.8 20.4C10.8 20.7183 10.9264 21.0235 11.1514 21.2486C11.3765 21.4736 11.6817 21.6 12 21.6C12.3182 21.6 12.6235 21.4736 12.8485 21.2486C13.0735 21.0235 13.2 20.7183 13.2 20.4C13.2 20.2409 13.2632 20.0883 13.3757 19.9758C13.4882 19.8633 13.6408 19.8 13.8 19.8C13.9591 19.8 14.1117 19.8633 14.2242 19.9758C14.3368 20.0883 14.4 20.2409 14.4 20.4C14.4 21.0366 14.1471 21.647 13.697 22.0971C13.2469 22.5472 12.6365 22.8 12 22.8C11.3635 22.8 10.753 22.5472 10.3029 22.0971C9.85283 21.647 9.59998 21.0366 9.59998 20.4Z" fill="#6A6765"/>
<path d="M9.59998 20.4C9.59998 20.2409 9.66319 20.0883 9.77571 19.9758C9.88823 19.8633 10.0408 19.8 10.2 19.8C10.3591 19.8 10.5117 19.8633 10.6242 19.9758C10.7368 20.0883 10.8 20.2409 10.8 20.4C10.8 20.7183 10.9264 21.0235 11.1514 21.2486C11.3765 21.4736 11.6817 21.6 12 21.6C12.3182 21.6 12.6235 21.4736 12.8485 21.2486C13.0735 21.0235 13.2 20.7183 13.2 20.4C13.2 20.2409 13.2632 20.0883 13.3757 19.9758C13.4882 19.8633 13.6408 19.8 13.8 19.8C13.9591 19.8 14.1117 19.8633 14.2242 19.9758C14.3368 20.0883 14.4 20.2409 14.4 20.4C14.4 21.0366 14.1471 21.647 13.697 22.0971C13.2469 22.5472 12.6365 22.8 12 22.8C11.3635 22.8 10.753 22.5472 10.3029 22.0971C9.85283 21.647 9.59998 21.0366 9.59998 20.4Z" fill="black" fill-opacity="0.2"/>
<path fill-rule="evenodd" clip-rule="evenodd" d="M21 17.4C21 16.7717 20.8334 16.1547 20.5172 15.6119C20.201 15.0691 19.7465 14.6198 19.2 14.31V10.8C19.2 9.04952 18.5046 7.37079 17.2669 6.13305C16.0292 4.89531 14.3504 4.19995 12.6 4.19995H11.4C9.64957 4.19995 7.97084 4.89531 6.7331 6.13305C5.49536 7.37079 4.8 9.04952 4.8 10.8V14.31C4.25352 14.6198 3.79899 15.0691 3.48278 15.6119C3.16656 16.1547 2.99997 16.7717 3 17.4C3 18.0365 3.25286 18.6469 3.70294 19.097C4.15303 19.5471 4.76348 19.8 5.4 19.8H18.6C19.2365 19.8 19.847 19.5471 20.2971 19.097C20.7471 18.6469 21 18.0365 21 17.4ZM18 15.0696L18.354 15.2292L18.42 15.258C18.8315 15.4447 19.1805 15.746 19.4252 16.1259C19.6699 16.5058 19.8 16.9481 19.8 17.4C19.8 17.7182 19.6736 18.0234 19.4485 18.2485C19.2235 18.4735 18.9183 18.6 18.6 18.6H5.4C5.08174 18.6 4.77652 18.4735 4.55147 18.2485C4.32643 18.0234 4.2 17.7182 4.2 17.4C4.2 16.4772 4.74 15.6396 5.58 15.2592L5.646 15.2292L6 15.0696V10.8C6 9.36778 6.56893 7.99427 7.58162 6.98157C8.59432 5.96888 9.96783 5.39995 11.4 5.39995H12.6C14.0322 5.39995 15.4057 5.96888 16.4184 6.98157C17.4311 7.99427 18 9.36778 18 10.8V15.0696Z" fill="#6A6765"/>
<path fill-rule="evenodd" clip-rule="evenodd" d="M21 17.4C21 16.7717 20.8334 16.1547 20.5172 15.6119C20.201 15.0691 19.7465 14.6198 19.2 14.31V10.8C19.2 9.04952 18.5046 7.37079 17.2669 6.13305C16.0292 4.89531 14.3504 4.19995 12.6 4.19995H11.4C9.64957 4.19995 7.97084 4.89531 6.7331 6.13305C5.49536 7.37079 4.8 9.04952 4.8 10.8V14.31C4.25352 14.6198 3.79899 15.0691 3.48278 15.6119C3.16656 16.1547 2.99997 16.7717 3 17.4C3 18.0365 3.25286 18.6469 3.70294 19.097C4.15303 19.5471 4.76348 19.8 5.4 19.8H18.6C19.2365 19.8 19.847 19.5471 20.2971 19.097C20.7471 18.6469 21 18.0365 21 17.4ZM18 15.0696L18.354 15.2292L18.42 15.258C18.8315 15.4447 19.1805 15.746 19.4252 16.1259C19.6699 16.5058 19.8 16.9481 19.8 17.4C19.8 17.7182 19.6736 18.0234 19.4485 18.2485C19.2235 18.4735 18.9183 18.6 18.6 18.6H5.4C5.08174 18.6 4.77652 18.4735 4.55147 18.2485C4.32643 18.0234 4.2 17.7182 4.2 17.4C4.2 16.4772 4.74 15.6396 5.58 15.2592L5.646 15.2292L6 15.0696V10.8C6 9.36778 6.56893 7.99427 7.58162 6.98157C8.59432 5.96888 9.96783 5.39995 11.4 5.39995H12.6C14.0322 5.39995 15.4057 5.96888 16.4184 6.98157C17.4311 7.99427 18 9.36778 18 10.8V15.0696Z" fill="black" fill-opacity="0.2"/>
<path d="M11.4 1.79995C11.4 1.64082 11.4632 1.48821 11.5758 1.37569C11.6883 1.26317 11.8409 1.19995 12 1.19995C12.1592 1.19995 12.3118 1.26317 12.4243 1.37569C12.5368 1.48821 12.6 1.64082 12.6 1.79995V4.79995C12.6 4.95908 12.5368 5.11169 12.4243 5.22422C12.3118 5.33674 12.1592 5.39995 12 5.39995C11.8409 5.39995 11.6883 5.33674 11.5758 5.22422C11.4632 5.11169 11.4 4.95908 11.4 4.79995V1.79995Z" fill="#6A6765"/>
<path d="M11.4 1.79995C11.4 1.64082 11.4632 1.48821 11.5758 1.37569C11.6883 1.26317 11.8409 1.19995 12 1.19995C12.1592 1.19995 12.3118 1.26317 12.4243 1.37569C12.5368 1.48821 12.6 1.64082 12.6 1.79995V4.79995C12.6 4.95908 12.5368 5.11169 12.4243 5.22422C12.3118 5.33674 12.1592 5.39995 12 5.39995C11.8409 5.39995 11.6883 5.33674 11.5758 5.22422C11.4632 5.11169 11.4 4.95908 11.4 4.79995V1.79995Z" fill="black" fill-opacity="0.2"/>
</svg>
