<svg width="32" height="23" viewBox="0 0 32 23" fill="none" xmlns="http://www.w3.org/2000/svg">
<path d="M6.33235 22.8324V21.3218H8.54686L11.3837 11.7387C11.5277 11.1999 11.8173 10.774 12.2523 10.4608C12.6874 10.1476 13.1738 9.99148 13.7115 9.99248H18.0106C18.5494 9.99248 19.0358 10.1486 19.4699 10.4608C19.9049 10.774 20.1944 11.1999 20.3384 11.7387L23.1753 21.3218H25.3898V22.8324H6.33235ZM10.1496 21.3218H21.5726L18.8822 12.1707C18.8238 11.9583 18.7126 11.7941 18.5484 11.6783C18.3843 11.5625 18.1954 11.5041 17.9819 11.5031H13.7402C13.5277 11.5031 13.3389 11.5615 13.1738 11.6783C13.0096 11.7941 12.8983 11.9583 12.8399 12.1707L10.1496 21.3218ZM15.1058 6.04232V0H16.6164V6.04232H15.1058ZM23.3385 9.46076L22.2614 8.38372L26.5484 4.13295L27.5892 5.17373L23.3385 9.46076ZM25.6799 16.6164V15.1058H31.7222V16.6164H25.6799ZM8.38372 9.45925L4.13446 5.17373L5.17374 4.13295L9.46227 8.38372L8.38372 9.45925ZM0 16.6164V15.1058H6.04232V16.6164H0Z" fill="#F37BBB"/>
</svg>
