<svg width="19" height="19" viewBox="0 0 19 19" fill="none" xmlns="http://www.w3.org/2000/svg">
<path d="M10.1948 9.14655L18.074 1.25965C18.213 1.11996 18.291 0.930872 18.2909 0.733805C18.2907 0.536739 18.2125 0.347756 18.0733 0.20825C17.7947 -0.0689501 17.304 -0.0703499 17.0226 0.20965L9.14552 8.09655L1.26562 0.20755C0.985617 -0.0689501 0.494917 -0.0675502 0.216317 0.20895C0.147165 0.277825 0.0924236 0.359784 0.0552866 0.450042C0.0181495 0.540301 -0.000639189 0.637052 1.65928e-05 0.73465C1.65928e-05 0.93345 0.0770166 1.11965 0.216317 1.25755L8.09552 9.14585L0.217017 17.0349C0.0779864 17.1748 0.000127923 17.3641 0.000521611 17.5613C0.0009153 17.7586 0.0795292 17.9476 0.219117 18.0869C0.354217 18.2206 0.545316 18.2977 0.742716 18.2977H0.746917C0.945017 18.297 1.13612 18.2193 1.26842 18.0842L9.14552 10.1973L17.0254 18.0863C17.1647 18.2249 17.3509 18.3019 17.5483 18.3019C17.6459 18.3019 17.7425 18.2828 17.8326 18.2455C17.9228 18.2082 18.0047 18.1535 18.0737 18.0845C18.1427 18.0155 18.1974 17.9336 18.2347 17.8435C18.272 17.7533 18.2911 17.6567 18.291 17.5592C18.291 17.3611 18.214 17.1741 18.074 17.0362L10.1948 9.14655Z" fill="#6B6B6B"/>
</svg>
