<svg width="29" height="30" viewBox="0 0 29 30" fill="none" xmlns="http://www.w3.org/2000/svg">
<path d="M4.28391 5.92827V24.8138C4.28371 25.3531 4.38979 25.8871 4.59609 26.3854C4.80238 26.8837 5.10485 27.3365 5.4862 27.7179C5.86756 28.0992 6.32032 28.4017 6.81862 28.608C7.31692 28.8143 7.85099 28.9204 8.3903 28.9202H19.887C20.9757 28.9202 22.0198 28.4877 22.7896 27.7179C23.5594 26.948 23.9919 25.904 23.9919 24.8153V5.92676M1 5.92827H27.2773" stroke="#F37BBB" stroke-width="2" stroke-linecap="round" stroke-linejoin="round"/>
<path d="M9.21094 5.92738V3.46294C9.21054 3.13926 9.27403 2.81869 9.39775 2.51959C9.52148 2.2205 9.70302 1.94876 9.93196 1.71996C10.1609 1.49116 10.4328 1.30978 10.7319 1.18624C11.0311 1.0627 11.3517 0.999408 11.6754 1H16.6012C16.9249 0.999408 17.2455 1.0627 17.5447 1.18624C17.8439 1.30978 18.1157 1.49116 18.3447 1.71996C18.5736 1.94876 18.7551 2.2205 18.8789 2.51959C19.0026 2.81869 19.0661 3.13926 19.0657 3.46294V5.92738M10.8544 22.4933V14.285M17.4237 22.4933V14.285" stroke="#F37BBB" stroke-width="2" stroke-linecap="round" stroke-linejoin="round"/>
</svg>
