<svg width="24" height="24" viewBox="0 0 24 24" fill="none" xmlns="http://www.w3.org/2000/svg">
<path d="M12.0234 4.125C11.8511 4.125 11.6804 4.15895 11.5212 4.22491C11.3619 4.29087 11.2172 4.38755 11.0954 4.50942C10.9735 4.6313 10.8768 4.77599 10.8108 4.93523C10.7449 5.09447 10.7109 5.26514 10.7109 5.4375C10.7109 5.60986 10.7449 5.78053 10.8108 5.93977C10.8768 6.09901 10.9735 6.2437 11.0954 6.36558C11.2172 6.48745 11.3619 6.58413 11.5212 6.65009C11.6804 6.71605 11.8511 6.75 12.0234 6.75C12.1958 6.75 12.3665 6.71605 12.5257 6.65009C12.6849 6.58413 12.8296 6.48745 12.9515 6.36558C13.0734 6.2437 13.1701 6.09901 13.236 5.93977C13.302 5.78053 13.3359 5.60986 13.3359 5.4375C13.3359 5.26514 13.302 5.09447 13.236 4.93523C13.1701 4.77599 13.0734 4.6313 12.9515 4.50942C12.8296 4.38755 12.6849 4.29087 12.5257 4.22491C12.3665 4.15895 12.1958 4.125 12.0234 4.125ZM12.0234 10.6875C11.6753 10.6875 11.3415 10.8258 11.0954 11.0719C10.8492 11.3181 10.7109 11.6519 10.7109 12C10.7109 12.3481 10.8492 12.6819 11.0954 12.9281C11.3415 13.1742 11.6753 13.3125 12.0234 13.3125C12.3715 13.3125 12.7054 13.1742 12.9515 12.9281C13.1977 12.6819 13.3359 12.3481 13.3359 12C13.3359 11.6519 13.1977 11.3181 12.9515 11.0719C12.7054 10.8258 12.3715 10.6875 12.0234 10.6875ZM12.0234 17.25C11.6753 17.25 11.3415 17.3883 11.0954 17.6344C10.8492 17.8806 10.7109 18.2144 10.7109 18.5625C10.7109 18.9106 10.8492 19.2444 11.0954 19.4906C11.3415 19.7367 11.6753 19.875 12.0234 19.875C12.3715 19.875 12.7054 19.7367 12.9515 19.4906C13.1977 19.2444 13.3359 18.9106 13.3359 18.5625C13.3359 18.2144 13.1977 17.8806 12.9515 17.6344C12.7054 17.3883 12.3715 17.25 12.0234 17.25Z" fill="#B4ACA9"/>
</svg>
