<svg width="16" height="16" viewBox="0 0 16 16" fill="none" xmlns="http://www.w3.org/2000/svg">
<path d="M14.7084 0.896641C14.4434 0.617804 14.1252 0.394838 13.7727 0.240886C13.4201 0.0869332 13.0403 0.0051077 12.6556 0.00023158C12.271 -0.00464454 11.8892 0.0675272 11.5329 0.212494C11.1765 0.35746 10.8528 0.572289 10.5808 0.844319L1.49703 9.92805C1.17997 10.2456 0.959844 10.6469 0.862381 11.085L0.0116592 14.9122C-0.00613424 14.9919 -0.00352614 15.0747 0.0192417 15.1531C0.0420095 15.2314 0.0841992 15.3028 0.141897 15.3605C0.199594 15.4182 0.27093 15.4603 0.349286 15.4831C0.427642 15.5059 0.510479 15.5085 0.590111 15.4907L4.39414 14.6448C4.8474 14.5449 5.26241 14.3169 5.5898 13.9879L13.3219 6.2558L13.6484 6.58136C13.8301 6.76307 13.9321 7.00947 13.9321 7.2664C13.9321 7.52332 13.8301 7.76973 13.6484 7.95143L12.7376 8.86223C12.6495 8.95372 12.6008 9.07617 12.6021 9.2032C12.6034 9.33023 12.6545 9.45167 12.7445 9.54137C12.8344 9.63107 12.956 9.68185 13.083 9.68277C13.2101 9.68369 13.3324 9.63468 13.4236 9.5463L14.3334 8.6355C14.6967 8.2721 14.9008 7.77928 14.9008 7.26543C14.9008 6.75158 14.6967 6.25876 14.3334 5.89536L14.0079 5.5698L14.6571 4.92062C15.1885 4.3889 15.4913 3.6706 15.5007 2.91888C15.5101 2.16715 15.2264 1.44149 14.7084 0.896641ZM11.2648 1.52935C11.6246 1.17473 12.11 0.97673 12.6151 0.97854C13.1203 0.980351 13.6042 1.18182 13.9614 1.53902C14.3186 1.89622 14.5201 2.38016 14.5219 2.88531C14.5237 3.39046 14.3257 3.87583 13.9711 4.23558L4.90476 13.3028C4.70765 13.5016 4.45732 13.6392 4.18388 13.6991L1.12205 14.3793L1.80806 11.2952C1.8653 11.0367 1.99543 10.8 2.18304 10.6131L11.2648 1.52935Z" fill="#CCC4C1"/>
</svg>
