<svg width="11" height="11" viewBox="0 0 11 11" fill="none" xmlns="http://www.w3.org/2000/svg">
<path d="M5.82561 5.2266L10.328 0.7198C10.4074 0.639976 10.452 0.531927 10.4519 0.419317C10.4518 0.306708 10.4071 0.198718 10.3276 0.119C10.1684 -0.0394001 9.88801 -0.0401999 9.72721 0.1198L5.22601 4.6266L0.72321 0.1186C0.56321 -0.0394 0.282809 -0.0386001 0.123609 0.1194C0.0840943 0.158757 0.0528135 0.205591 0.0315923 0.257167C0.0103712 0.308743 -0.000365251 0.36403 9.48162e-06 0.4198C9.48162e-06 0.5334 0.0440095 0.6398 0.123609 0.7186L4.62601 5.2262L0.124009 9.7342C0.0445636 9.81415 7.30986e-05 9.92234 0.000298063 10.035C0.000523028 10.1478 0.0454452 10.2558 0.12521 10.3354C0.20241 10.4118 0.311609 10.4558 0.424409 10.4558H0.426809C0.540009 10.4554 0.649209 10.411 0.724809 10.3338L5.22601 5.827L9.72881 10.335C9.80841 10.4142 9.91481 10.4582 10.0276 10.4582C10.0834 10.4583 10.1386 10.4473 10.1901 10.426C10.2416 10.4047 10.2884 10.3734 10.3278 10.334C10.3672 10.2946 10.3985 10.2478 10.4198 10.1963C10.4411 10.1448 10.4521 10.0895 10.452 10.0338C10.452 9.9206 10.408 9.8138 10.328 9.735L5.82561 5.2266Z" fill="#96918E"/>
</svg>
