<svg width="19" height="16" viewBox="0 0 19 16" fill="none" xmlns="http://www.w3.org/2000/svg">
<path d="M5.00098 0.5C6.19412 0.5 7.33876 0.973886 8.18262 1.81738L8.18359 1.81836C8.37141 2.00549 8.61103 2.23619 8.90137 2.50977L9.24512 2.83301L9.58789 2.50977C9.87763 2.23612 10.116 2.00438 10.3037 1.81738C11.144 0.981164 12.2813 0.510987 13.4668 0.507812C14.6523 0.504713 15.791 0.969943 16.6357 1.80176C17.4804 2.63357 17.9634 3.7648 17.9785 4.9502C17.9936 6.13271 17.542 7.27354 16.7227 8.12598L9.59668 15.252C9.50292 15.3457 9.37575 15.3984 9.24316 15.3984C9.11065 15.3984 8.98337 15.3456 8.88965 15.252L1.76367 8.12695C0.944696 7.27924 0.49076 6.14373 0.5 4.96484C0.509321 3.78364 0.983539 2.65284 1.81934 1.81738H1.82031C2.66407 0.974044 3.80802 0.5001 5.00098 0.5Z" fill="#F37BBB" stroke="#96918E"/>
</svg>
