<svg width="24" height="24" viewBox="0 0 24 24" fill="none" xmlns="http://www.w3.org/2000/svg">
<path d="M8.0708 4.81396C9.26395 4.81396 10.4086 5.28785 11.2524 6.13135L11.2534 6.13232C11.4412 6.31946 11.6808 6.55015 11.9712 6.82373L12.3149 7.14697L12.6577 6.82373C12.9475 6.55009 13.1859 6.31834 13.3735 6.13135C14.2138 5.29513 15.3511 4.82495 16.5366 4.82178C17.7221 4.81868 18.8608 5.28391 19.7056 6.11572C20.5502 6.94754 21.0332 8.07877 21.0483 9.26416C21.0634 10.4467 20.6118 11.5875 19.7925 12.4399L12.6665 19.5659C12.5727 19.6597 12.4456 19.7124 12.313 19.7124C12.1805 19.7124 12.0532 19.6596 11.9595 19.5659L4.8335 12.4409C4.01452 11.5932 3.56058 10.4577 3.56982 9.27881C3.57914 8.09761 4.05336 6.9668 4.88916 6.13135H4.89014C5.73389 5.28801 6.87784 4.81406 8.0708 4.81396Z" stroke="#96918E"/>
</svg>
