<svg width="17" height="17" viewBox="0 0 17 17" fill="none" xmlns="http://www.w3.org/2000/svg">
<path d="M14.7524 0.5H1.6877C1.03175 0.5 0.5 1.03175 0.5 1.6877V14.7524C0.5 15.4084 1.03175 15.9401 1.6877 15.9401H14.7524C15.4084 15.9401 15.9401 15.4084 15.9401 14.7524V1.6877C15.9401 1.03175 15.4084 0.5 14.7524 0.5Z" stroke="#6A6765"/>
<path d="M14.7524 0.5H1.6877C1.03175 0.5 0.5 1.03175 0.5 1.6877V14.7524C0.5 15.4084 1.03175 15.9401 1.6877 15.9401H14.7524C15.4084 15.9401 15.9401 15.4084 15.9401 14.7524V1.6877C15.9401 1.03175 15.4084 0.5 14.7524 0.5Z" stroke="black" stroke-opacity="0.2"/>
<path d="M5.25069 6.43888C5.90664 6.43888 6.43839 5.90713 6.43839 5.25118C6.43839 4.59523 5.90664 4.06348 5.25069 4.06348C4.59474 4.06348 4.06299 4.59523 4.06299 5.25118C4.06299 5.90713 4.59474 6.43888 5.25069 6.43888Z" stroke="#6A6765"/>
<path d="M5.25069 6.43888C5.90664 6.43888 6.43839 5.90713 6.43839 5.25118C6.43839 4.59523 5.90664 4.06348 5.25069 4.06348C4.59474 4.06348 4.06299 4.59523 4.06299 5.25118C4.06299 5.90713 4.59474 6.43888 5.25069 6.43888Z" stroke="black" stroke-opacity="0.2"/>
<path d="M3.46924 12.9715L5.25079 10.0023L7.03234 12.9715L10.0016 8.2207L12.9708 12.9715" stroke="#6A6765" stroke-linecap="round" stroke-linejoin="round"/>
<path d="M3.46924 12.9715L5.25079 10.0023L7.03234 12.9715L10.0016 8.2207L12.9708 12.9715" stroke="black" stroke-opacity="0.2" stroke-linecap="round" stroke-linejoin="round"/>
</svg>
