<svg width="19" height="19" viewBox="0 0 19 19" fill="none" xmlns="http://www.w3.org/2000/svg">
<path d="M17.5397 1.06924C17.2236 0.736725 16.8442 0.470841 16.4238 0.287254C16.0034 0.103667 15.5504 0.00609088 15.0917 0.000276158C14.633 -0.00553857 14.1778 0.0805256 13.7528 0.253397C13.3279 0.426268 12.9419 0.682449 12.6175 1.00684L1.7852 11.8391C1.4071 12.2178 1.14461 12.6963 1.02838 13.2187L0.0139035 17.7827C-0.00731503 17.8777 -0.00420489 17.9765 0.0229455 18.0699C0.0500959 18.1633 0.100407 18.2484 0.169211 18.3172C0.238014 18.386 0.323082 18.4363 0.41652 18.4635C0.509959 18.4906 0.608741 18.4937 0.703703 18.4725L5.23997 17.4638C5.78048 17.3447 6.27538 17.0728 6.66579 16.6804L15.8862 7.45999L16.2756 7.84822C16.4922 8.0649 16.6139 8.35874 16.6139 8.66512C16.6139 8.9715 16.4922 9.26534 16.2756 9.48201L15.1895 10.5681C15.0844 10.6772 15.0264 10.8233 15.0279 10.9747C15.0294 11.1262 15.0904 11.271 15.1976 11.378C15.3049 11.485 15.4499 11.5455 15.6014 11.5466C15.7529 11.5477 15.8987 11.4893 16.0075 11.3839L17.0925 10.2978C17.5257 9.8644 17.7691 9.27673 17.7691 8.66396C17.7691 8.0512 17.5257 7.46352 17.0925 7.03017L16.7043 6.64194L17.4784 5.86779C18.1122 5.23373 18.4732 4.37716 18.4844 3.48073C18.4956 2.58431 18.1574 1.71897 17.5397 1.06924ZM13.4332 1.82374C13.8622 1.40085 14.441 1.16474 15.0434 1.1669C15.6458 1.16906 16.2229 1.40931 16.6488 1.83527C17.0748 2.26122 17.315 2.83832 17.3172 3.44071C17.3194 4.04309 17.0833 4.6219 16.6604 5.05089L5.84889 15.8635C5.61383 16.1005 5.31532 16.2647 4.98924 16.3361L1.33804 17.1472L2.15609 13.4694C2.22436 13.1611 2.37953 12.8789 2.60325 12.656L13.4332 1.82374Z" fill="#6A6765"/>
<path d="M17.5397 1.06924C17.2236 0.736725 16.8442 0.470841 16.4238 0.287254C16.0034 0.103667 15.5504 0.00609088 15.0917 0.000276158C14.633 -0.00553857 14.1778 0.0805256 13.7528 0.253397C13.3279 0.426268 12.9419 0.682449 12.6175 1.00684L1.7852 11.8391C1.4071 12.2178 1.14461 12.6963 1.02838 13.2187L0.0139035 17.7827C-0.00731503 17.8777 -0.00420489 17.9765 0.0229455 18.0699C0.0500959 18.1633 0.100407 18.2484 0.169211 18.3172C0.238014 18.386 0.323082 18.4363 0.41652 18.4635C0.509959 18.4906 0.608741 18.4937 0.703703 18.4725L5.23997 17.4638C5.78048 17.3447 6.27538 17.0728 6.66579 16.6804L15.8862 7.45999L16.2756 7.84822C16.4922 8.0649 16.6139 8.35874 16.6139 8.66512C16.6139 8.9715 16.4922 9.26534 16.2756 9.48201L15.1895 10.5681C15.0844 10.6772 15.0264 10.8233 15.0279 10.9747C15.0294 11.1262 15.0904 11.271 15.1976 11.378C15.3049 11.485 15.4499 11.5455 15.6014 11.5466C15.7529 11.5477 15.8987 11.4893 16.0075 11.3839L17.0925 10.2978C17.5257 9.8644 17.7691 9.27673 17.7691 8.66396C17.7691 8.0512 17.5257 7.46352 17.0925 7.03017L16.7043 6.64194L17.4784 5.86779C18.1122 5.23373 18.4732 4.37716 18.4844 3.48073C18.4956 2.58431 18.1574 1.71897 17.5397 1.06924ZM13.4332 1.82374C13.8622 1.40085 14.441 1.16474 15.0434 1.1669C15.6458 1.16906 16.2229 1.40931 16.6488 1.83527C17.0748 2.26122 17.315 2.83832 17.3172 3.44071C17.3194 4.04309 17.0833 4.6219 16.6604 5.05089L5.84889 15.8635C5.61383 16.1005 5.31532 16.2647 4.98924 16.3361L1.33804 17.1472L2.15609 13.4694C2.22436 13.1611 2.37953 12.8789 2.60325 12.656L13.4332 1.82374Z" fill="black" fill-opacity="0.2"/>
</svg>
