<svg width="21" height="19" viewBox="0 0 21 19" fill="none" xmlns="http://www.w3.org/2000/svg">
<path fill-rule="evenodd" clip-rule="evenodd" d="M5.77864 3.57027C4.9146 4.42158 4.25412 5.45714 3.84654 6.59958C3.43896 7.74202 3.29482 8.96179 3.42489 10.1678C3.43699 10.3298 3.38556 10.4901 3.28147 10.6148C3.17738 10.7395 3.02883 10.8188 2.86728 10.8359C2.70574 10.853 2.5439 10.8064 2.41605 10.7062C2.2882 10.606 2.2044 10.46 2.18239 10.299C2.03236 8.90613 2.19896 7.49735 2.66973 6.17788C3.14051 4.85841 3.9033 3.66235 4.90114 2.67902C8.57239 -0.942235 14.4949 -0.883484 18.1286 2.80152C21.7624 6.48652 21.7386 12.4078 18.0661 16.029C16.3659 17.7079 14.084 18.6668 11.6949 18.7065C10.7916 18.7231 9.89057 18.609 9.01989 18.3678C8.8601 18.3237 8.72436 18.2179 8.64255 18.0737C8.56074 17.9296 8.53955 17.7588 8.58364 17.599C8.62773 17.4392 8.73349 17.3035 8.87766 17.2217C9.02183 17.1399 9.1926 17.1187 9.35239 17.1628C10.1075 17.372 10.8889 17.471 11.6724 17.4565C13.7411 17.424 15.7174 16.5937 17.1886 15.139C20.3649 12.0065 20.3911 6.87652 17.2386 3.67902C14.0861 0.481516 8.95489 0.437765 5.77864 3.57027Z" fill="#96918E"/>
<path fill-rule="evenodd" clip-rule="evenodd" d="M3.26625 10.9612C3.21159 11.0224 3.1454 11.0723 3.07147 11.108C2.99754 11.1436 2.9173 11.1644 2.83536 11.169C2.75341 11.1736 2.67135 11.1621 2.59386 11.135C2.51637 11.108 2.44498 11.0659 2.38375 11.0112L0.23375 9.09872C0.167657 9.04566 0.113046 8.97972 0.0732365 8.9049C0.0334271 8.83007 0.00925148 8.74794 0.00217959 8.66348C-0.0048923 8.57902 0.00528728 8.49401 0.0320995 8.41361C0.0589117 8.33321 0.101796 8.2591 0.158146 8.19579C0.214495 8.13248 0.283131 8.0813 0.359882 8.04535C0.436632 8.00939 0.519893 7.98943 0.604602 7.98666C0.68931 7.98389 0.773696 7.99839 0.852628 8.02925C0.931561 8.06012 1.00339 8.10672 1.06375 8.16622L3.21375 10.0787C3.27516 10.1332 3.32523 10.1993 3.3611 10.2731C3.39697 10.347 3.41795 10.4271 3.42282 10.5091C3.4277 10.591 3.41638 10.6732 3.38952 10.7507C3.36265 10.8283 3.32076 10.8998 3.26625 10.9612Z" fill="#96918E"/>
<path fill-rule="evenodd" clip-rule="evenodd" d="M2.29883 10.8828C2.34808 10.9485 2.40977 11.0038 2.4804 11.0456C2.55102 11.0874 2.62919 11.1149 2.71044 11.1265C2.79169 11.1381 2.87444 11.1336 2.95394 11.1133C3.03345 11.0929 3.10817 11.0571 3.17383 11.0078L5.67383 9.13281C5.80644 9.03336 5.89411 8.8853 5.91755 8.7212C5.94099 8.55711 5.89829 8.39042 5.79883 8.25781C5.69937 8.1252 5.55131 8.03754 5.38722 8.01409C5.22312 7.99065 5.05644 8.03336 4.92383 8.13281L2.42383 10.0078C2.29122 10.1073 2.20355 10.2553 2.18011 10.4194C2.15667 10.5835 2.19937 10.7502 2.29883 10.8828ZM11.2738 4.88281C11.4396 4.88281 11.5986 4.94866 11.7158 5.06587C11.833 5.18308 11.8988 5.34205 11.8988 5.50781V9.88281C11.8988 10.0486 11.833 10.2075 11.7158 10.3248C11.5986 10.442 11.4396 10.5078 11.2738 10.5078C11.1081 10.5078 10.9491 10.442 10.8319 10.3248C10.7147 10.2075 10.6488 10.0486 10.6488 9.88281V5.50781C10.6488 5.34205 10.7147 5.18308 10.8319 5.06587C10.9491 4.94866 11.1081 4.88281 11.2738 4.88281Z" fill="#96918E"/>
<path fill-rule="evenodd" clip-rule="evenodd" d="M15.6484 9.88281C15.6484 10.0486 15.5826 10.2075 15.4654 10.3248C15.3482 10.442 15.1892 10.5078 15.0234 10.5078H11.2734C11.1077 10.5078 10.9487 10.442 10.8315 10.3248C10.7143 10.2075 10.6484 10.0486 10.6484 9.88281C10.6484 9.71705 10.7143 9.55808 10.8315 9.44087C10.9487 9.32366 11.1077 9.25781 11.2734 9.25781H15.0234C15.1892 9.25781 15.3482 9.32366 15.4654 9.44087C15.5826 9.55808 15.6484 9.71705 15.6484 9.88281Z" fill="#96918E"/>
</svg>
