<svg width="21" height="21" viewBox="0 0 21 21" fill="none" xmlns="http://www.w3.org/2000/svg">
<path d="M19.1672 20.0848C19.6883 20.6059 20.4926 19.8016 19.9715 19.2918L15.7235 15.0325C17.214 13.3839 18.0378 11.2397 18.0344 9.01721C18.0344 4.04415 13.9903 0 9.01721 0C4.04415 0 0 4.04415 0 9.01721C0 13.9903 4.04415 18.0344 9.01721 18.0344C11.2602 18.0344 13.3332 17.2075 14.9192 15.8368L19.1672 20.0848ZM1.13168 9.01721C1.13168 4.6672 4.6774 1.13282 9.01608 1.13282C13.3661 1.13282 16.9005 4.6672 16.9005 9.01721C16.9005 13.3672 13.3661 16.9016 9.01608 16.9016C4.6774 16.9016 1.13168 13.3672 1.13168 9.01721Z" fill="#6A6765"/>
<path d="M19.1672 20.0848C19.6883 20.6059 20.4926 19.8016 19.9715 19.2918L15.7235 15.0325C17.214 13.3839 18.0378 11.2397 18.0344 9.01721C18.0344 4.04415 13.9903 0 9.01721 0C4.04415 0 0 4.04415 0 9.01721C0 13.9903 4.04415 18.0344 9.01721 18.0344C11.2602 18.0344 13.3332 17.2075 14.9192 15.8368L19.1672 20.0848ZM1.13168 9.01721C1.13168 4.6672 4.6774 1.13282 9.01608 1.13282C13.3661 1.13282 16.9005 4.6672 16.9005 9.01721C16.9005 13.3672 13.3661 16.9016 9.01608 16.9016C4.6774 16.9016 1.13168 13.3672 1.13168 9.01721Z" fill="black" fill-opacity="0.2"/>
</svg>
