<svg width="24" height="24" viewBox="0 0 24 24" fill="none" xmlns="http://www.w3.org/2000/svg">
<g clip-path="url(#clip0_83_3607)">
<path d="M16.4642 6.38342L4.65531 18.1923C4.49872 18.3489 4.40937 18.56 4.40691 18.779C4.40446 18.998 4.48911 19.207 4.64224 19.3602C4.79537 19.5133 5.00443 19.5979 5.22344 19.5955C5.44245 19.593 5.65346 19.5037 5.81006 19.3471L17.619 7.53816C17.7756 7.38157 17.8649 7.17055 17.8674 6.95154C17.8698 6.73254 17.7852 6.52347 17.6321 6.37034C17.4789 6.21721 17.2699 6.13256 17.0509 6.13502C16.8318 6.13747 16.6208 6.22682 16.4642 6.38342Z" fill="#96918E"/>
<path d="M16.7977 7.20272L16.6856 16.8884C16.6844 16.9972 16.7046 17.1046 16.7451 17.2047C16.7856 17.3047 16.8456 17.3954 16.9217 17.4714C16.9977 17.5475 17.0884 17.6075 17.1884 17.648C17.2885 17.6885 17.396 17.7087 17.5047 17.7075C17.6135 17.7063 17.7215 17.6837 17.8225 17.6409C17.9234 17.5981 18.0155 17.5361 18.0932 17.4583C18.171 17.3805 18.2331 17.2885 18.2758 17.1875C18.3186 17.0866 18.3412 16.9786 18.3424 16.8698L18.4601 6.35944C18.4617 6.25055 18.4417 6.1429 18.4013 6.0427C18.3609 5.9425 18.3009 5.85172 18.2248 5.77559C18.1487 5.69945 18.0579 5.63947 17.9577 5.59909C17.8575 5.55871 17.7498 5.53872 17.6409 5.54029L7.13057 5.65795C7.02178 5.65917 6.91382 5.6818 6.81284 5.72456C6.71187 5.76732 6.61986 5.82936 6.54207 5.90715C6.46429 5.98493 6.40224 6.07694 6.35948 6.17792C6.31673 6.27889 6.29409 6.38686 6.29288 6.49565C6.29166 6.60444 6.31188 6.71192 6.35239 6.81196C6.39289 6.91201 6.45289 7.00265 6.52896 7.07871C6.60502 7.15478 6.69566 7.21478 6.79571 7.25528C6.89575 7.29579 7.00323 7.31601 7.11202 7.31479L16.7977 7.20272Z" fill="#96918E"/>
</g>
<defs>
<clipPath id="clip0_83_3607">
<rect width="24" height="24" fill="white" transform="matrix(-1 0 0 1 24 0)"/>
</clipPath>
</defs>
</svg>
