<svg width="20" height="20" viewBox="0 0 20 20" fill="none" xmlns="http://www.w3.org/2000/svg">
<path d="M7.46733 12.7224L14.6319 5.55789M7.46733 13.2001V15.3275C7.46733 17.5953 7.46733 18.7282 8.14557 18.9097C8.82382 19.0913 9.53836 18.1474 10.9675 16.2608L11.7661 15.1106M6.04206 5.72888L13.0356 2.42364C15.9416 1.04995 17.3945 0.363111 18.3211 1.05186C19.2478 1.74062 18.9832 3.31109 18.453 6.45107L17.5416 11.8598C17.1949 13.9127 17.022 14.9387 16.2568 15.3867C15.4916 15.8347 14.4972 15.4908 12.5093 14.803L6.42895 12.6995C2.71102 11.4137 0.852059 10.7708 0.783279 9.5089C0.712589 8.24794 2.4894 7.4073 6.04206 5.72888Z" stroke="#F37BBB" stroke-width="1.5625" stroke-linecap="round" stroke-linejoin="round"/>
</svg>
