<svg width="10" height="6" viewBox="0 0 10 6" fill="none" xmlns="http://www.w3.org/2000/svg">
<path d="M4.98794 0.806559L9.2652 5.08326C9.3465 5.16457 9.44406 5.20485 9.55789 5.20411C9.67171 5.20337 9.76946 5.16198 9.85113 5.07994C9.9328 4.9979 9.97364 4.90015 9.97364 4.78669C9.97364 4.67324 9.9328 4.57549 9.85113 4.49345L5.61822 0.257766C5.52842 0.168333 5.42864 0.102922 5.31888 0.0615313C5.20838 0.0205104 5.09807 0 4.98794 0C4.87781 0 4.76768 0.0205104 4.65756 0.0615313C4.54743 0.102922 4.44765 0.168333 4.35821 0.257766L0.120868 4.4929C0.0391953 4.57457 -0.0010864 4.67287 2.22725e-05 4.7878C0.00113095 4.90237 0.0425214 5.00067 0.124194 5.08271C0.205866 5.16401 0.303614 5.20466 0.417437 5.20466C0.531261 5.20466 0.629009 5.16401 0.710681 5.08271L4.98794 0.806559Z" fill="#B8B8B8"/>
</svg>
