<svg width="16" height="16" viewBox="0 0 16 16" fill="none" xmlns="http://www.w3.org/2000/svg">
<path d="M7.99966 10.2169L12.2769 5.94017C12.3582 5.85887 12.4558 5.81859 12.5696 5.81933C12.6834 5.82007 12.7812 5.86146 12.8629 5.9435C12.9445 6.02554 12.9854 6.12329 12.9854 6.23674C12.9854 6.3502 12.9445 6.44795 12.8629 6.52999L8.62994 10.7657C8.54014 10.8551 8.44036 10.9205 8.3306 10.9619C8.2201 11.0029 8.10979 11.0234 7.99966 11.0234C7.88953 11.0234 7.7794 11.0029 7.66927 10.9619C7.55915 10.9205 7.45937 10.8551 7.36993 10.7657L3.13259 6.53054C3.05091 6.44887 3.01063 6.35057 3.01174 6.23564C3.01285 6.12107 3.05424 6.02277 3.13591 5.94073C3.21758 5.85943 3.31533 5.81877 3.42916 5.81877C3.54298 5.81877 3.64073 5.85943 3.7224 5.94073L7.99966 10.2169Z" fill="#EBEBEB"/>
</svg>
