<svg width="24" height="24" viewBox="0 0 24 24" fill="none" xmlns="http://www.w3.org/2000/svg">
<path d="M11.199 3.994C11.199 3.78166 11.2834 3.57801 11.4335 3.42786C11.5837 3.27771 11.7873 3.19336 11.9997 3.19336C12.212 3.19336 12.4156 3.27771 12.5658 3.42786C12.7159 3.57801 12.8003 3.78166 12.8003 3.994V20.0068C12.8003 20.2191 12.7159 20.4228 12.5658 20.5729C12.4156 20.7231 12.212 20.8074 11.9997 20.8074C11.7873 20.8074 11.5837 20.7231 11.4335 20.5729C11.2834 20.4228 11.199 20.2191 11.199 20.0068V3.994Z" fill="#6A6765"/>
<path d="M11.199 3.994C11.199 3.78166 11.2834 3.57801 11.4335 3.42786C11.5837 3.27771 11.7873 3.19336 11.9997 3.19336C12.212 3.19336 12.4156 3.27771 12.5658 3.42786C12.7159 3.57801 12.8003 3.78166 12.8003 3.994V20.0068C12.8003 20.2191 12.7159 20.4228 12.5658 20.5729C12.4156 20.7231 12.212 20.8074 11.9997 20.8074C11.7873 20.8074 11.5837 20.7231 11.4335 20.5729C11.2834 20.4228 11.199 20.2191 11.199 20.0068V3.994Z" fill="black" fill-opacity="0.2"/>
<path d="M20.006 11.1992C20.2183 11.1992 20.422 11.2836 20.5721 11.4337C20.7223 11.5839 20.8066 11.7875 20.8066 11.9999C20.8066 12.2122 20.7223 12.4158 20.5721 12.566C20.422 12.7161 20.2183 12.8005 20.006 12.8005H3.99322C3.78087 12.8005 3.57723 12.7161 3.42708 12.566C3.27693 12.4158 3.19258 12.2122 3.19258 11.9999C3.19258 11.7875 3.27693 11.5839 3.42708 11.4337C3.57723 11.2836 3.78087 11.1992 3.99322 11.1992H20.006Z" fill="#6A6765"/>
<path d="M20.006 11.1992C20.2183 11.1992 20.422 11.2836 20.5721 11.4337C20.7223 11.5839 20.8066 11.7875 20.8066 11.9999C20.8066 12.2122 20.7223 12.4158 20.5721 12.566C20.422 12.7161 20.2183 12.8005 20.006 12.8005H3.99322C3.78087 12.8005 3.57723 12.7161 3.42708 12.566C3.27693 12.4158 3.19258 12.2122 3.19258 11.9999C3.19258 11.7875 3.27693 11.5839 3.42708 11.4337C3.57723 11.2836 3.78087 11.1992 3.99322 11.1992H20.006Z" fill="black" fill-opacity="0.2"/>
</svg>
