<svg width="293" height="344" viewBox="0 0 293 344" fill="none" xmlns="http://www.w3.org/2000/svg">
<g opacity="0.4">
<mask id="mask0_1897_14444" style="mask-type:luminance" maskUnits="userSpaceOnUse" x="0" y="0" width="294" height="344">
<path d="M293.188 0H0V343.992H293.188V0Z" fill="white"/>
</mask>
<g mask="url(#mask0_1897_14444)">
<path d="M236.271 358.221C236.271 358.221 249.61 370.751 275.924 355.428C302.238 340.105 301.144 332.345 302.092 323.695L236.271 358.221Z" fill="#E24B17"/>
<path d="M277.391 357.945C271.111 361.599 264.985 364.035 259.194 365.187C254.453 366.128 249.917 366.208 245.709 365.435C238.328 364.079 234.448 360.498 234.28 360.344L231.297 357.544L305.579 318.576L304.981 324.01C304.915 324.579 304.864 325.162 304.813 325.731C304.426 329.808 303.996 334.424 300.204 339.77C296.178 345.452 288.921 351.228 277.383 357.945H277.391ZM242.23 358.383C243.55 358.93 245.191 359.447 247.153 359.776C250.617 360.352 254.388 360.228 258.37 359.411C263.439 358.368 268.85 356.18 274.459 352.913C285.107 346.713 291.977 341.309 295.456 336.401C297.403 333.659 298.176 331.259 298.585 328.823L242.23 358.39V358.383Z" fill="#26190D"/>
<path d="M213.568 182.564C213.568 182.564 215.165 175.234 224.099 163.098C233.033 150.963 248.451 130.731 253.833 130.819C259.216 130.906 269.747 147.155 275.925 161.436C282.109 175.716 282.459 190.98 278.076 199.929C278.076 199.929 294.457 210.658 314.907 236.614C335.357 262.571 337.428 285.369 316.971 307.942C296.521 330.514 283.145 337.771 269.93 344.393C256.714 351.016 229.073 367.651 201.971 366.9C174.87 366.149 161.946 344.875 156.491 327.254C151.028 309.634 144.683 281.329 144.683 281.329C144.683 281.329 130.483 278.929 119.018 267.472C107.546 256.014 93.966 230.86 94.6661 225.652C95.3663 220.445 107.349 217.2 124.7 214.034C142.05 210.862 159.933 211.657 159.933 211.657C159.933 211.657 170.895 200.746 183.724 194.27C196.552 187.793 213.568 182.557 213.568 182.557V182.564Z" fill="#B7B09B"/>
<path d="M282.277 341.118C278.499 343.313 274.875 345.173 271.235 347.003C269.616 347.82 267.713 348.812 265.7 349.87C250.989 357.586 226.375 370.495 201.891 369.817C188.887 369.459 177.824 364.616 169.013 355.42C160.655 346.697 156.075 335.757 153.712 328.114C149.329 313.972 144.333 292.793 142.539 284.989C142.371 284.252 141.817 283.669 141.088 283.472C136.041 282.072 125.787 278.345 116.969 269.535C111.645 264.218 105.212 255.291 99.757 245.657C97.3284 241.361 95.2936 237.299 93.886 233.885C91.6834 228.576 91.6397 226.417 91.7928 225.265C92.4419 220.415 98.2036 217.848 102.477 216.338C107.327 214.624 114.023 213.027 124.189 211.174C138.382 208.578 152.691 208.578 157.972 208.687C158.511 208.702 159.029 208.498 159.423 208.133C162.931 204.873 172.011 196.923 182.426 191.672C192.563 186.56 205.042 182.271 210.264 180.565C210.862 180.368 211.336 179.916 211.555 179.325C212.765 176.028 215.588 169.771 221.773 161.376C228.307 152.493 233.653 145.659 238.109 140.481C247.693 129.337 251.471 127.871 253.907 127.915C255.978 127.951 258.21 129.133 260.726 131.532C262.651 133.37 264.759 135.93 266.998 139.147C271.162 145.127 275.4 152.836 278.623 160.282C281.73 167.459 283.553 175.16 283.896 182.549C284.159 188.135 283.568 193.24 282.182 197.551C281.913 198.382 282.197 199.279 282.89 199.812C284.793 201.263 287.477 203.429 290.781 206.368C296.937 211.853 306.52 221.239 317.212 234.819C328.115 248.654 333.673 261.286 334.205 273.422C334.482 279.738 333.359 286.003 330.865 292.042C328.378 298.059 324.439 304.068 319.152 309.903C309.765 320.266 301.035 328.318 292.466 334.517C288.899 337.099 285.552 339.236 282.306 341.125L282.277 341.118ZM99.9029 223.821C97.766 225.068 97.5691 225.921 97.5472 226.053C97.4524 227.168 99.1225 232.799 104.913 242.987C110.099 252.111 116.138 260.498 121.068 265.421C124.124 268.47 129.375 272.773 137.084 275.945C141.744 277.864 145.135 278.462 145.165 278.469L145.726 278.564C146.55 278.71 147.207 279.33 147.389 280.146L147.513 280.701C147.579 280.985 153.895 309.093 159.262 326.4C161.443 333.445 165.637 343.495 173.207 351.394C180.923 359.438 190.623 363.683 202.044 363.997C225.011 364.631 248.787 352.167 262.987 344.713C265.021 343.648 266.947 342.635 268.617 341.796C275.166 338.514 281.65 335.123 289.016 329.791C297.25 323.833 305.688 316.044 314.798 305.986C324.41 295.382 328.844 284.807 328.348 273.677C327.867 262.796 322.718 251.265 312.602 238.422C302.224 225.25 292.954 216.148 287.003 210.832C280.556 205.07 276.508 202.393 276.464 202.364L275.845 201.956C274.977 201.387 274.663 200.256 275.123 199.323L275.451 198.652C277.413 194.648 278.332 189.025 278.047 182.818C277.734 176.123 276.078 169.129 273.248 162.594C270.251 155.666 266.159 148.205 262.301 142.633C258.808 137.586 256.342 135.252 254.949 134.304C254.271 133.844 253.396 133.837 252.703 134.267C251.201 135.208 248.057 137.761 242.099 144.733C237.818 149.744 232.698 156.315 226.433 164.819C218.199 175.999 216.463 182.92 216.398 183.183L216.303 183.642C216.15 184.394 215.588 184.999 214.851 185.211L214.406 185.342C214.239 185.393 197.472 190.586 185.015 196.872C172.769 203.05 162.07 213.618 161.968 213.72L161.706 213.982C161.297 214.391 160.736 214.61 160.159 214.58L159.788 214.566C159.612 214.558 142.021 213.829 125.21 216.9C115.357 218.701 108.939 220.218 104.396 221.83C102.339 222.559 100.902 223.23 99.8883 223.821H99.9029Z" fill="#26190D"/>
<path d="M146.149 283.852C145.908 283.991 145.645 284.1 145.361 284.166C143.8 284.538 142.225 283.575 141.853 282.014C138.914 269.747 139.235 259.23 140.022 252.564C140.883 245.264 142.458 240.866 142.524 240.683C143.071 239.174 144.741 238.393 146.251 238.94C147.76 239.487 148.541 241.15 148.001 242.667C147.987 242.711 146.55 246.766 145.784 253.454C145.077 259.609 144.807 269.324 147.52 280.665C147.826 281.941 147.235 283.232 146.156 283.859L146.149 283.852Z" fill="#26190D"/>
<path d="M279.542 202.452C278.608 202.992 277.412 202.999 276.457 202.357C258.465 190.352 241.53 186.341 241.362 186.297C239.794 185.933 238.817 184.372 239.181 182.804C239.546 181.236 241.107 180.259 242.667 180.623C243.397 180.791 260.762 184.882 279.688 197.507C281.022 198.397 281.387 200.205 280.49 201.547C280.235 201.927 279.907 202.233 279.535 202.445L279.542 202.452Z" fill="#26190D"/>
<path d="M164.018 344.181C162.887 344.837 161.429 344.553 160.634 343.474C159.788 342.321 160.036 340.702 161.181 339.856L179.487 326.386C180.639 325.54 182.258 325.787 183.104 326.933C183.95 328.085 183.702 329.704 182.557 330.55L164.251 344.021C164.178 344.079 164.098 344.13 164.018 344.174V344.181Z" fill="#26190D"/>
<path d="M249.122 340.047C267.924 340.047 283.167 324.804 283.167 306.002C283.167 287.199 267.924 271.957 249.122 271.957C230.319 271.957 215.077 287.199 215.077 306.002C215.077 324.804 230.319 340.047 249.122 340.047Z" fill="#58574E"/>
<path d="M215.748 312.601C222.41 312.601 227.811 307.2 227.811 300.538C227.811 293.875 222.41 288.475 215.748 288.475C209.086 288.475 203.685 293.875 203.685 300.538C203.685 307.2 209.086 312.601 215.748 312.601Z" fill="#26190D"/>
<path d="M266.495 283.058C273.157 283.058 278.558 277.657 278.558 270.995C278.558 264.332 273.157 258.932 266.495 258.932C259.832 258.932 254.432 264.332 254.432 270.995C254.432 277.657 259.832 283.058 266.495 283.058Z" fill="#26190D"/>
<path d="M247.919 304.438C249.597 303.461 250.364 301.65 249.632 300.394C248.9 299.137 246.947 298.911 245.269 299.887C243.592 300.864 242.825 302.675 243.556 303.932C244.288 305.188 246.241 305.415 247.919 304.438Z" fill="#26190D"/>
<path d="M259.033 305.84L268.493 311.31L267.916 300.662" fill="white"/>
<path d="M269.791 313.541C268.989 314.008 267.997 314.008 267.195 313.541L257.735 308.072C256.496 307.357 256.073 305.774 256.787 304.534C257.502 303.294 259.085 302.871 260.325 303.586L265.649 306.664L265.328 300.793C265.247 299.363 266.349 298.145 267.771 298.073C269.2 297.992 270.418 299.086 270.491 300.516L271.067 311.157C271.119 312.105 270.644 313.002 269.835 313.505C269.82 313.512 269.798 313.527 269.784 313.534L269.791 313.541Z" fill="#26190D"/>
<path d="M265.328 306.331C262.797 307.804 260.594 308.198 258.45 308.577C256.27 308.964 254.009 309.365 250.967 311.05C248.057 312.662 247.233 313.909 246.365 315.229C245.344 316.782 244.192 318.54 240.735 320.057C238.015 321.253 235.192 321.734 232.574 321.435C230.539 321.209 229.292 320.597 229.059 320.48L231.451 315.892C231.451 315.892 231.436 315.885 231.414 315.871C231.531 315.929 234.346 317.22 238.656 315.324C240.713 314.419 241.216 313.653 242.048 312.384C243.113 310.765 244.44 308.752 248.466 306.521C252.266 304.42 255.19 303.902 257.546 303.479C259.69 303.1 261.382 302.794 263.424 301.415C266.874 299.082 266.677 296.872 266.626 296.544C266.137 295.296 266.684 293.86 267.91 293.269C269.193 292.649 270.747 293.189 271.367 294.472C272.3 296.398 272.286 301.671 266.32 305.704C265.984 305.93 265.656 306.134 265.335 306.324L265.328 306.331Z" fill="#26190D"/>
<path d="M208.411 266.961C208.309 267.02 208.2 267.078 208.091 267.122L187.159 276.114C185.678 276.749 183.972 276.063 183.337 274.59C182.703 273.109 183.388 271.403 184.862 270.768L205.793 261.776C207.274 261.141 208.98 261.827 209.615 263.3C210.198 264.664 209.659 266.232 208.411 266.961Z" fill="#26190D"/>
<path d="M240.261 248.421C239.006 249.15 237.38 248.844 236.483 247.663C235.513 246.379 235.761 244.556 237.045 243.586L255.197 229.816C256.474 228.846 258.304 229.094 259.274 230.378C260.244 231.661 259.996 233.485 258.713 234.455L240.56 248.224C240.465 248.297 240.363 248.363 240.261 248.421Z" fill="#26190D"/>
</g>
<path d="M136.252 132.903C139.811 126.259 141.831 118.667 141.831 110.607C141.831 84.4759 120.644 63.2891 94.5128 63.2891C68.3811 63.2891 47.1943 84.4759 47.1943 110.607C47.1943 136.739 68.3811 157.926 94.5128 157.926C101.12 157.926 107.414 156.569 113.132 154.119L141.838 164.41L136.266 132.896H136.259L136.252 132.903Z" fill="white" stroke="#26190D" stroke-width="10" stroke-linejoin="round"/>
<path d="M115.717 96.8684L109.353 90.5045C107.541 88.6931 104.604 88.6931 102.793 90.5045L73.3046 119.993C71.4932 121.804 71.4932 124.741 73.3046 126.553L79.6685 132.916C81.4799 134.728 84.4168 134.728 86.2283 132.916L115.717 103.428C117.528 101.617 117.528 98.6798 115.717 96.8684Z" fill="#26190D"/>
<path d="M109.354 132.913L115.718 126.549C117.53 124.738 117.53 121.801 115.718 119.99L86.2299 90.5014C84.4185 88.69 81.4816 88.69 79.6701 90.5014L73.3063 96.8653C71.4948 98.6767 71.4948 101.614 73.3063 103.425L102.794 132.913C104.606 134.725 107.543 134.725 109.354 132.913Z" fill="#26190D"/>
</g>
</svg>
