<svg width="22" height="15" viewBox="0 0 22 15" fill="none" xmlns="http://www.w3.org/2000/svg">
<path d="M9.831 14.437C9.53367 14.1397 9.385 13.7757 9.385 13.345C9.385 12.9143 9.53367 12.55 9.831 12.252C10.1283 11.954 10.4923 11.8053 10.923 11.806C11.3537 11.8067 11.7177 11.9553 12.015 12.252C12.3123 12.5487 12.461 12.913 12.461 13.345C12.461 13.777 12.3123 14.141 12.015 14.437C11.7177 14.733 11.3537 14.8817 10.923 14.883C10.4923 14.8843 10.1283 14.7357 9.831 14.437ZM5.273 9.81001L4.25 8.77601C5.118 7.90801 6.11833 7.22801 7.251 6.73601C8.38367 6.24467 9.60767 5.99901 10.923 5.99901C12.2383 5.99901 13.4623 6.24567 14.595 6.73901C15.7277 7.23234 16.728 7.91501 17.596 8.78701L16.573 9.81001C15.8397 9.07667 14.9897 8.50167 14.023 8.08501C13.0563 7.66834 12.023 7.46001 10.923 7.46001C9.823 7.46001 8.78967 7.66834 7.823 8.08501C6.85633 8.50167 6.00633 9.07667 5.273 9.81001ZM1.023 5.56001L0 4.53701C1.39267 3.13701 3.01767 2.03034 4.875 1.21701C6.73233 0.403674 8.74833 -0.00199264 10.923 7.35895e-06C13.0977 0.00200736 15.1137 0.408341 16.971 1.21901C18.8283 2.02967 20.4533 3.13601 21.846 4.53801L20.823 5.56001C19.5397 4.27667 18.0523 3.27267 16.361 2.54801C14.6697 1.82334 12.857 1.46067 10.923 1.46001C8.989 1.45934 7.17667 1.82201 5.486 2.54801C3.79533 3.27401 2.30767 4.27801 1.023 5.56001Z" fill="#9E9E9E"/>
</svg>
