<svg width="22" height="22" viewBox="0 0 22 22" fill="none" xmlns="http://www.w3.org/2000/svg">
<path d="M13.75 10.75V16.75M10.75 13.75H16.75" stroke="#6C4E39" stroke-width="1.5" stroke-linecap="round" stroke-linejoin="round"/>
<path d="M18.75 6.75H8.75C7.64543 6.75 6.75 7.64543 6.75 8.75V18.75C6.75 19.8546 7.64543 20.75 8.75 20.75H18.75C19.8546 20.75 20.75 19.8546 20.75 18.75V8.75C20.75 7.64543 19.8546 6.75 18.75 6.75Z" stroke="#6C4E39" stroke-width="1.5" stroke-linecap="round" stroke-linejoin="round"/>
<path d="M2.75 14.75C1.65 14.75 0.75 13.85 0.75 12.75V2.75C0.75 1.65 1.65 0.75 2.75 0.75H12.75C13.85 0.75 14.75 1.65 14.75 2.75" stroke="#6C4E39" stroke-width="1.5" stroke-linecap="round" stroke-linejoin="round"/>
</svg>
