<svg width="16" height="18" viewBox="0 0 16 18" fill="none" xmlns="http://www.w3.org/2000/svg">
<path d="M5.6099 2.7584C6.0883 1.3584 8.0227 1.316 8.5899 2.6312L8.6379 2.7592L9.2835 4.6472C9.43146 5.08019 9.67055 5.47641 9.98465 5.80914C10.2987 6.14187 10.6806 6.40337 11.1043 6.576L11.2779 6.6408L13.1659 7.2856C14.5659 7.764 14.6083 9.6984 13.2939 10.2656L13.1659 10.3136L11.2779 10.9592C10.8448 11.1071 10.4484 11.3461 10.1155 11.6602C9.78264 11.9743 9.52102 12.3562 9.3483 12.78L9.2835 12.9528L8.6387 14.8416C8.1603 16.2416 6.2259 16.284 5.6595 14.9696L5.6099 14.8416L4.9651 12.9536C4.81725 12.5205 4.5782 12.1241 4.2641 11.7912C3.94999 11.4583 3.56814 11.1967 3.1443 11.024L2.9715 10.9592L1.0835 10.3144C-0.317298 9.836 -0.359698 7.9016 0.955502 7.3352L1.0835 7.2856L2.9715 6.6408C3.40449 6.49285 3.80071 6.25376 4.13344 5.93966C4.46617 5.62556 4.72767 5.24375 4.9003 4.82L4.9651 4.6472L5.6099 2.7584ZM13.5243 1.4455e-07C13.674 -1.88778e-07 13.8206 0.0419826 13.9476 0.121177C14.0746 0.200372 14.1769 0.313602 14.2427 0.448L14.2811 0.5416L14.5611 1.3624L15.3827 1.6424C15.5327 1.69336 15.6642 1.78769 15.7605 1.91345C15.8568 2.03921 15.9136 2.19073 15.9237 2.34882C15.9338 2.5069 15.8968 2.66442 15.8173 2.80143C15.7378 2.93844 15.6194 3.04875 15.4771 3.1184L15.3827 3.1568L14.5619 3.4368L14.2819 4.2584C14.2309 4.40834 14.1364 4.53976 14.0106 4.63599C13.8848 4.73223 13.7333 4.78895 13.5752 4.79898C13.4171 4.809 13.2596 4.77188 13.1227 4.6923C12.9857 4.61273 12.8755 4.49429 12.8059 4.352L12.7675 4.2584L12.4875 3.4376L11.6659 3.1576C11.5159 3.10664 11.3844 3.01231 11.2881 2.88655C11.1918 2.76079 11.135 2.60927 11.1249 2.45118C11.1148 2.2931 11.1518 2.13558 11.2313 1.99857C11.3108 1.86157 11.4292 1.75125 11.5715 1.6816L11.6659 1.6432L12.4867 1.3632L12.7667 0.5416C12.8206 0.38354 12.9227 0.246327 13.0586 0.149199C13.1944 0.0520712 13.3573 -0.000100225 13.5243 1.4455e-07Z" fill="#F37BBB"/>
</svg>
