<svg width="32" height="32" viewBox="0 0 32 32" fill="none" xmlns="http://www.w3.org/2000/svg">
<rect width="32" height="32" rx="16" transform="matrix(0 -1 -1 0 32 32)" fill="white"/>
<path d="M12.2294 16.4986L18.6444 10.0827C18.7664 9.96072 18.8268 9.81437 18.8257 9.64364C18.8246 9.4729 18.7625 9.32628 18.6394 9.20377C18.5164 9.08126 18.3698 9.02001 18.1996 9.02001C18.0294 9.02001 17.8828 9.08126 17.7597 9.20377L11.4062 15.5531C11.272 15.6878 11.1739 15.8375 11.1118 16.0022C11.0503 16.1679 11.0195 16.3334 11.0195 16.4986C11.0195 16.6638 11.0503 16.8289 11.1118 16.9941C11.1739 17.1593 11.272 17.309 11.4062 17.4431L17.7589 23.7992C17.8814 23.9217 18.0288 23.9821 18.2012 23.9804C18.3731 23.9788 18.5205 23.9167 18.6436 23.7942C18.7655 23.6717 18.8265 23.525 18.8265 23.3543C18.8265 23.1836 18.7655 23.037 18.6436 22.9144L12.2294 16.4986Z" fill="#96918E"/>
</svg>
