<svg width="23" height="21" viewBox="0 0 23 21" fill="none" xmlns="http://www.w3.org/2000/svg">
<path d="M6.285 3.64703C5.1945 3.68353 4.281 3.72853 3.545 3.77303C2.1885 3.85503 1.117 4.89053 0.9965 6.24453C0.83541 8.05259 0.753166 9.86681 0.75 11.682C0.75 13.8105 0.873 15.727 0.9965 17.119C1.117 18.473 2.1885 19.509 3.5455 19.5905C5.207 19.6905 7.773 19.7955 11.25 19.7955C14.727 19.7955 17.293 19.6905 18.955 19.5905C20.3115 19.5085 21.383 18.473 21.5035 17.119C21.627 15.7275 21.75 13.8105 21.75 11.682C21.75 9.55353 21.627 7.63653 21.5035 6.24453C21.383 4.89053 20.3115 3.85503 18.9545 3.77303C18.219 3.72853 17.3055 3.68303 16.2145 3.64703L15.4845 2.14153C15.1285 1.40853 14.4375 0.896531 13.6255 0.835031C12.835 0.777287 12.0426 0.748935 11.25 0.750031C10.284 0.750031 9.4805 0.789531 8.875 0.835031C8.0625 0.896531 7.3715 1.40853 7.016 2.14153L6.2855 3.64653L6.285 3.64703Z" stroke="#6C4E39" stroke-width="1.5" stroke-linejoin="round"/>
<path d="M6.75 11.25C6.75 12.4435 7.22411 13.5881 8.06802 14.432C8.91193 15.2759 10.0565 15.75 11.25 15.75C12.4435 15.75 13.5881 15.2759 14.432 14.432C15.2759 13.5881 15.75 12.4435 15.75 11.25C15.75 10.0565 15.2759 8.91193 14.432 8.06802C13.5881 7.22411 12.4435 6.75 11.25 6.75C10.0565 6.75 8.91193 7.22411 8.06802 8.06802C7.22411 8.91193 6.75 10.0565 6.75 11.25Z" stroke="#6C4E39" stroke-width="1.5" stroke-linejoin="round"/>
</svg>
