<svg width="25" height="25" viewBox="0 0 25 25" fill="none" xmlns="http://www.w3.org/2000/svg">
<path d="M16.7511 12.479L10.336 6.06314C10.2141 5.94119 10.1537 5.79484 10.1548 5.62411C10.1559 5.45337 10.218 5.30675 10.341 5.18424C10.4641 5.06173 10.6107 5.00048 10.7809 5.00048C10.9511 5.00048 11.0977 5.06173 11.2208 5.18424L17.5743 11.5336C17.7084 11.6683 17.8066 11.818 17.8686 11.9826C17.9302 12.1484 17.9609 12.3138 17.9609 12.479C17.9609 12.6442 17.9302 12.8094 17.8686 12.9746C17.8066 13.1398 17.7084 13.2895 17.5743 13.4236L11.2216 19.7796C11.0991 19.9021 10.9516 19.9626 10.7792 19.9609C10.6074 19.9592 10.4599 19.8972 10.3369 19.7746C10.2149 19.6521 10.1539 19.5055 10.1539 19.3348C10.1539 19.164 10.2149 19.0174 10.3369 18.8949L16.7511 12.479Z" fill="#6C4E39"/>
</svg>
