<svg width="32" height="32" viewBox="0 0 32 32" fill="none" xmlns="http://www.w3.org/2000/svg">
<rect y="32" width="32" height="32" rx="16" transform="rotate(-90 0 32)" fill="white"/>
<path d="M19.7706 16.4986L13.3556 10.0827C13.2336 9.96072 13.1732 9.81437 13.1743 9.64364C13.1754 9.4729 13.2375 9.32628 13.3606 9.20377C13.4836 9.08126 13.6302 9.02001 13.8004 9.02001C13.9706 9.02001 14.1172 9.08126 14.2403 9.20377L20.5938 15.5531C20.728 15.6878 20.8261 15.8375 20.8882 16.0022C20.9497 16.1679 20.9805 16.3334 20.9805 16.4986C20.9805 16.6638 20.9497 16.8289 20.8882 16.9941C20.8261 17.1593 20.728 17.309 20.5938 17.4431L14.2411 23.7992C14.1186 23.9217 13.9712 23.9821 13.7988 23.9804C13.6269 23.9788 13.4795 23.9167 13.3564 23.7942C13.2345 23.6717 13.1735 23.525 13.1735 23.3543C13.1735 23.1836 13.2345 23.037 13.3564 22.9144L19.7706 16.4986Z" fill="#96918E"/>
</svg>
