<svg width="20" height="20" viewBox="0 0 20 20" fill="none" xmlns="http://www.w3.org/2000/svg">
<path d="M9.99995 8.29014C7.29187 8.29014 5.00365 10.6549 4.26485 13.6922C3.93991 15.0278 4.42988 16.4456 5.63257 17.1117C6.58599 17.6397 8.00416 18.1237 9.99995 18.1237C11.9957 18.1237 13.4143 17.6397 14.3678 17.1117C15.5704 16.4456 16.06 15.0278 15.7351 13.6922C14.9963 10.6545 12.708 8.29014 9.99995 8.29014ZM1.02148 7.62488C1.02148 8.80576 1.78679 10.0003 2.73167 10.0003C3.67654 10.0003 4.44185 8.80576 4.44185 7.62488C4.44185 6.444 3.67654 5.72487 2.73167 5.72487C1.78679 5.72487 1.02148 6.44443 1.02148 7.62488ZM18.9784 7.62488C18.9784 8.80576 18.2131 10.0003 17.2682 10.0003C16.3234 10.0003 15.558 8.80576 15.558 7.62488C15.558 6.444 16.3234 5.72487 17.2682 5.72487C18.2131 5.72487 18.9784 6.44443 18.9784 7.62488ZM5.51072 3.77697C5.51072 4.95785 6.27602 6.15241 7.2209 6.15241C8.16578 6.15241 8.93108 4.95785 8.93108 3.77697C8.93108 2.59609 8.16578 1.87695 7.2209 1.87695C6.27602 1.87695 5.51072 2.59651 5.51072 3.77697ZM14.4892 3.77697C14.4892 4.95785 13.7239 6.15241 12.779 6.15241C11.8341 6.15241 11.0688 4.95785 11.0688 3.77697C11.0688 2.59609 11.8341 1.87695 12.779 1.87695C13.7239 1.87695 14.4892 2.59651 14.4892 3.77697Z" fill="#F37BBB"/>
</svg>
