<svg width="24" height="24" viewBox="0 0 24 24" fill="none" xmlns="http://www.w3.org/2000/svg">
<rect width="24" height="24" rx="12" fill="#FDF1F7"/>
<path d="M11.9996 13.9191C13.0816 13.9191 14.1193 13.4893 14.8844 12.7242C15.6495 11.9591 16.0793 10.9215 16.0793 9.83945C16.0793 8.75745 15.6495 7.71977 14.8844 6.95468C14.1193 6.18959 13.0816 5.75977 11.9996 5.75977C10.9176 5.75977 9.87992 6.18959 9.11483 6.95468C8.34974 7.71977 7.91992 8.75745 7.91992 9.83945C7.91992 10.9215 8.34974 11.9591 9.11483 12.7242C9.87992 13.4893 10.9176 13.9191 11.9996 13.9191ZM11.9996 13.9191V18.2388M10.0798 16.319H13.9195" stroke="#C75A94" stroke-linecap="round" stroke-linejoin="round"/>
</svg>
