<svg width="24" height="24" viewBox="0 0 24 24" fill="none" xmlns="http://www.w3.org/2000/svg">
<rect width="24" height="24" rx="12" fill="#E7F3FE"/>
<path d="M17.6031 5.98242C17.8325 5.98242 18.019 6.169 18.019 6.40073V9.50823C18.019 9.73875 17.8325 9.92594 17.6031 9.92594C17.5484 9.92586 17.4941 9.91499 17.4436 9.89396C17.393 9.87292 17.3471 9.84213 17.3084 9.80335C17.2697 9.76456 17.2391 9.71853 17.2182 9.6679C17.1973 9.61726 17.1866 9.56301 17.1866 9.50823V7.41008L14.1484 10.5669C14.7905 11.3798 15.139 12.3858 15.1372 13.4217C15.1372 15.9616 13.0878 18.02 10.5593 18.02C8.03145 18.02 5.98145 15.9616 5.98145 13.4217C5.98145 10.8817 8.03085 8.82329 10.5593 8.82329C11.7144 8.82329 12.7688 9.25304 13.5748 9.96145L16.5974 6.81843H14.3434C14.2885 6.81843 14.2343 6.80762 14.1836 6.78663C14.133 6.76563 14.087 6.73485 14.0482 6.69605C14.0095 6.65726 13.9788 6.61121 13.9578 6.56053C13.9369 6.50986 13.9262 6.45555 13.9263 6.40073C13.9263 6.16961 14.1128 5.98242 14.3428 5.98242H17.6031ZM10.5593 9.65991C8.49068 9.65991 6.81385 11.344 6.81385 13.4217C6.81385 15.4993 8.49068 17.184 10.5593 17.184C12.628 17.184 14.3048 15.4993 14.3048 13.4223C14.3048 11.344 12.628 9.65991 10.5593 9.65991Z" fill="#0084FF"/>
</svg>
