<svg width="24" height="28" viewBox="0 0 24 28" fill="none" xmlns="http://www.w3.org/2000/svg">
<path d="M9.6001 22.3988C9.6001 22.2397 9.66331 22.0871 9.77583 21.9746C9.88835 21.862 10.041 21.7988 10.2001 21.7988C10.3592 21.7988 10.5118 21.862 10.6244 21.9746C10.7369 22.0871 10.8001 22.2397 10.8001 22.3988C10.8001 22.7171 10.9265 23.0223 11.1516 23.2474C11.3766 23.4724 11.6818 23.5988 12.0001 23.5988C12.3184 23.5988 12.6236 23.4724 12.8486 23.2474C13.0737 23.0223 13.2001 22.7171 13.2001 22.3988C13.2001 22.2397 13.2633 22.0871 13.3758 21.9746C13.4884 21.862 13.641 21.7988 13.8001 21.7988C13.9592 21.7988 14.1118 21.862 14.2244 21.9746C14.3369 22.0871 14.4001 22.2397 14.4001 22.3988C14.4001 23.0353 14.1472 23.6458 13.6972 24.0959C13.2471 24.546 12.6366 24.7988 12.0001 24.7988C11.3636 24.7988 10.7531 24.546 10.303 24.0959C9.85295 23.6458 9.6001 23.0353 9.6001 22.3988Z" fill="#6A6765"/>
<path d="M9.6001 22.3988C9.6001 22.2397 9.66331 22.0871 9.77583 21.9746C9.88835 21.862 10.041 21.7988 10.2001 21.7988C10.3592 21.7988 10.5118 21.862 10.6244 21.9746C10.7369 22.0871 10.8001 22.2397 10.8001 22.3988C10.8001 22.7171 10.9265 23.0223 11.1516 23.2474C11.3766 23.4724 11.6818 23.5988 12.0001 23.5988C12.3184 23.5988 12.6236 23.4724 12.8486 23.2474C13.0737 23.0223 13.2001 22.7171 13.2001 22.3988C13.2001 22.2397 13.2633 22.0871 13.3758 21.9746C13.4884 21.862 13.641 21.7988 13.8001 21.7988C13.9592 21.7988 14.1118 21.862 14.2244 21.9746C14.3369 22.0871 14.4001 22.2397 14.4001 22.3988C14.4001 23.0353 14.1472 23.6458 13.6972 24.0959C13.2471 24.546 12.6366 24.7988 12.0001 24.7988C11.3636 24.7988 10.7531 24.546 10.303 24.0959C9.85295 23.6458 9.6001 23.0353 9.6001 22.3988Z" fill="black" fill-opacity="0.2"/>
<path fill-rule="evenodd" clip-rule="evenodd" d="M21 19.3992C21 18.771 20.8334 18.154 20.5172 17.6112C20.201 17.0683 19.7465 16.6191 19.2 16.3092V12.7992C19.2 11.0488 18.5046 9.37005 17.2669 8.13231C16.0292 6.89457 14.3504 6.19922 12.6 6.19922H11.4C9.64957 6.19922 7.97084 6.89457 6.7331 8.13231C5.49536 9.37005 4.8 11.0488 4.8 12.7992V16.3092C4.25352 16.6191 3.79899 17.0683 3.48278 17.6112C3.16656 18.154 2.99997 18.771 3 19.3992C3 20.0357 3.25286 20.6462 3.70294 21.0963C4.15303 21.5464 4.76348 21.7992 5.4 21.7992H18.6C19.2365 21.7992 19.847 21.5464 20.2971 21.0963C20.7471 20.6462 21 20.0357 21 19.3992ZM18 17.0688L18.354 17.2284L18.42 17.2572C18.8315 17.444 19.1805 17.7453 19.4252 18.1252C19.6699 18.505 19.8 18.9473 19.8 19.3992C19.8 19.7175 19.6736 20.0227 19.4485 20.2477C19.2235 20.4728 18.9183 20.5992 18.6 20.5992H5.4C5.08174 20.5992 4.77652 20.4728 4.55147 20.2477C4.32643 20.0227 4.2 19.7175 4.2 19.3992C4.2 18.4764 4.74 17.6388 5.58 17.2584L5.646 17.2284L6 17.0688V12.7992C6 11.367 6.56893 9.99354 7.58162 8.98084C8.59432 7.96815 9.96783 7.39922 11.4 7.39922H12.6C14.0322 7.39922 15.4057 7.96815 16.4184 8.98084C17.4311 9.99354 18 11.367 18 12.7992V17.0688Z" fill="#6A6765"/>
<path fill-rule="evenodd" clip-rule="evenodd" d="M21 19.3992C21 18.771 20.8334 18.154 20.5172 17.6112C20.201 17.0683 19.7465 16.6191 19.2 16.3092V12.7992C19.2 11.0488 18.5046 9.37005 17.2669 8.13231C16.0292 6.89457 14.3504 6.19922 12.6 6.19922H11.4C9.64957 6.19922 7.97084 6.89457 6.7331 8.13231C5.49536 9.37005 4.8 11.0488 4.8 12.7992V16.3092C4.25352 16.6191 3.79899 17.0683 3.48278 17.6112C3.16656 18.154 2.99997 18.771 3 19.3992C3 20.0357 3.25286 20.6462 3.70294 21.0963C4.15303 21.5464 4.76348 21.7992 5.4 21.7992H18.6C19.2365 21.7992 19.847 21.5464 20.2971 21.0963C20.7471 20.6462 21 20.0357 21 19.3992ZM18 17.0688L18.354 17.2284L18.42 17.2572C18.8315 17.444 19.1805 17.7453 19.4252 18.1252C19.6699 18.505 19.8 18.9473 19.8 19.3992C19.8 19.7175 19.6736 20.0227 19.4485 20.2477C19.2235 20.4728 18.9183 20.5992 18.6 20.5992H5.4C5.08174 20.5992 4.77652 20.4728 4.55147 20.2477C4.32643 20.0227 4.2 19.7175 4.2 19.3992C4.2 18.4764 4.74 17.6388 5.58 17.2584L5.646 17.2284L6 17.0688V12.7992C6 11.367 6.56893 9.99354 7.58162 8.98084C8.59432 7.96815 9.96783 7.39922 11.4 7.39922H12.6C14.0322 7.39922 15.4057 7.96815 16.4184 8.98084C17.4311 9.99354 18 11.367 18 12.7992V17.0688Z" fill="black" fill-opacity="0.2"/>
<path d="M11.3999 3.79922C11.3999 3.64009 11.4631 3.48748 11.5756 3.37495C11.6882 3.26243 11.8408 3.19922 11.9999 3.19922C12.159 3.19922 12.3116 3.26243 12.4242 3.37495C12.5367 3.48748 12.5999 3.64009 12.5999 3.79922V6.79922C12.5999 6.95835 12.5367 7.11096 12.4242 7.22348C12.3116 7.336 12.159 7.39922 11.9999 7.39922C11.8408 7.39922 11.6882 7.336 11.5756 7.22348C11.4631 7.11096 11.3999 6.95835 11.3999 6.79922V3.79922Z" fill="#6A6765"/>
<path d="M11.3999 3.79922C11.3999 3.64009 11.4631 3.48748 11.5756 3.37495C11.6882 3.26243 11.8408 3.19922 11.9999 3.19922C12.159 3.19922 12.3116 3.26243 12.4242 3.37495C12.5367 3.48748 12.5999 3.64009 12.5999 3.79922V6.79922C12.5999 6.95835 12.5367 7.11096 12.4242 7.22348C12.3116 7.336 12.159 7.39922 11.9999 7.39922C11.8408 7.39922 11.6882 7.336 11.5756 7.22348C11.4631 7.11096 11.3999 6.95835 11.3999 6.79922V3.79922Z" fill="black" fill-opacity="0.2"/>
</svg>
