<svg width="18" height="18" viewBox="0 0 18 18" fill="none" xmlns="http://www.w3.org/2000/svg">
<rect width="18" height="18" rx="9" fill="#E8E1DE"/>
<path d="M9.0001 8.00921C7.43085 8.00921 6.1049 9.37951 5.67679 11.1395C5.4885 11.9135 5.77242 12.735 6.46934 13.121C7.02182 13.427 7.8436 13.7074 9.0001 13.7074C10.1566 13.7074 10.9786 13.427 11.5311 13.121C12.228 12.735 12.5117 11.9135 12.3234 11.1395C11.8953 9.37926 10.5693 8.00921 9.0001 8.00921ZM3.79736 7.62371C3.79736 8.30799 4.24083 9.0002 4.78836 9.0002C5.33589 9.0002 5.77936 8.30799 5.77936 7.62371C5.77936 6.93943 5.33589 6.52271 4.78836 6.52271C4.24083 6.52271 3.79736 6.93967 3.79736 7.62371ZM14.2028 7.62371C14.2028 8.30799 13.7594 9.0002 13.2118 9.0002C12.6643 9.0002 12.2208 8.30799 12.2208 7.62371C12.2208 6.93943 12.6643 6.52271 13.2118 6.52271C13.7594 6.52271 14.2028 6.93967 14.2028 7.62371ZM6.39873 5.39397C6.39873 6.07825 6.8422 6.77046 7.38973 6.77046C7.93725 6.77046 8.38072 6.07825 8.38072 5.39397C8.38072 4.70968 7.93725 4.29297 7.38973 4.29297C6.8422 4.29297 6.39873 4.70993 6.39873 5.39397ZM11.6015 5.39397C11.6015 6.07825 11.158 6.77046 10.6105 6.77046C10.0629 6.77046 9.61947 6.07825 9.61947 5.39397C9.61947 4.70968 10.0629 4.29297 10.6105 4.29297C11.158 4.29297 11.6015 4.70993 11.6015 5.39397Z" fill="#6C4E39"/>
</svg>
