<svg width="206" height="141" viewBox="0 0 206 141" fill="none" xmlns="http://www.w3.org/2000/svg">
<g clip-path="url(#clip0_2092_14410)">
<rect width="206" height="141" rx="20" fill="#F37BBB"/>
<g clip-path="url(#clip1_2092_14410)">
<path d="M16.23 53.9746C-26.98 53.9746 -62 88.9946 -62 132.205C-62 175.415 -26.98 210.435 16.23 210.435C59.44 210.435 94.46 175.415 94.46 132.205C94.46 88.9946 59.43 53.9746 16.23 53.9746ZM16.23 191.705C-16.63 191.705 -43.28 165.065 -43.28 132.195C-43.28 99.3246 -16.64 72.6846 16.23 72.6846C49.1 72.6846 75.74 99.3246 75.74 132.195C75.74 165.065 49.1 191.705 16.23 191.705Z" fill="#FF9FD6"/>
<path d="M30.9501 89.3554C29.9401 92.2954 31.2501 95.5154 34.0201 96.9154C40.1001 99.9854 45.2701 104.575 49.0501 110.185C50.7801 112.765 54.1401 113.665 56.9301 112.305C60.3401 110.635 61.4501 106.345 59.3301 103.195C54.3901 95.8754 47.6401 89.8854 39.7101 85.8654C36.3201 84.1454 32.1901 85.7654 30.9601 89.3654L30.9501 89.3554Z" fill="#FF9FD6"/>
<path d="M61.4302 125.125C64.3076 125.125 66.6402 122.792 66.6402 119.915C66.6402 117.038 64.3076 114.705 61.4302 114.705C58.5528 114.705 56.2202 117.038 56.2202 119.915C56.2202 122.792 58.5528 125.125 61.4302 125.125Z" fill="#FF9FD6"/>
</g>
</g>
<defs>
<clipPath id="clip0_2092_14410">
<rect width="206" height="141" rx="20" fill="white"/>
</clipPath>
<clipPath id="clip1_2092_14410">
<rect width="156.45" height="156.45" fill="white" transform="translate(-62 53.9746)"/>
</clipPath>
</defs>
</svg>
