<svg width="16" height="16" viewBox="0 0 16 16" fill="none" xmlns="http://www.w3.org/2000/svg">
<path d="M13.2871 7.45703L2.15351 7.45703C2.00587 7.45703 1.86427 7.51438 1.75988 7.61647C1.65548 7.71855 1.59683 7.85701 1.59683 8.00138C1.59683 8.14576 1.65548 8.28421 1.75988 8.3863C1.86427 8.48839 2.00587 8.54574 2.15351 8.54574L13.2871 8.54574C13.4347 8.54574 13.5763 8.48839 13.6807 8.3863C13.7851 8.28421 13.8437 8.14576 13.8437 8.00138C13.8437 7.85701 13.7851 7.71855 13.6807 7.61647C13.5763 7.51438 13.4347 7.45703 13.2871 7.45703Z" fill="#F37BBB"/>
<path d="M13.0578 7.99996L8.43912 12.513C8.38726 12.5637 8.34612 12.6239 8.31806 12.6902C8.28999 12.7564 8.27554 12.8274 8.27554 12.8991C8.27554 12.9709 8.28999 13.0419 8.31806 13.1081C8.34612 13.1744 8.38726 13.2346 8.43912 13.2853C8.49097 13.336 8.55254 13.3762 8.62029 13.4037C8.68805 13.4311 8.76067 13.4452 8.83401 13.4452C8.90735 13.4452 8.97997 13.4311 9.04772 13.4037C9.11548 13.3762 9.17704 13.336 9.2289 13.2853L14.239 8.38611C14.2911 8.33552 14.3324 8.27536 14.3606 8.20908C14.3888 8.14281 14.4033 8.07174 14.4033 7.99996C14.4033 7.92818 14.3888 7.85711 14.3606 7.79084C14.3324 7.72457 14.2911 7.6644 14.239 7.61381L9.2289 2.71464C9.17704 2.66393 9.11548 2.6237 9.04772 2.59626C8.97997 2.56881 8.90735 2.55469 8.83401 2.55469C8.76067 2.55469 8.68805 2.56881 8.62029 2.59626C8.55254 2.6237 8.49097 2.66393 8.43912 2.71464C8.38726 2.76535 8.34612 2.82555 8.31806 2.8918C8.28999 2.95806 8.27555 3.02907 8.27555 3.10079C8.27555 3.1725 8.28999 3.24351 8.31806 3.30977C8.34612 3.37603 8.38726 3.43623 8.43912 3.48694L13.0578 7.99996Z" fill="#F37BBB"/>
</svg>
