<svg width="370" height="122" viewBox="0 0 370 122" fill="none" xmlns="http://www.w3.org/2000/svg">
<g clip-path="url(#clip0_2092_14424)">
<rect width="370" height="122" rx="20" fill="url(#paint0_linear_2092_14424)"/>
<g filter="url(#filter0_d_2092_14424)">
<path d="M331.093 27.5H254.907C247.779 27.5 242 33.2788 242 40.4073V116.593C242 123.721 247.779 129.5 254.907 129.5H331.093C338.221 129.5 344 123.721 344 116.593V40.4073C344 33.2788 338.221 27.5 331.093 27.5Z" fill="white"/>
<path d="M283.956 67.6635C288.518 67.0303 291.598 62.0501 290.833 56.5398C290.068 51.0296 285.75 47.0759 281.187 47.709C276.624 48.3422 273.545 53.3224 274.309 58.8327C275.074 64.343 279.393 68.2966 283.956 67.6635Z" fill="#FFC8E5"/>
<path d="M311.684 58.8274C312.449 53.3171 309.37 48.3369 304.807 47.7037C300.244 47.0705 295.925 51.0242 295.16 56.5345C294.396 62.0448 297.475 67.025 302.038 67.6581C306.601 68.2913 310.919 64.3376 311.684 58.8274Z" fill="#FFC8E5"/>
<path d="M269.225 83.5745C273.519 81.9063 275.367 76.3504 273.353 71.1648C271.338 65.9793 266.224 63.1279 261.93 64.796C257.636 66.4641 255.788 72.0201 257.803 77.2056C259.817 82.3912 264.931 85.2426 269.225 83.5745Z" fill="#FFC8E5"/>
<path d="M328.188 77.2023C330.202 72.0168 328.354 66.4608 324.06 64.7927C319.766 63.1246 314.652 65.976 312.638 71.1616C310.623 76.3471 312.471 81.9031 316.765 83.5712C321.059 85.2393 326.173 82.3879 328.188 77.2023Z" fill="#FFC8E5"/>
<path d="M304.98 80.4956C301.984 76.5923 297.992 70.6055 293 70.6055C288.008 70.6055 284.016 76.5923 281.019 80.4956C278.023 84.3989 269.492 90.1152 269.492 98.1045C269.492 106.094 274.302 109.361 280.837 109.361C287.372 109.361 289.638 107.636 293 107.636C296.362 107.636 298.628 109.361 305.163 109.361C311.698 109.361 316.508 106.094 316.508 98.1045C316.508 90.1152 307.977 84.3989 304.98 80.4956Z" fill="#FFC8E5"/>
</g>
<g clip-path="url(#clip1_2092_14424)">
<path d="M344.215 12H336.8C334.69 12 332.979 13.7109 332.979 15.8215V50.1785C332.979 52.2891 334.69 54 336.8 54H344.215C346.326 54 348.037 52.2891 348.037 50.1785V15.8215C348.037 13.7109 346.326 12 344.215 12Z" fill="#F37BBB"/>
<path d="M361.508 36.7068V29.2922C361.508 27.1816 359.797 25.4707 357.686 25.4707L323.329 25.4707C321.219 25.4707 319.508 27.1816 319.508 29.2922V36.7068C319.508 38.8173 321.219 40.5282 323.329 40.5282H357.686C359.797 40.5282 361.508 38.8173 361.508 36.7068Z" fill="#F37BBB"/>
</g>
</g>
<defs>
<filter id="filter0_d_2092_14424" x="212" y="-2.5" width="162" height="162" filterUnits="userSpaceOnUse" color-interpolation-filters="sRGB">
<feFlood flood-opacity="0" result="BackgroundImageFix"/>
<feColorMatrix in="SourceAlpha" type="matrix" values="0 0 0 0 0 0 0 0 0 0 0 0 0 0 0 0 0 0 127 0" result="hardAlpha"/>
<feOffset/>
<feGaussianBlur stdDeviation="15"/>
<feComposite in2="hardAlpha" operator="out"/>
<feColorMatrix type="matrix" values="0 0 0 0 0 0 0 0 0 0 0 0 0 0 0 0 0 0 0.1 0"/>
<feBlend mode="normal" in2="BackgroundImageFix" result="effect1_dropShadow_2092_14424"/>
<feBlend mode="normal" in="SourceGraphic" in2="effect1_dropShadow_2092_14424" result="shape"/>
</filter>
<linearGradient id="paint0_linear_2092_14424" x1="361.901" y1="12.6055" x2="26.8369" y2="171.529" gradientUnits="userSpaceOnUse">
<stop stop-color="white"/>
<stop offset="1" stop-color="#FFF4C2"/>
</linearGradient>
<clipPath id="clip0_2092_14424">
<rect width="370" height="122" rx="20" fill="white"/>
</clipPath>
<clipPath id="clip1_2092_14424">
<rect width="42" height="42" fill="white" transform="translate(319.508 12)"/>
</clipPath>
</defs>
</svg>
