<svg width="83" height="21" viewBox="0 0 83 21" fill="none" xmlns="http://www.w3.org/2000/svg">
<g clip-path="url(#clip0_2067_11515)">
<path d="M18.2354 1.61557C17.5671 1.34497 16.8051 1.49426 16.2935 1.9958L0.45817 17.555C0.162615 17.8455 0 18.2315 0 18.6421C0 19.0526 0.162615 19.4387 0.45817 19.7291C0.763221 20.0289 1.16323 20.1782 1.56443 20.1782C1.96562 20.1782 2.36563 20.0289 2.67068 19.7291L16.2092 6.42563V18.5581C16.2092 19.3641 16.8763 20.0196 17.6965 20.0196H17.8496C18.6698 20.0196 19.3369 19.3641 19.3369 18.5581V3.23331C19.3369 2.52183 18.9049 1.88616 18.2354 1.6144V1.61557Z" fill="#6C4E39"/>
<path d="M35.7625 6.37547C35.4135 3.46541 32.852 1.27148 29.8051 1.27148H21.4785C20.6156 1.27148 19.9141 1.9608 19.9141 2.80875C19.9141 3.65669 20.6156 4.34601 21.4785 4.34601H29.9333C31.4443 4.34601 32.674 5.55436 32.674 7.03913C32.674 8.52391 31.252 9.76025 29.6971 9.76958L27.6982 9.75675H27.6875C26.8412 9.75675 26.1397 10.4309 26.1243 11.2649V11.308C26.1077 12.0836 26.6869 12.7508 27.4703 12.8593C29.2555 13.1065 32.3001 14.1913 32.6419 18.6794C32.7025 19.4842 33.3885 20.114 34.2075 20.114C34.6372 20.114 35.0515 19.9379 35.3458 19.63C35.6414 19.3197 35.7957 18.8987 35.7684 18.473C35.6509 16.6453 35.2307 15.1523 34.4817 13.9067C34.0556 13.1987 33.5333 12.5852 32.8722 12.0207C34.8497 10.8765 36.0331 8.64171 35.7613 6.37431L35.7625 6.37547Z" fill="#6C4E39"/>
<path d="M49.9294 1.17695H42.0776C39.3535 1.17695 37.1362 3.35454 37.1362 6.0325V18.4822C37.1362 19.3302 37.8377 20.0195 38.7007 20.0195C39.5636 20.0195 40.2651 19.3302 40.2651 18.4822V10.9615H46.8005C47.6635 10.9615 48.365 10.2722 48.365 9.42428C48.365 8.57633 47.6635 7.88701 46.8005 7.88701H40.2651V6.00568C40.2651 5.0376 41.0663 4.25031 42.0515 4.25031H49.9306C50.7935 4.25031 51.495 3.56099 51.495 2.71304C51.495 1.8651 50.7935 1.17578 49.9306 1.17578L49.9294 1.17695Z" fill="#6C4E39"/>
<path d="M82.6249 17.4838L76.3197 10.2302C76.2877 10.1929 76.2699 10.1463 76.2699 10.0973V6.16314C76.2699 6.03601 76.3233 5.91121 76.4159 5.82256L78.6889 3.63331C79.0426 3.29273 79.1495 2.78186 78.9631 2.33165C78.7756 1.88143 78.3352 1.58984 77.8402 1.58984H71.5208C71.0258 1.58984 70.5855 1.88027 70.3979 2.33048C70.2104 2.7807 70.3184 3.29156 70.6721 3.63214L72.944 5.8214C73.0366 5.91004 73.09 6.03484 73.09 6.16197V10.0961C73.09 10.1451 73.0722 10.1917 73.0401 10.2291L66.735 17.4827C66.4631 17.7952 66.3326 18.1918 66.3646 18.6012C66.3967 19.0106 66.5901 19.3827 66.9083 19.6498C67.1943 19.89 67.5504 20.0183 67.9219 20.0183C67.9635 20.0183 68.005 20.0172 68.0477 20.0137C68.4644 19.981 68.843 19.7921 69.1148 19.4795L74.6129 13.1485C74.6354 13.1228 74.6627 13.117 74.6817 13.117C74.7007 13.117 74.728 13.1228 74.7506 13.1485L80.2486 19.4795C80.8089 20.1245 81.7976 20.2003 82.454 19.6498C82.7721 19.3827 82.9644 19.0106 82.9976 18.6012C83.0309 18.1918 82.8991 17.7941 82.6273 17.4827L82.6249 17.4838Z" fill="#6C4E39"/>
<path d="M63.8533 16.9451H57.8816C56.8502 16.9451 56.011 16.1205 56.011 15.1057V2.754C56.011 1.90955 55.3308 1.20274 54.4952 1.17824C54.0691 1.16775 53.6643 1.31937 53.3581 1.61096C53.0519 1.90255 52.8833 2.29445 52.8833 2.71434V15.1034C52.8833 17.814 55.1267 20.0185 57.8852 20.0185H63.8545C64.7174 20.0185 65.4189 19.3291 65.4189 18.4812C65.4189 17.6332 64.7174 16.9439 63.8545 16.9439L63.8533 16.9451Z" fill="#6C4E39"/>
</g>
<defs>
<clipPath id="clip0_2067_11515">
<rect width="83" height="19" fill="white" transform="translate(0 1.17773)"/>
</clipPath>
</defs>
</svg>
