<svg width="24" height="24" viewBox="0 0 24 24" fill="none" xmlns="http://www.w3.org/2000/svg">
<path d="M16.4638 6.38342L4.65483 18.1923C4.49823 18.3489 4.40888 18.56 4.40643 18.779C4.40397 18.998 4.48862 19.207 4.64175 19.3602C4.79488 19.5133 5.00395 19.5979 5.22296 19.5955C5.44196 19.593 5.65298 19.5037 5.80957 19.3471L17.6185 7.53816C17.7751 7.38157 17.8644 7.17055 17.8669 6.95154C17.8694 6.73254 17.7847 6.52347 17.6316 6.37034C17.4784 6.21721 17.2694 6.13256 17.0504 6.13502C16.8314 6.13747 16.6203 6.22682 16.4638 6.38342Z" fill="#96918E"/>
<path d="M16.7972 7.20272L16.6851 16.8884C16.6839 16.9972 16.7041 17.1046 16.7446 17.2047C16.7851 17.3047 16.8451 17.3954 16.9212 17.4714C16.9973 17.5475 17.0879 17.6075 17.1879 17.648C17.288 17.6885 17.3955 17.7087 17.5043 17.7075C17.613 17.7063 17.721 17.6837 17.822 17.6409C17.923 17.5981 18.015 17.5361 18.0928 17.4583C18.1705 17.3805 18.2326 17.2885 18.2753 17.1875C18.3181 17.0866 18.3407 16.9786 18.342 16.8698L18.4596 6.35944C18.4612 6.25055 18.4412 6.1429 18.4008 6.0427C18.3604 5.9425 18.3005 5.85172 18.2243 5.77559C18.1482 5.69945 18.0574 5.63947 17.9572 5.59909C17.857 5.55871 17.7494 5.53872 17.6405 5.54029L7.13008 5.65795C7.02129 5.65917 6.91333 5.6818 6.81235 5.72456C6.71138 5.76732 6.61937 5.82936 6.54158 5.90715C6.4638 5.98493 6.40175 6.07694 6.359 6.17792C6.31624 6.27889 6.29361 6.38686 6.29239 6.49565C6.29117 6.60444 6.31139 6.71192 6.3519 6.81196C6.3924 6.91201 6.4524 7.00265 6.52847 7.07871C6.60453 7.15478 6.69518 7.21478 6.79522 7.25528C6.89526 7.29579 7.00275 7.31601 7.11154 7.31479L16.7972 7.20272Z" fill="#96918E"/>
</svg>
