<svg width="28" height="28" viewBox="0 0 28 28" fill="none" xmlns="http://www.w3.org/2000/svg">
<path d="M6.125 13.125H23.625C23.8571 13.125 24.0796 13.2172 24.2437 13.3813C24.4078 13.5454 24.5 13.7679 24.5 14C24.5 14.2321 24.4078 14.4546 24.2437 14.6187C24.0796 14.7828 23.8571 14.875 23.625 14.875H6.125C5.89294 14.875 5.67038 14.7828 5.50628 14.6187C5.34219 14.4546 5.25 14.2321 5.25 14C5.25 13.7679 5.34219 13.5454 5.50628 13.3813C5.67038 13.2172 5.89294 13.125 6.125 13.125Z" fill="#6B6B6B"/>
<path d="M6.48601 13.9999L13.7458 21.2542C13.8273 21.3357 13.8919 21.4325 13.9361 21.539C13.9802 21.6455 14.0029 21.7596 14.0029 21.8749C14.0029 21.9902 13.9802 22.1043 13.9361 22.2108C13.8919 22.3173 13.8273 22.4141 13.7458 22.4956C13.6643 22.5771 13.5675 22.6418 13.461 22.6859C13.3545 22.73 13.2403 22.7527 13.1251 22.7527C13.0098 22.7527 12.8956 22.73 12.7891 22.6859C12.6826 22.6418 12.5859 22.5771 12.5044 22.4956L4.62937 14.6206C4.54752 14.5393 4.48256 14.4425 4.43824 14.336C4.39391 14.2295 4.37109 14.1153 4.37109 13.9999C4.37109 13.8845 4.39391 13.7703 4.43824 13.6637C4.48256 13.5572 4.54752 13.4605 4.62937 13.3792L12.5044 5.50417C12.5859 5.42266 12.6826 5.358 12.7891 5.31389C12.8956 5.26978 13.0098 5.24707 13.1251 5.24707C13.2403 5.24707 13.3545 5.26978 13.461 5.31389C13.5675 5.358 13.6643 5.42266 13.7458 5.50417C13.8273 5.58569 13.8919 5.68245 13.9361 5.78895C13.9802 5.89546 14.0029 6.0096 14.0029 6.12488C14.0029 6.24015 13.9802 6.3543 13.9361 6.4608C13.8919 6.5673 13.8273 6.66407 13.7458 6.74558L6.48601 13.9999Z" fill="#6B6B6B"/>
</svg>
