<svg width="66" height="36" viewBox="0 0 66 36" fill="none" xmlns="http://www.w3.org/2000/svg">
<rect width="66" height="36" rx="18" fill="#FDF1F7"/>
<path d="M33.0001 21.4284C34.9324 21.4284 36.7855 20.6608 38.1518 19.2944C39.5182 17.9281 40.2858 16.0749 40.2858 14.1426C40.2858 12.2104 39.5182 10.3572 38.1518 8.99087C36.7855 7.62453 34.9324 6.85693 33.0001 6.85693C31.0678 6.85693 29.2146 7.62453 27.8483 8.99087C26.482 10.3572 25.7144 12.2104 25.7144 14.1426C25.7144 16.0749 26.482 17.9281 27.8483 19.2944C29.2146 20.6608 31.0678 21.4284 33.0001 21.4284ZM33.0001 21.4284V29.1426M29.5715 25.7141H36.4286" stroke="#C75A94" stroke-width="1.71429" stroke-linecap="round" stroke-linejoin="round"/>
</svg>
