<svg width="19" height="19" viewBox="0 0 19 19" fill="none" xmlns="http://www.w3.org/2000/svg">
<path d="M18.9629 9.48145C18.9629 9.64195 18.8991 9.79589 18.7856 9.90939C18.6721 10.0229 18.5182 10.0866 18.3577 10.0866H10.0866V18.3577C10.0866 18.5182 10.0229 18.6721 9.90939 18.7856C9.79589 18.8991 9.64195 18.9629 9.48145 18.9629C9.32094 18.9629 9.167 18.8991 9.0535 18.7856C8.94001 18.6721 8.87625 18.5182 8.87625 18.3577V10.0866H0.605199C0.44469 10.0866 0.290755 10.0229 0.177258 9.90939C0.0637617 9.79589 0 9.64195 0 9.48145C0 9.32094 0.0637617 9.167 0.177258 9.0535C0.290755 8.94001 0.44469 8.87625 0.605199 8.87625H8.87625V0.605199C8.87625 0.44469 8.94001 0.290755 9.0535 0.177258C9.167 0.0637617 9.32094 0 9.48145 0C9.64195 0 9.79589 0.0637617 9.90939 0.177258C10.0229 0.290755 10.0866 0.44469 10.0866 0.605199V8.87625H18.3577C18.5182 8.87625 18.6721 8.94001 18.7856 9.0535C18.8991 9.167 18.9629 9.32094 18.9629 9.48145Z" fill="#6C4E39"/>
</svg>
