<svg width="80" height="80" viewBox="0 0 80 80" fill="none" xmlns="http://www.w3.org/2000/svg">
<rect width="80" height="80" rx="40" fill="#D2EACD"/>
<g clip-path="url(#clip0_1897_30453)">
<path d="M31.9409 56.189C31.9409 56.189 33.0529 59.9218 39.5333 59.9218C46.0138 59.9218 46.6444 58.3775 47.7454 56.8873L31.9409 56.189Z" fill="#E24B17"/>
<path d="M39.5335 60.5413C37.9863 60.5413 36.5995 60.3337 35.4112 59.9242C34.4385 59.5891 33.5947 59.1184 32.9035 58.5255C31.691 57.4857 31.3605 56.4108 31.347 56.3657L31.0986 55.5312L48.9355 56.3194L48.244 57.2552C48.1715 57.3529 48.0988 57.4545 48.0286 57.5529C47.5216 58.2611 46.9472 59.0642 45.6774 59.6417C44.3277 60.2555 42.3755 60.5411 39.5335 60.5411V60.5413ZM33.02 56.857C33.2042 57.099 33.451 57.3706 33.7765 57.6407C34.3518 58.1179 35.059 58.4994 35.8785 58.7742C36.9228 59.1245 38.1524 59.3021 39.5337 59.3021C42.1563 59.3021 43.998 59.0443 45.1646 58.5137C45.8162 58.2174 46.2157 57.8599 46.5525 57.4545L33.02 56.8567V56.857Z" fill="#26190D"/>
<path d="M39.9904 63.8607C41.17 63.8607 42.1263 62.9044 42.1263 61.7248C42.1263 60.5451 41.17 59.5889 39.9904 59.5889C38.8108 59.5889 37.8545 60.5451 37.8545 61.7248C37.8545 62.9044 38.8108 63.8607 39.9904 63.8607Z" fill="#FFC217"/>
<path d="M39.9904 64.48C38.4708 64.48 37.2349 63.2438 37.2349 61.7243C37.2349 60.2047 38.4711 58.9688 39.9904 58.9688C41.5097 58.9688 42.7462 60.205 42.7462 61.7243C42.7462 63.2436 41.51 64.48 39.9904 64.48ZM39.9904 60.208C39.1543 60.208 38.4741 60.8882 38.4741 61.7243C38.4741 62.5603 39.1543 63.2408 39.9904 63.2408C40.8265 63.2408 41.5069 62.5606 41.5069 61.7243C41.5069 60.8879 40.8267 60.208 39.9904 60.208Z" fill="#26190D"/>
<path d="M39.9905 63.8604C40.3793 63.8604 40.6944 63.5453 40.6944 63.1565C40.6944 62.7678 40.3793 62.4526 39.9905 62.4526C39.6018 62.4526 39.2866 62.7678 39.2866 63.1565C39.2866 63.5453 39.6018 63.8604 39.9905 63.8604Z" fill="#26190D"/>
<path d="M42.1266 61.1738H37.8545V62.2754H42.1266V61.1738Z" fill="#26190D"/>
<path d="M40.5415 61.7246H39.4399V63.0792H40.5415V61.7246Z" fill="#26190D"/>
<path d="M46.5766 21.4469C46.5766 21.4469 47.6556 20.2696 50.5987 18.9946C53.5414 17.7193 58.5444 15.6484 59.5256 16.2424C60.5065 16.8364 60.7029 20.9509 60.3105 24.2399C59.918 27.5288 58.3486 30.3735 56.5828 31.5508C56.5828 31.5508 58.4466 35.2784 59.4276 42.2432C60.4085 49.208 58.3486 53.6224 52.1684 55.5843C45.9881 57.5461 42.7509 57.4481 39.6118 57.252C36.4727 57.0559 29.6059 57.154 24.701 54.1129C19.796 51.0718 19.698 45.7748 20.5809 41.9488C21.4638 38.1232 23.3276 32.2374 23.3276 32.2374C23.3276 32.2374 20.9733 30.2755 20.0904 26.94C19.2075 23.6048 19.4036 17.5227 20.0904 16.6398C20.7772 15.7569 23.3276 16.4437 26.8592 17.7187C30.3907 18.9941 33.5946 21.0539 33.5946 21.0539C33.5946 21.0539 36.7794 20.2201 39.8327 20.404C42.8859 20.588 46.5769 21.4464 46.5769 21.4464L46.5766 21.4469Z" fill="#FFF6E1"/>
<path d="M56.501 31.551C56.501 31.551 58.3648 35.2786 59.3457 42.2437C59.5396 43.6206 59.6148 44.8979 59.5625 46.0762C56.2476 45.691 52.2482 44.5286 47.9811 41.7775C39.2923 36.1756 38.1536 25.0704 38.0781 20.3952C38.6264 20.3717 39.191 20.3715 39.7508 20.4051C42.804 20.589 46.4951 21.4474 46.4951 21.4474C46.4951 21.4474 47.574 20.2701 50.5168 18.9951C53.4599 17.7198 58.4628 15.6489 59.4438 16.2429C60.4244 16.8369 60.6208 20.9514 60.2283 24.2406C59.8359 27.5296 58.2665 30.3743 56.5007 31.5513L56.501 31.551Z" fill="#E16600"/>
<path d="M41.7623 20.5911C41.6309 25.2939 40.2989 36.596 31.0671 44.3302C27.4215 47.3845 23.9825 49.0261 20.9648 49.8341C19.8646 47.2292 20.0362 44.3093 20.5806 41.9492C21.4635 38.1236 23.3273 32.2378 23.3273 32.2378C23.3273 32.2378 20.973 30.2756 20.0904 26.9404C19.2075 23.6052 19.4036 17.5231 20.0904 16.6405C20.777 15.7576 23.3273 16.4444 26.8589 17.7194C30.3905 18.9945 33.594 21.0546 33.594 21.0546C33.594 21.0546 36.7789 20.2208 39.8321 20.4047C40.4611 20.4424 41.1168 20.5091 41.7623 20.5909V20.5911Z" fill="#2E2D2A"/>
<path d="M23.3279 32.8576C23.2687 32.8576 23.2087 32.8491 23.1492 32.8312C22.8215 32.7326 22.6359 32.387 22.7345 32.0593C23.5077 29.4888 24.6933 27.5879 25.5514 26.4458C26.491 25.195 27.2519 24.5545 27.2836 24.5278C27.5463 24.3086 27.9371 24.3435 28.1563 24.6063C28.3755 24.8687 28.3408 25.2586 28.0789 25.4784C28.072 25.4842 27.3739 26.0765 26.5158 27.2257C25.7268 28.2821 24.6363 30.0402 23.9214 32.4167C23.8407 32.685 23.5945 32.8579 23.3282 32.8579L23.3279 32.8576Z" fill="#26190D"/>
<path d="M56.5829 32.1707C56.3538 32.1707 56.1335 32.043 56.0258 31.8232C54.0026 27.688 51.317 25.1366 51.29 25.1112C51.0408 24.8769 51.0284 24.4847 51.2627 24.2355C51.4968 23.9863 51.8887 23.9736 52.1382 24.2077C52.2544 24.3167 55.0105 26.9288 57.139 31.2785C57.2893 31.5858 57.1621 31.957 56.8548 32.1074C56.7672 32.1504 56.6744 32.1705 56.5829 32.1705V32.1707Z" fill="#26190D"/>
<path d="M20.1546 45.8681C19.8767 45.8681 19.638 45.6586 19.6077 45.3763C19.5752 45.0739 19.7939 44.8024 20.0965 44.7699L24.9059 44.2527C25.2082 44.2202 25.4798 44.4391 25.5123 44.7415C25.5448 45.0439 25.3258 45.3154 25.0235 45.3479L20.2141 45.8651C20.194 45.8673 20.1742 45.8684 20.1546 45.8684V45.8681Z" fill="#564436"/>
<path d="M22.5604 52.895C22.3486 52.895 22.1467 52.7722 22.0561 52.5662C21.9336 52.2878 22.0597 51.9628 22.3381 51.84L26.4351 50.0351C26.7135 49.9126 27.0384 50.0387 27.1613 50.3171C27.2838 50.5955 27.1577 50.9205 26.8793 51.0433L22.7823 52.8482C22.7102 52.8801 22.6347 52.895 22.5606 52.895H22.5604Z" fill="#564436"/>
<path d="M59.6587 46.1628C59.627 46.1628 59.5948 46.1601 59.5623 46.1543L54.96 45.3427C54.6604 45.2899 54.4605 45.0043 54.5134 44.7047C54.5662 44.405 54.8518 44.2051 55.1514 44.258L59.7537 45.0696C60.0533 45.1224 60.2533 45.408 60.2004 45.7076C60.1533 45.9747 59.9209 46.1628 59.6587 46.1628Z" fill="#564436"/>
<path d="M57.633 52.6518C57.5702 52.6518 57.5063 52.6411 57.4438 52.6182L53.1742 51.0562C52.8886 50.9519 52.7416 50.6355 52.8462 50.3499C52.9509 50.0643 53.267 49.9175 53.5526 50.0219L57.8222 51.5839C58.1078 51.6883 58.2548 52.0047 58.1502 52.2902C58.0684 52.5136 57.8574 52.6518 57.633 52.6518Z" fill="#564436"/>
<path d="M34.343 45.9487C35.7608 45.9487 36.9102 44.7994 36.9102 43.3816C36.9102 41.9638 35.7608 40.8145 34.343 40.8145C32.9252 40.8145 31.7759 41.9638 31.7759 43.3816C31.7759 44.7994 32.9252 45.9487 34.343 45.9487Z" fill="#26190D"/>
<path d="M46.8416 45.9487C48.2594 45.9487 49.4087 44.7994 49.4087 43.3816C49.4087 41.9638 48.2594 40.8145 46.8416 40.8145C45.4238 40.8145 44.2744 41.9638 44.2744 43.3816C44.2744 44.7994 45.4238 45.9487 46.8416 45.9487Z" fill="#26190D"/>
<path d="M39.8433 47.5428C40.257 47.5428 40.5923 47.2917 40.5923 46.9819C40.5923 46.672 40.257 46.4209 39.8433 46.4209C39.4296 46.4209 39.0942 46.672 39.0942 46.9819C39.0942 47.2917 39.4296 47.5428 39.8433 47.5428Z" fill="#26190D"/>
<path d="M41.7368 48.9922L42.8915 51.0113L43.9256 48.9922" fill="white"/>
<path d="M42.8915 51.5618C42.6944 51.5618 42.5118 51.4564 42.4135 51.2845L41.2588 49.2654C41.1079 49.0013 41.1993 48.6648 41.4634 48.5139C41.7275 48.363 42.064 48.4547 42.2149 48.7185L42.8648 49.8547L43.4352 48.7408C43.5737 48.4701 43.9058 48.363 44.1765 48.5015C44.4472 48.6403 44.5543 48.9721 44.4158 49.2428L43.3817 51.262C43.2895 51.4418 43.1063 51.5569 42.9042 51.5616C42.9001 51.5616 42.8957 51.5616 42.8915 51.5616V51.5618Z" fill="#26190D"/>
<path d="M42.8431 49.7563C42.2196 49.7563 41.7718 49.5925 41.337 49.4333C40.8939 49.2711 40.4357 49.1034 39.6949 49.0869C38.9868 49.0712 38.7024 49.2127 38.4014 49.3625C38.048 49.5385 37.6474 49.7382 36.8479 49.6476C36.2195 49.5765 35.6491 49.362 35.1989 49.0274C34.8497 48.7677 34.6847 48.5215 34.6553 48.4747L35.5866 47.8865C35.5866 47.8865 35.585 47.8837 35.5814 47.8785C35.5971 47.9013 35.9758 48.4403 36.9716 48.5529C37.4474 48.6066 37.6217 48.5199 37.9101 48.3764C38.2794 48.1924 38.7384 47.9636 39.7188 47.9856C40.6422 48.0063 41.237 48.2238 41.7151 48.3987C42.1499 48.5579 42.4936 48.6834 43.0174 48.6487C43.9022 48.5898 44.103 48.161 44.1283 48.0963C44.1718 47.8143 44.4257 47.6097 44.7149 47.6315C45.0181 47.6549 45.245 47.9195 45.2219 48.223C45.1869 48.6766 44.6202 49.6462 43.0907 49.7481C43.0047 49.7539 42.9221 49.7563 42.8423 49.7563H42.8431ZM44.1245 48.1379C44.1245 48.1379 44.1245 48.1382 44.1245 48.1385C44.1245 48.1385 44.1245 48.1382 44.1245 48.1379Z" fill="#26190D"/>
<path d="M36.5899 36.4198C36.5648 36.4198 36.5395 36.4184 36.5139 36.4151L31.7007 35.8266C31.3611 35.785 31.1193 35.476 31.1609 35.1362C31.2025 34.7967 31.5112 34.5549 31.8513 34.5964L36.6645 35.1849C37.0041 35.2265 37.2459 35.5355 37.2043 35.8753C37.1657 36.1896 36.8986 36.4198 36.5899 36.4198Z" fill="#26190D"/>
<path d="M44.434 36.4197C44.1253 36.4197 43.8581 36.1895 43.8196 35.8753C43.778 35.5357 44.0198 35.2265 44.3594 35.1849L49.1726 34.5964C49.5118 34.5551 49.8214 34.7966 49.863 35.1362C49.9045 35.4757 49.6628 35.785 49.3232 35.8265L44.51 36.415C44.4844 36.4181 44.459 36.4197 44.434 36.4197Z" fill="#26190D"/>
<path d="M35.1216 27.8899C34.8173 27.8899 34.5708 27.6434 34.5708 27.3391V20.7353C34.5708 20.431 34.8173 20.1846 35.1216 20.1846C35.4259 20.1846 35.6723 20.431 35.6723 20.7353V27.3391C35.6723 27.6434 35.4259 27.8899 35.1216 27.8899Z" fill="#564436"/>
<path d="M39.2871 27.8899C38.9828 27.8899 38.7363 27.6434 38.7363 27.3391V20.7353C38.7363 20.431 38.9828 20.1846 39.2871 20.1846C39.5914 20.1846 39.8379 20.431 39.8379 20.7353V27.3391C39.8379 27.6434 39.5914 27.8899 39.2871 27.8899Z" fill="#564436"/>
<path d="M43.7217 27.8898C43.4174 27.8898 43.1709 27.6433 43.1709 27.339V20.8843C43.1709 20.58 43.4174 20.3335 43.7217 20.3335C44.026 20.3335 44.2724 20.58 44.2724 20.8843V27.339C44.2724 27.6433 44.026 27.8898 43.7217 27.8898Z" fill="#564436"/>
<path d="M42.2348 57.9712C41.3048 57.9712 40.4385 57.925 39.5729 57.8707C39.1874 57.8465 38.7311 57.8264 38.2478 57.8052C34.7162 57.6488 28.8053 57.3871 24.3743 54.6399C22.0206 53.1806 20.5043 51.105 19.8681 48.471C19.2645 45.9718 19.5941 43.4691 19.9769 41.8099C20.7265 38.562 22.193 33.7932 22.6184 32.4281C21.9162 31.7468 20.2281 29.883 19.4911 27.0991C19.0816 25.5514 18.8539 23.2203 18.8823 20.8635C18.8949 19.8138 18.9572 18.8477 19.0626 18.07C19.227 16.8572 19.4487 16.4563 19.6013 16.2599C20.2402 15.4384 21.575 15.5822 22.5231 15.7618C23.5985 15.9655 25.0005 16.3894 27.0695 17.1365C30.1274 18.2408 32.8997 19.8939 33.7017 20.3902C34.5432 20.1922 37.2302 19.6271 39.8695 19.786C42.4466 19.9413 45.4139 20.5557 46.391 20.7702C46.8883 20.3326 48.1044 19.3999 50.3521 18.4258C52.5059 17.4926 54.2208 16.8077 55.595 16.3318C58.5521 15.3079 59.4036 15.444 59.8464 15.7122C60.2242 15.941 60.5073 16.3976 60.7125 17.1081C60.8694 17.6523 60.9832 18.3496 61.0504 19.1804C61.1757 20.727 61.13 22.5977 60.9254 24.3133C60.7282 25.9659 60.2391 27.5775 59.5107 28.9739C58.9004 30.1438 58.1616 31.0933 57.3539 31.7504C57.5516 32.2081 57.8666 32.9921 58.226 34.0931C58.7707 35.7614 59.5278 38.5147 60.0408 42.1572C60.5638 45.8699 60.2336 48.7882 59.0318 51.0783C58.4064 52.2696 57.529 53.3015 56.4233 54.1447C55.3218 54.9852 53.9531 55.6685 52.3556 56.1754C49.5188 57.076 47.0511 57.622 44.8108 57.8446C43.8786 57.9371 43.0334 57.9712 42.2348 57.9712ZM21.2509 16.8627C20.724 16.8627 20.5965 16.9985 20.5792 17.0208C20.4418 17.2161 20.1466 18.43 20.1207 20.9252C20.0973 23.1594 20.3099 25.3488 20.6891 26.7819C20.924 27.6697 21.4304 29.0238 22.5083 30.4327C23.1604 31.285 23.7192 31.7575 23.7247 31.7622L24.0422 32.0288L23.918 32.4245C23.8995 32.4832 22.0514 38.331 21.1842 42.0884C20.8314 43.6176 20.5255 45.9157 21.0724 48.1799C21.6295 50.486 22.9599 52.3049 25.027 53.5865C29.1831 56.1633 34.8916 56.4158 38.3023 56.567C38.7911 56.5888 39.2532 56.6092 39.65 56.634C41.206 56.7312 42.7622 56.8028 44.688 56.6114C46.8415 56.3974 49.2269 55.8684 51.9805 54.9943C54.8842 54.0726 56.8317 52.6031 57.9344 50.5025C59.0114 48.4503 59.2992 45.7771 58.8137 42.3301C58.3158 38.7958 57.5852 36.1287 57.0595 34.5136C56.49 32.7632 56.0325 31.8371 56.0279 31.8278L55.7847 31.3389L56.2388 31.0355C57.0286 30.5089 57.8005 29.5732 58.4119 28.4009C59.0717 27.136 59.5154 25.6718 59.6949 24.1668C59.8852 22.5715 59.9315 20.7606 59.8186 19.3222C59.6762 17.5085 59.3377 16.8776 59.2102 16.7768C59.121 16.7474 58.5069 16.6251 55.8778 17.5457C54.5534 18.0095 52.9072 18.6693 50.8451 19.5629C48.135 20.7371 47.0745 21.8227 47.0323 21.8668L46.7886 22.1383L46.4361 22.0502C46.3998 22.0416 42.7592 21.2014 39.7949 21.023C36.881 20.8476 33.7818 21.6459 33.751 21.6539L33.488 21.7225L33.2591 21.5754C33.2277 21.5553 30.0693 19.537 26.6484 18.3016C24.6439 17.5779 23.3006 17.1698 22.2924 16.9787C21.8363 16.8922 21.4993 16.8622 21.2509 16.8622V16.8627Z" fill="#26190D"/>
</g>
<defs>
<clipPath id="clip0_1897_30453">
<rect width="42.24" height="48.96" fill="white" transform="translate(18.8799 15.52)"/>
</clipPath>
</defs>
</svg>
