<svg width="80" height="80" viewBox="0 0 80 80" fill="none" xmlns="http://www.w3.org/2000/svg">
<rect width="80" height="80" rx="40" fill="#BCDFD7"/>
<g clip-path="url(#clip0_1897_29995)">
<path d="M31.8799 56.2944C31.8799 56.2944 33.0003 60.0517 39.5298 60.0517C46.0593 60.0517 46.6948 58.4972 47.8041 56.9974L31.8799 56.2944Z" fill="#E24B17"/>
<path d="M39.53 60.6752C37.9711 60.6752 36.5738 60.4662 35.3765 60.054C34.3964 59.7167 33.5463 59.2429 32.8498 58.6462C31.6281 57.5995 31.2951 56.5177 31.2815 56.4722L31.0312 55.6323L49.0032 56.4254L48.3065 57.3672C48.2335 57.4656 48.1602 57.5679 48.0895 57.6669C47.5787 58.3798 46.9999 59.1881 45.7204 59.7693C44.3605 60.3872 42.3935 60.6746 39.53 60.6746V60.6752ZM32.9672 56.9667C33.1528 57.2103 33.4014 57.4836 33.7294 57.7556C34.309 58.2359 35.0216 58.6198 35.8474 58.8965C36.8995 59.249 38.1385 59.4278 39.5303 59.4278C42.1726 59.4278 44.0284 59.1684 45.2038 58.6342C45.8603 58.336 46.2629 57.9762 46.6022 57.5682L32.9672 56.9664V56.9667Z" fill="#26190D"/>
<path d="M39.991 64.0165C41.1795 64.0165 42.143 63.054 42.143 61.8667C42.143 60.6793 41.1795 59.7168 39.991 59.7168C38.8024 59.7168 37.8389 60.6793 37.8389 61.8667C37.8389 63.054 38.8024 64.0165 39.991 64.0165Z" fill="#FFC217"/>
<path d="M39.9912 64.6401C38.4601 64.6401 37.2148 63.3958 37.2148 61.8666C37.2148 60.3373 38.4604 59.0928 39.9912 59.0928C41.5221 59.0928 42.7676 60.3371 42.7676 61.8666C42.7676 63.3961 41.5221 64.6401 39.9912 64.6401ZM39.9912 60.3401C39.1488 60.3401 38.4635 61.0248 38.4635 61.8666C38.4635 62.7084 39.1488 63.3928 39.9912 63.3928C40.8337 63.3928 41.519 62.7081 41.519 61.8666C41.519 61.025 40.8337 60.3401 39.9912 60.3401Z" fill="#26190D"/>
<path d="M39.991 64.0161C40.3827 64.0161 40.7002 63.6989 40.7002 63.3076C40.7002 62.9163 40.3827 62.5991 39.991 62.5991C39.5993 62.5991 39.2817 62.9163 39.2817 63.3076C39.2817 63.6989 39.5993 64.0161 39.991 64.0161Z" fill="#26190D"/>
<path d="M42.1433 61.312H37.8389V62.4208H42.1433V61.312Z" fill="#26190D"/>
<path d="M40.5459 61.8662H39.436V63.2297H40.5459V61.8662Z" fill="#26190D"/>
<path d="M46.627 21.3259C46.627 21.3259 47.7141 20.1409 50.6795 18.8575C53.6446 17.5739 58.6854 15.4894 59.6741 16.0873C60.6624 16.6852 60.8603 20.8266 60.4649 24.1371C60.0695 27.4475 58.4881 30.3108 56.709 31.4958C56.709 31.4958 58.5869 35.2478 59.5753 42.2581C60.5636 49.2684 58.4881 53.7117 52.2611 55.6863C46.034 57.661 42.7723 57.5623 39.6094 57.365C36.4465 57.1676 29.5277 57.2663 24.5856 54.2053C19.6435 51.1444 19.5447 45.8127 20.4343 41.9618C21.3239 38.1111 23.2018 32.1868 23.2018 32.1868C23.2018 32.1868 20.8297 30.2121 19.9401 26.8549C19.0505 23.4979 19.2481 17.376 19.9401 16.4873C20.6321 15.5986 23.2018 16.2899 26.7601 17.5733C30.3185 18.857 33.5466 20.9303 33.5466 20.9303C33.5466 20.9303 36.7556 20.091 39.8319 20.2762C42.9083 20.4613 46.6272 21.3253 46.6272 21.3253L46.627 21.3259Z" fill="#FFF6E1"/>
<path d="M56.7088 31.496C56.7088 31.496 58.5867 35.248 59.5751 42.2583C60.5077 48.8719 58.7127 53.2007 53.2776 55.3279C46.8194 52.5324 43.5052 47.4164 42.4267 42.067C41.4958 37.4474 41.8734 25.8259 42.1087 20.5075C44.4855 20.8282 46.6265 21.3258 46.6265 21.3258C46.6265 21.3258 47.7137 20.1408 50.679 18.8574C53.6441 17.5738 58.685 15.4896 59.6733 16.0872C60.6617 16.6851 60.8595 20.8266 60.4641 24.137C60.0687 27.4474 58.4871 30.311 56.7083 31.4957L56.7088 31.496Z" fill="#E16600"/>
<path d="M39.5354 20.26C39.3506 25.4154 38.8398 37.1805 37.9022 41.8661C37.0062 46.3446 33.896 52.3088 27.0824 55.4199C26.2378 55.0831 25.4192 54.6829 24.649 54.2055C19.7069 51.1449 19.6081 45.8129 20.4977 41.962C21.387 38.1113 23.2652 32.187 23.2652 32.187C23.2652 32.187 20.8931 30.2124 20.0035 26.8554C19.1139 23.4984 19.3118 17.3764 20.0035 16.4878C20.6955 15.5991 23.2652 16.2904 26.8235 17.5738C30.3818 18.8575 33.6097 20.9308 33.6097 20.9308C33.6097 20.9308 36.5737 20.1555 39.5354 20.2597V20.26Z" fill="#E16600"/>
<path d="M42.2521 58.0885C41.3151 58.0885 40.4421 58.042 39.57 57.9874C39.1816 57.963 38.7215 57.9427 38.2348 57.9211C34.6765 57.7637 28.7208 57.5003 24.2563 54.7351C21.8847 53.2663 20.3569 51.1772 19.716 48.5259C19.1077 46.0104 19.4399 43.4914 19.8256 41.8213C20.5808 38.5522 22.0584 33.7522 22.4871 32.3782C21.7795 31.6924 20.0786 29.8164 19.3361 27.0144C18.9235 25.4569 18.694 23.1105 18.7226 20.738C18.7354 19.6814 18.7981 18.709 18.9043 17.9263C19.07 16.7055 19.2934 16.302 19.4471 16.1043C20.0908 15.2778 21.4357 15.4225 22.3911 15.6032C23.4746 15.8083 24.8872 16.2352 26.9719 16.9869C30.053 18.0984 32.8463 19.7623 33.6543 20.2618C34.5022 20.0625 37.2096 19.4938 39.8689 19.6537C42.4655 19.81 45.4552 20.4284 46.4397 20.6444C46.9408 20.2039 48.1661 19.2651 50.4309 18.2847C52.601 17.3453 54.3288 16.6559 55.7134 16.177C58.6929 15.1464 59.5509 15.2833 59.9971 15.5533C60.3778 15.7836 60.663 16.2432 60.8697 16.9583C61.0279 17.5061 61.1425 18.2079 61.2102 19.0442C61.3364 20.6008 61.2904 22.4838 61.0842 24.2106C60.8855 25.874 60.3927 27.4961 59.6588 28.9017C59.0439 30.0792 58.2995 31.0349 57.4857 31.6963C57.6849 32.157 58.0023 32.9461 58.3644 34.0543C58.9133 35.7335 59.676 38.5048 60.193 42.1711C60.7199 45.9084 60.3872 48.8455 59.1763 51.1506C58.5462 52.3497 57.6621 53.3883 56.5481 54.237C55.4382 55.083 54.0591 55.7707 52.4495 56.281C49.5913 57.1874 47.1048 57.7371 44.8476 57.961C43.9083 58.0542 43.0565 58.0885 42.2521 58.0885ZM21.1092 16.7114C20.5783 16.7114 20.4499 16.848 20.4324 16.8705C20.2939 17.067 19.9965 18.2888 19.9704 20.8004C19.9468 23.0492 20.161 25.2528 20.5431 26.6953C20.7798 27.589 21.2901 28.9519 22.3761 30.37C23.0332 31.2279 23.5961 31.7035 23.6017 31.7082L23.9216 31.9765L23.7965 32.3748C23.7779 32.4339 21.9158 38.3199 21.042 42.1018C20.6866 43.6411 20.3783 45.9542 20.9293 48.2332C21.4907 50.5543 22.8312 52.3852 24.9139 53.6752C29.1015 56.2688 34.853 56.523 38.2895 56.6752C38.7823 56.6971 39.2476 56.7176 39.6474 56.7425C41.2152 56.8404 42.7832 56.9124 44.7235 56.7198C46.8934 56.5044 49.2969 55.9719 52.071 55.0922C54.9967 54.1644 56.959 52.6853 58.07 50.571C59.1552 48.5054 59.4452 45.8147 58.956 42.3452C58.4543 38.7881 57.7179 36.1033 57.1885 34.4776C56.6147 32.7158 56.1538 31.7836 56.1491 31.7742L55.9041 31.2822L56.3616 30.9767C57.1574 30.4467 57.9352 29.5049 58.5512 28.3249C59.216 27.0518 59.663 25.578 59.8439 24.0632C60.0356 22.4574 60.0822 20.6347 59.9685 19.1869C59.825 17.3614 59.484 16.7263 59.3555 16.6249C59.2656 16.5952 58.6469 16.4722 55.9978 17.3988C54.6637 17.8656 53.005 18.5297 50.9267 19.4292C48.1961 20.6111 47.1276 21.7038 47.0851 21.7481L46.8396 22.0214L46.4844 21.9327C46.4478 21.9241 42.7796 21.0784 39.7928 20.8988C36.8566 20.7222 33.7342 21.5255 33.7031 21.5338L33.4381 21.6029L33.2076 21.4548C33.1759 21.4346 29.9936 19.4031 26.5468 18.1597C24.5271 17.4312 23.1736 17.0204 22.1577 16.8281C21.6982 16.741 21.3586 16.7108 21.1083 16.7108L21.1092 16.7114Z" fill="#26190D"/>
<path d="M23.2017 32.8106C23.1421 32.8106 23.0816 32.802 23.0217 32.784C22.6915 32.6848 22.5045 32.3369 22.6038 32.007C23.3832 29.4198 24.5775 27.5064 25.4421 26.3569C26.3888 25.0979 27.1552 24.4532 27.1874 24.4263C27.4521 24.2054 27.8458 24.2408 28.0667 24.5053C28.2876 24.7694 28.2523 25.1619 27.9887 25.3831C27.9818 25.3889 27.2784 25.9852 26.4138 27.1419C25.6188 28.2052 24.52 29.9747 23.7994 32.3668C23.7181 32.6368 23.4701 32.8109 23.2017 32.8109V32.8106Z" fill="#26190D"/>
<path d="M56.7089 32.1194C56.478 32.1194 56.2561 31.9908 56.1476 31.7696C54.109 27.6074 51.403 25.0392 51.3758 25.0137C51.1247 24.7779 51.1125 24.3831 51.3484 24.1323C51.5842 23.8814 51.9791 23.8687 52.2305 24.1043C52.3476 24.2141 55.1245 26.8432 57.2691 31.2213C57.4206 31.5306 57.2924 31.9043 56.9828 32.0556C56.8945 32.0989 56.801 32.1191 56.7089 32.1191V32.1194Z" fill="#26190D"/>
<path d="M34.3005 45.9877C35.729 45.9877 36.8871 44.8308 36.8871 43.4037C36.8871 41.9767 35.729 40.8198 34.3005 40.8198C32.8719 40.8198 31.7139 41.9767 31.7139 43.4037C31.7139 44.8308 32.8719 45.9877 34.3005 45.9877Z" fill="#26190D"/>
<path d="M46.8937 45.9877C48.3223 45.9877 49.4803 44.8308 49.4803 43.4037C49.4803 41.9767 48.3223 40.8198 46.8937 40.8198C45.4652 40.8198 44.3071 41.9767 44.3071 43.4037C44.3071 44.8308 45.4652 45.9877 46.8937 45.9877Z" fill="#26190D"/>
<path d="M39.8421 47.5921C40.259 47.5921 40.5969 47.3394 40.5969 47.0275C40.5969 46.7157 40.259 46.4629 39.8421 46.4629C39.4253 46.4629 39.0874 46.7157 39.0874 47.0275C39.0874 47.3394 39.4253 47.5921 39.8421 47.5921Z" fill="#26190D"/>
<path d="M42.9163 51.8612C42.5703 52.367 41.7798 53.1323 39.8275 53.1201C37.8755 53.1079 36.5905 52.0216 36.4298 51.0218C36.2695 50.022 36.9967 49.3185 36.9967 49.3185C37.2079 49.3424 37.3807 49.3429 37.5295 49.3269C38.3036 49.2445 38.416 48.7195 39.815 48.7509C41.2423 48.7825 41.7468 49.311 42.6752 49.4092C42.832 49.4255 43.0007 49.43 43.188 49.4175C43.6206 50.7011 43.2621 51.3553 42.9161 51.8614L42.9163 51.8612Z" fill="#E24B17"/>
<path d="M39.8738 53.6747C39.8574 53.6747 39.8408 53.6747 39.8244 53.6747C38.8074 53.6683 37.881 53.4003 37.1451 52.8997C36.4495 52.4265 35.9891 51.7743 35.8823 51.1099C35.6781 49.8396 36.5729 48.9576 36.6112 48.9204L37.3832 49.717L37.3865 49.7137C37.3651 49.7351 36.8671 50.2429 36.9783 50.9339C37.0829 51.5853 38.0621 52.5543 39.8316 52.5657C41.108 52.5748 41.9917 52.2314 42.4584 51.5484C42.7745 51.0861 43.0081 50.6198 42.6627 49.5942L43.7146 49.2406C44.1979 50.675 43.8369 51.498 43.3749 52.1737C43.0886 52.5926 42.704 52.9299 42.2315 53.1763C41.5977 53.507 40.8047 53.6744 39.8738 53.6744V53.6747Z" fill="#26190D"/>
<path d="M39.5728 51.4907C39.3225 51.4907 39.095 51.3199 39.0331 51.0663C39.02 51.0131 38.7223 49.7513 39.3144 48.512C39.4465 48.2357 39.7775 48.1187 40.0542 48.2504C40.3308 48.3823 40.4479 48.7133 40.3161 48.9893C39.8985 49.8633 40.11 50.7963 40.1122 50.8057C40.1849 51.1032 40.002 51.402 39.7043 51.4743C39.6604 51.4851 39.6163 51.4901 39.573 51.4901L39.5728 51.4907Z" fill="#26190D"/>
<path d="M42.8653 49.8198C42.2371 49.8198 41.7859 49.6549 41.3478 49.4947C40.9013 49.3314 40.4396 49.1626 39.6932 49.146C38.9795 49.1302 38.6932 49.2727 38.3902 49.4235C38.0339 49.6006 37.6305 49.8015 36.825 49.7104C36.1918 49.6388 35.6171 49.4229 35.1635 49.0861C34.8116 48.8247 34.6454 48.5769 34.6157 48.5298L35.5541 47.9378C35.5541 47.9378 35.5525 47.935 35.5489 47.9297C35.5647 47.9527 35.9459 48.4952 36.9496 48.6085C37.429 48.6629 37.6047 48.5753 37.8955 48.4309C38.2676 48.246 38.7304 48.0159 39.7179 48.0375C40.6483 48.0583 41.2476 48.2773 41.7293 48.4536C42.1674 48.6138 42.5137 48.7405 43.0415 48.7053C43.933 48.646 44.1353 48.2144 44.1608 48.1492C44.2044 47.8654 44.4602 47.6589 44.7518 47.6814C45.0573 47.7049 45.286 47.9713 45.2627 48.2765C45.2274 48.733 44.6564 49.709 43.1153 49.8115C43.0287 49.8173 42.9455 49.8198 42.865 49.8198H42.8653ZM44.1561 48.1908C44.1561 48.1908 44.1561 48.1911 44.1561 48.1914C44.1561 48.1914 44.1561 48.1911 44.1561 48.1908Z" fill="#26190D"/>
<path d="M35.571 34.7466L32.8236 34.1255C32.0516 33.951 31.2842 34.4347 31.1095 35.2059C30.9348 35.9771 31.419 36.7438 32.191 36.9183L34.9385 37.5393C35.7105 37.7138 36.4779 37.2301 36.6526 36.4589C36.8273 35.6877 36.343 34.9211 35.571 34.7466Z" fill="#FFF6E1"/>
<path d="M35.2592 38.1293C35.1119 38.1293 34.9637 38.1129 34.8166 38.0797L32.0691 37.4588C31 37.2171 30.3268 36.1516 30.5688 35.0833C30.6859 34.5658 30.9978 34.1251 31.447 33.8418C31.8962 33.5588 32.4287 33.4673 32.9467 33.5843L35.6943 34.2052C36.2123 34.3221 36.6535 34.6337 36.9371 35.0825C37.2204 35.5312 37.3119 36.0632 37.1949 36.5807C37.0778 37.0982 36.7659 37.5389 36.3166 37.8222C35.9951 38.0248 35.6307 38.1293 35.2595 38.1293H35.2592ZM32.5078 34.6442C32.1065 34.6442 31.7433 34.9211 31.6512 35.3281C31.5444 35.7998 31.8416 36.2705 32.3141 36.3775L35.0616 36.9984C35.2906 37.0499 35.5256 37.0097 35.724 36.8847C35.9224 36.7597 36.06 36.5649 36.1119 36.3365C36.2187 35.8647 35.9215 35.394 35.449 35.287L32.7014 34.6661C32.6365 34.6514 32.5716 34.6445 32.5075 34.6445L32.5078 34.6442Z" fill="#26190D"/>
<path d="M47.9614 34.0556L45.3047 34.9913C44.5583 35.2542 44.1665 36.0718 44.4296 36.8175C44.6928 37.5632 45.5113 37.9546 46.2578 37.6917L48.9144 36.7561C49.6609 36.4932 50.0527 35.6755 49.7895 34.9298C49.5263 34.1841 48.7079 33.7928 47.9614 34.0556Z" fill="#FFF6E1"/>
<path d="M45.7793 38.331C45.4863 38.331 45.1944 38.2653 44.9222 38.1353C44.4433 37.9063 44.0823 37.5044 43.9055 37.0041C43.7291 36.5038 43.7582 35.9647 43.9874 35.4862C44.2166 35.0078 44.6189 34.6472 45.1198 34.4709L47.7766 33.5354C48.8104 33.1715 49.9481 33.7156 50.3127 34.7484C50.677 35.7812 50.1323 36.9176 49.0985 37.2818L46.4417 38.2173C46.2255 38.2936 46.0019 38.3313 45.7793 38.3313V38.331ZM48.4367 34.5308C48.3401 34.5308 48.2419 34.5468 48.1456 34.5807L45.4888 35.5162C45.2677 35.5941 45.0898 35.7534 44.9885 35.9647C44.8872 36.1759 44.8745 36.4142 44.9525 36.6352C45.0304 36.8561 45.19 37.0338 45.4014 37.1349C45.6128 37.2361 45.8515 37.2489 46.0726 37.171L48.7294 36.2355C49.1861 36.0747 49.4267 35.5727 49.2658 35.1165C49.1387 34.7564 48.7988 34.5308 48.4367 34.5308Z" fill="#26190D"/>
</g>
<defs>
<clipPath id="clip0_1897_29995">
<rect width="42.56" height="49.28" fill="white" transform="translate(18.7202 15.3599)"/>
</clipPath>
</defs>
</svg>
