<svg width="80" height="80" viewBox="0 0 80 80" fill="none" xmlns="http://www.w3.org/2000/svg">
<rect width="80" height="80" rx="40" fill="#D6DDEE"/>
<g clip-path="url(#clip0_1897_30100)">
<path d="M31.9409 56.189C31.9409 56.189 33.0529 59.9218 39.5333 59.9218C46.0138 59.9218 46.6444 58.3775 47.7454 56.8873L31.9409 56.189Z" fill="#E24B17"/>
<path d="M39.5335 60.5413C37.9863 60.5413 36.5995 60.3337 35.4112 59.9242C34.4385 59.5891 33.5947 59.1184 32.9035 58.5255C31.691 57.4857 31.3605 56.4108 31.347 56.3657L31.0986 55.5312L48.9355 56.3194L48.244 57.2552C48.1715 57.3529 48.0988 57.4545 48.0286 57.5529C47.5216 58.2611 46.9472 59.0642 45.6774 59.6417C44.3277 60.2555 42.3755 60.5411 39.5335 60.5411V60.5413ZM33.02 56.857C33.2042 57.099 33.451 57.3706 33.7765 57.6407C34.3518 58.1179 35.059 58.4994 35.8785 58.7742C36.9228 59.1245 38.1524 59.3021 39.5337 59.3021C42.1563 59.3021 43.998 59.0443 45.1646 58.5137C45.8162 58.2174 46.2155 57.8599 46.5525 57.4545L33.02 56.8567V56.857Z" fill="#26190D"/>
<path d="M39.9909 63.8607C41.1705 63.8607 42.1268 62.9044 42.1268 61.7248C42.1268 60.5451 41.1705 59.5889 39.9909 59.5889C38.8113 59.5889 37.855 60.5451 37.855 61.7248C37.855 62.9044 38.8113 63.8607 39.9909 63.8607Z" fill="#FFC217"/>
<path d="M39.9909 64.4803C38.4713 64.4803 37.2354 63.2441 37.2354 61.7247C37.2354 60.2054 38.4716 58.9692 39.9909 58.9692C41.5102 58.9692 42.7464 60.2054 42.7464 61.7247C42.7464 63.2441 41.5102 64.4803 39.9909 64.4803ZM39.9909 60.2082C39.1548 60.2082 38.4746 60.8884 38.4746 61.7245C38.4746 62.5605 39.1548 63.2407 39.9909 63.2407C40.827 63.2407 41.5072 62.5605 41.5072 61.7245C41.5072 60.8884 40.827 60.2082 39.9909 60.2082Z" fill="#26190D"/>
<path d="M39.991 63.8604C40.3797 63.8604 40.6949 63.5453 40.6949 63.1565C40.6949 62.7678 40.3797 62.4526 39.991 62.4526C39.6023 62.4526 39.2871 62.7678 39.2871 63.1565C39.2871 63.5453 39.6023 63.8604 39.991 63.8604Z" fill="#26190D"/>
<path d="M42.1266 61.1738H37.8545V62.2754H42.1266V61.1738Z" fill="#26190D"/>
<path d="M40.5415 61.7246H39.4399V63.0792H40.5415V61.7246Z" fill="#26190D"/>
<path d="M46.5766 21.4469C46.5766 21.4469 47.6556 20.2696 50.5987 18.9946C53.5414 17.7193 58.5444 15.6484 59.5256 16.2424C60.5065 16.8364 60.7029 20.9509 60.3105 24.2399C59.918 27.5288 58.3486 30.3735 56.5828 31.5508C56.5828 31.5508 58.4466 35.2784 59.4276 42.2432C60.4085 49.208 58.3486 53.6224 52.1684 55.5843C45.9881 57.5461 42.7509 57.4481 39.6118 57.252C36.4727 57.0559 29.6059 57.154 24.701 54.1129C19.796 51.0718 19.698 45.7748 20.5809 41.9488C21.4638 38.1229 23.3276 32.2374 23.3276 32.2374C23.3276 32.2374 20.9733 30.2755 20.0904 26.94C19.2075 23.6048 19.4036 17.5227 20.0904 16.6398C20.7772 15.7569 23.3276 16.4437 26.8592 17.7187C30.3907 18.9941 33.5946 21.0539 33.5946 21.0539C33.5946 21.0539 36.7794 20.2201 39.8327 20.404C42.8859 20.588 46.5769 21.4464 46.5769 21.4464L46.5766 21.4469Z" fill="#B7B09B"/>
<path d="M42.2348 57.9712C41.3048 57.9712 40.4385 57.925 39.5729 57.8707C39.1874 57.8465 38.7311 57.8264 38.2478 57.8052C34.7162 57.6488 28.8053 57.3871 24.3743 54.6399C22.0206 53.1806 20.5043 51.105 19.8681 48.471C19.2645 45.9718 19.5941 43.4691 19.9769 41.8099C20.7265 38.562 22.193 33.7932 22.6184 32.4281C21.9162 31.7468 20.2281 29.883 19.4911 27.0991C19.0816 25.5514 18.8539 23.2203 18.8823 20.8635C18.8949 19.8138 18.9572 18.8477 19.0626 18.07C19.227 16.8572 19.4487 16.4563 19.6013 16.2599C20.2402 15.4384 21.575 15.5822 22.5231 15.7618C23.5985 15.9655 25.0005 16.3894 27.0695 17.1365C30.1274 18.2408 32.8997 19.8939 33.7017 20.3902C34.5432 20.1922 37.2302 19.6271 39.8695 19.786C42.4466 19.9413 45.4139 20.5557 46.391 20.7702C46.8883 20.3326 48.1044 19.3999 50.3521 18.4258C52.5059 17.4926 54.2208 16.8077 55.595 16.3318C58.5521 15.3079 59.4036 15.444 59.8464 15.7122C60.2242 15.941 60.5073 16.3976 60.7125 17.1081C60.8694 17.6523 60.9832 18.3496 61.0504 19.1804C61.1757 20.727 61.13 22.5977 60.9254 24.3133C60.7282 25.9659 60.2391 27.5775 59.5107 28.9739C58.9004 30.1438 58.1616 31.0933 57.3539 31.7504C57.5516 32.2081 57.8666 32.9921 58.226 34.0931C58.7707 35.7614 59.5278 38.5147 60.0408 42.1572C60.5638 45.8699 60.2336 48.7882 59.0318 51.0783C58.4064 52.2696 57.529 53.3015 56.4233 54.1447C55.3218 54.9852 53.9531 55.6685 52.3556 56.1754C49.5188 57.076 47.0511 57.622 44.8108 57.8446C43.8786 57.9371 43.0332 57.9712 42.2348 57.9712ZM21.2509 16.8627C20.724 16.8627 20.5965 16.9985 20.5792 17.0208C20.4418 17.2161 20.1466 18.43 20.1207 20.9252C20.0973 23.1594 20.3099 25.3488 20.6891 26.7819C20.924 27.6697 21.4304 29.0238 22.5083 30.4327C23.1604 31.285 23.7192 31.7575 23.7247 31.7622L24.0422 32.0288L23.918 32.4245C23.8995 32.4832 22.0514 38.331 21.1842 42.0884C20.8314 43.6176 20.5255 45.9157 21.0724 48.1799C21.6295 50.486 22.9599 52.3049 25.027 53.5865C29.1831 56.1633 34.8916 56.4161 38.3023 56.567C38.7911 56.5888 39.2529 56.6092 39.6498 56.634C41.2057 56.7312 42.7619 56.8028 44.6877 56.6114C46.8412 56.3974 49.2266 55.8684 51.9799 54.9943C54.8836 54.0726 56.8312 52.6031 57.9338 50.5025C59.0109 48.4503 59.2986 45.7771 58.8131 42.3301C58.3152 38.7958 57.5844 36.1287 57.0589 34.5136C56.4894 32.7632 56.032 31.8371 56.0273 31.8278L55.7841 31.3389L56.2383 31.0355C57.0281 30.5089 57.8 29.5732 58.4113 28.4009C59.0712 27.136 59.5148 25.6718 59.6944 24.1668C59.8847 22.5715 59.9309 20.7606 59.818 19.3222C59.6756 17.5085 59.3372 16.8776 59.2097 16.7768C59.1205 16.7474 58.5063 16.6251 55.8772 17.5457C54.5529 18.0095 52.9066 18.6693 50.8442 19.5629C48.1322 20.7382 47.0723 21.8244 47.0315 21.8668L46.7881 22.1383L46.4356 22.0505C46.3992 22.0419 42.7583 21.2017 39.7943 21.0233C36.8802 20.8476 33.7813 21.6462 33.7504 21.6542L33.4874 21.7228L33.2586 21.5757C33.2272 21.5556 30.0688 19.5373 26.6479 18.3019C24.6434 17.5782 23.3 17.1701 22.2918 16.979C21.8358 16.8925 21.4987 16.8625 21.2503 16.8625L21.2509 16.8627Z" fill="#26190D"/>
<path d="M23.3279 32.8573C23.2687 32.8573 23.2087 32.8487 23.1492 32.8308C22.8215 32.7322 22.6359 32.3866 22.7345 32.0589C23.508 29.4885 24.6933 27.5875 25.5514 26.4455C26.491 25.1947 27.2516 24.5541 27.2836 24.5274C27.5463 24.3079 27.9371 24.3432 28.1563 24.6059C28.3755 24.8683 28.3405 25.2583 28.0789 25.478C28.072 25.4838 27.3739 26.0762 26.5158 27.2253C25.7268 28.2817 24.6363 30.0398 23.9214 32.4164C23.8407 32.6846 23.5945 32.8575 23.3282 32.8575L23.3279 32.8573Z" fill="#26190D"/>
<path d="M56.5831 32.1707C56.3539 32.1707 56.1336 32.043 56.0259 31.8232C54.0027 27.688 51.3171 25.1366 51.2904 25.1112C51.0412 24.8769 51.029 24.4847 51.2631 24.2355C51.4972 23.9863 51.8891 23.9736 52.1386 24.2077C52.2548 24.3167 55.0109 26.9288 57.1393 31.2785C57.2897 31.5858 57.1625 31.957 56.8551 32.1074C56.7676 32.1504 56.6748 32.1705 56.5833 32.1705L56.5831 32.1707Z" fill="#26190D"/>
<path d="M20.1546 45.8682C19.8767 45.8682 19.638 45.6586 19.6077 45.3763C19.5752 45.074 19.7939 44.8024 20.0965 44.7699L24.9059 44.2528C25.2082 44.22 25.4798 44.4389 25.5123 44.7416C25.5448 45.0439 25.3261 45.3155 25.0235 45.348L20.2141 45.8651C20.194 45.8673 20.1742 45.8684 20.1546 45.8684V45.8682Z" fill="#26190D"/>
<path d="M22.5604 52.895C22.3486 52.895 22.1467 52.7722 22.0561 52.5662C21.9336 52.2878 22.0597 51.9628 22.3381 51.84L26.4351 50.0351C26.7135 49.9126 27.0384 50.0387 27.1613 50.3171C27.2841 50.5955 27.1577 50.9205 26.8793 51.0433L22.7823 52.8482C22.7102 52.8801 22.6347 52.895 22.5606 52.895H22.5604Z" fill="#26190D"/>
<path d="M59.6587 46.1628C59.627 46.1628 59.5948 46.1601 59.5623 46.1543L54.96 45.3427C54.6604 45.2899 54.4605 45.0043 54.5134 44.7047C54.5662 44.405 54.8518 44.2051 55.1514 44.258L59.7537 45.0696C60.0533 45.1224 60.2533 45.408 60.2004 45.7076C60.1533 45.9747 59.9209 46.1628 59.6587 46.1628Z" fill="#26190D"/>
<path d="M57.633 52.6519C57.5702 52.6519 57.5063 52.6412 57.4438 52.6183L53.1742 51.0564C52.8886 50.952 52.7416 50.6356 52.8462 50.35C52.9509 50.0644 53.267 49.9174 53.5526 50.022L57.8222 51.584C58.1078 51.6884 58.2548 52.0048 58.1502 52.2904C58.0684 52.5137 57.8574 52.6519 57.633 52.6519Z" fill="#26190D"/>
<path d="M39.8972 55.2064C43.8995 55.2064 47.144 51.9619 47.144 47.9597C47.144 43.9574 43.8995 40.7129 39.8972 40.7129C35.8949 40.7129 32.6504 43.9574 32.6504 47.9597C32.6504 51.9619 35.8949 55.2064 39.8972 55.2064Z" fill="#58574E"/>
<path d="M34.343 45.9487C35.7608 45.9487 36.9102 44.7994 36.9102 43.3816C36.9102 41.9638 35.7608 40.8145 34.343 40.8145C32.9252 40.8145 31.7759 41.9638 31.7759 43.3816C31.7759 44.7994 32.9252 45.9487 34.343 45.9487Z" fill="#26190D"/>
<path d="M46.8416 45.9487C48.2594 45.9487 49.4087 44.7994 49.4087 43.3816C49.4087 41.9638 48.2594 40.8145 46.8416 40.8145C45.4238 40.8145 44.2744 41.9638 44.2744 43.3816C44.2744 44.7994 45.4238 45.9487 46.8416 45.9487Z" fill="#26190D"/>
<path d="M39.8433 47.5428C40.257 47.5428 40.5923 47.2917 40.5923 46.9819C40.5923 46.672 40.257 46.4209 39.8433 46.4209C39.4296 46.4209 39.0942 46.672 39.0942 46.9819C39.0942 47.2917 39.4296 47.5428 39.8433 47.5428Z" fill="#26190D"/>
<path d="M41.7368 48.9922L42.8915 51.0113L43.9256 48.9922" fill="white"/>
<path d="M42.8915 51.5618C42.6944 51.5618 42.5118 51.4564 42.4135 51.2845L41.2588 49.2654C41.1079 49.0013 41.1993 48.6648 41.4634 48.5139C41.7275 48.363 42.064 48.4544 42.2149 48.7185L42.8648 49.8547L43.4352 48.7408C43.5737 48.4701 43.9058 48.363 44.1765 48.5015C44.4472 48.6403 44.5543 48.9721 44.4158 49.2428L43.3817 51.262C43.2895 51.4418 43.1063 51.5569 42.9042 51.5616C42.9001 51.5616 42.8957 51.5616 42.8915 51.5616V51.5618Z" fill="#26190D"/>
<path d="M42.8431 49.7565C42.2196 49.7565 41.7718 49.5926 41.337 49.4334C40.8939 49.2712 40.4357 49.1035 39.6949 49.087C38.9866 49.071 38.7024 49.2128 38.4014 49.3627C38.0478 49.5386 37.6474 49.7383 36.8479 49.6477C36.2195 49.5766 35.6491 49.3621 35.1989 49.0275C34.8497 48.7678 34.6847 48.5216 34.6553 48.4748L35.5866 47.8866C35.5866 47.8866 35.585 47.8838 35.5814 47.8786C35.5971 47.9015 35.9758 48.4404 36.9716 48.553C37.4474 48.6067 37.6217 48.52 37.9101 48.3765C38.2794 48.1928 38.739 47.964 39.7188 47.9857C40.6422 48.0064 41.237 48.2239 41.7151 48.3988C42.1499 48.558 42.4936 48.6836 43.0174 48.6489C43.9022 48.5899 44.103 48.1611 44.1283 48.0964C44.1716 47.8144 44.4257 47.609 44.7149 47.6316C45.0181 47.655 45.245 47.9196 45.2219 48.2231C45.1869 48.6767 44.6202 49.6463 43.0907 49.7482C43.0047 49.754 42.9221 49.7565 42.8423 49.7565H42.8431ZM44.1242 48.138C44.1242 48.138 44.1242 48.1383 44.1242 48.1386C44.1242 48.1386 44.1242 48.1383 44.1242 48.138Z" fill="#26190D"/>
<path d="M36.5899 36.4197C36.5648 36.4197 36.5395 36.4183 36.5139 36.415L31.7007 35.8265C31.3611 35.785 31.1193 35.476 31.1609 35.1362C31.2025 34.7966 31.5115 34.5551 31.851 34.5964L36.6642 35.1849C37.0038 35.2265 37.2456 35.5355 37.204 35.8753C37.1654 36.1895 36.8983 36.4197 36.5896 36.4197H36.5899Z" fill="#26190D"/>
<path d="M44.434 36.4198C44.1253 36.4198 43.8581 36.1896 43.8196 35.8754C43.778 35.5358 44.0198 35.2266 44.3594 35.185L49.1726 34.5965C49.5121 34.5546 49.8214 34.7967 49.8627 35.1363C49.9043 35.4758 49.6625 35.7851 49.3229 35.8267L44.5097 36.4151C44.4841 36.4182 44.4588 36.4198 44.4337 36.4198H44.434Z" fill="#26190D"/>
</g>
<defs>
<clipPath id="clip0_1897_30100">
<rect width="42.24" height="48.96" fill="white" transform="translate(18.8799 15.52)"/>
</clipPath>
</defs>
</svg>
