<svg width="80" height="80" viewBox="0 0 80 80" fill="none" xmlns="http://www.w3.org/2000/svg">
<rect width="80" height="80" rx="40" fill="#F6D77F"/>
<path d="M60.5937 35.0724C61.1211 34.0912 62.6905 31.0126 63.4998 29.099C64.3092 27.1856 62.4699 25.7874 61.1456 25.1984C59.8212 24.6098 53.4205 23.3586 53.4205 23.3586C53.4205 23.3586 47.9905 19.9858 39.9996 19.9858C32.0088 19.9858 26.5788 23.3586 26.5788 23.3586C26.5788 23.3586 20.178 24.6098 18.8537 25.1984C17.5294 25.7877 15.6901 27.1859 16.4995 29.0993C17.3088 31.0126 18.8782 34.0912 19.4056 35.0727C19.9329 36.0539 21.3308 37.3665 21.3308 37.3665C21.3308 37.3665 19.234 40.4206 18.4982 42.1868C17.7624 43.9531 17.1003 46.9336 17.1003 46.9336L19.5281 47.5592C19.5281 47.5592 19.1236 49.0679 19.0867 50.2452C19.0498 51.4228 19.1602 52.6371 19.3811 52.8946C19.6017 53.1522 21.5514 53.1891 21.9928 53.1522C22.4343 53.1153 23.2067 52.9555 23.5746 53.1643C23.9425 53.3731 24.4206 55.0656 25.9658 56.1327C27.5107 57.1999 28.0259 57.6045 28.1851 57.5679C28.3446 57.531 28.5775 56.5007 28.7615 56.5131C28.9454 56.5253 29.5218 57.0282 30.2943 57.1999C31.0667 57.3715 31.3611 57.396 31.6062 57.3715C31.8516 57.347 32.0722 56.5743 32.2316 56.5864C32.3911 56.5985 37.2039 59.4259 39.9996 60.0145C42.7953 59.4259 47.6082 56.5985 47.7677 56.5864C47.9271 56.5743 48.1477 57.347 48.3931 57.3715C48.6384 57.396 48.9326 57.3715 49.705 57.1999C50.4775 57.0282 51.0538 56.5253 51.2378 56.5131C51.4217 56.5007 51.6547 57.5312 51.8142 57.5679C51.9736 57.6048 52.4886 57.1999 54.0335 56.1327C55.5784 55.0656 56.0567 53.3728 56.4246 53.1643C56.7926 52.9555 57.565 53.1156 58.0065 53.1522C58.4479 53.1891 60.3976 53.1522 60.6182 52.8946C60.8388 52.6371 60.9492 51.4228 60.9126 50.2452C60.8757 49.0676 60.4711 47.5592 60.4711 47.5592L62.8989 46.9336C62.8989 46.9336 62.2369 43.9531 61.5011 42.1868C60.7653 40.4206 58.6685 37.3665 58.6685 37.3665C58.6685 37.3665 60.0663 36.0542 60.5937 35.0727V35.0724Z" fill="#2E2D2A"/>
<path d="M40.0307 56.8313C37.3393 56.8872 33.4809 54.8934 33.5228 50.7488C33.5625 46.8424 36.0236 44.5715 36.8037 43.2639C38.1212 41.056 39.09 38.1386 39.1632 30.4113C39.204 26.1491 38.8193 22.4691 38.4659 20.0258C38.9476 19.9996 39.4392 19.9858 39.9398 19.9858C40.8703 19.9858 41.7661 20.0316 42.6229 20.1123C42.4163 24.6638 42.1993 32.1374 42.6457 37.6709C43.3323 46.1816 47.0601 44.9825 47.2113 49.8643C47.3741 55.1149 42.3926 56.782 40.0307 56.831V56.8313Z" fill="#FFF6E1"/>
<path d="M34.7727 45.832C36.1905 45.832 37.3398 44.6824 37.3398 43.2642C37.3398 41.846 36.1905 40.6963 34.7727 40.6963C33.3549 40.6963 32.2056 41.846 32.2056 43.2642C32.2056 44.6824 33.3549 45.832 34.7727 45.832Z" fill="#26190D"/>
<path d="M47.2707 45.832C48.6885 45.832 49.8379 44.6824 49.8379 43.2642C49.8379 41.846 48.6885 40.6963 47.2707 40.6963C45.853 40.6963 44.7036 41.846 44.7036 43.2642C44.7036 44.6824 45.853 45.832 47.2707 45.832Z" fill="#26190D"/>
<path d="M40.2725 47.4264C40.6862 47.4264 41.0215 47.1752 41.0215 46.8653C41.0215 46.5554 40.6862 46.3042 40.2725 46.3042C39.8588 46.3042 39.5234 46.5554 39.5234 46.8653C39.5234 47.1752 39.8588 47.4264 40.2725 47.4264Z" fill="#26190D"/>
<path d="M43.3239 51.6695C42.9805 52.1722 42.1959 52.9327 40.2583 52.9206C38.321 52.9085 37.0457 51.829 36.8862 50.8354C36.727 49.8418 37.4488 49.1426 37.4488 49.1426C37.6584 49.1663 37.8299 49.1669 37.9776 49.1509C38.7459 49.0691 38.8574 48.5474 40.2459 48.5785C41.6625 48.6099 42.1631 49.1352 43.0846 49.2327C43.2401 49.249 43.4076 49.2534 43.5935 49.241C44.0228 50.5166 43.667 51.1667 43.3236 51.6697L43.3239 51.6695Z" fill="#E24B17"/>
<path d="M40.3039 53.4713C40.2877 53.4713 40.2714 53.4713 40.2549 53.4713C39.2456 53.465 38.3261 53.1986 37.5958 52.7011C36.9054 52.2309 36.4486 51.5828 36.3425 50.9225C36.1399 49.66 37.028 48.7835 37.066 48.7466L37.8321 49.5383L37.8354 49.535C37.8142 49.5562 37.3199 50.0608 37.4303 50.7475C37.5341 51.3949 38.506 52.3579 40.2621 52.3692C40.2767 52.3692 40.2913 52.3692 40.3056 52.3692C41.5487 52.3692 42.4112 52.0293 42.8691 51.3583C43.1828 50.8988 43.4147 50.4355 43.0718 49.4162L44.1158 49.0647C44.5955 50.4903 44.2372 51.3081 43.779 51.9797C43.4948 52.3959 43.1131 52.7312 42.6441 52.9761C42.0152 53.3047 41.2281 53.4711 40.3042 53.4711L40.3039 53.4713Z" fill="#26190D"/>
<path d="M40.0051 51.3008C39.7567 51.3008 39.5309 51.1311 39.4694 50.879C39.4565 50.8261 39.161 49.5722 39.7487 48.3406C39.8798 48.066 40.2086 47.9498 40.4829 48.0806C40.7574 48.2117 40.8736 48.5406 40.7428 48.815C40.3284 49.6835 40.5382 50.6107 40.5404 50.6201C40.6126 50.9157 40.4311 51.2126 40.1356 51.2845C40.0921 51.2953 40.0483 51.3002 40.0053 51.3002L40.0051 51.3008Z" fill="#26190D"/>
<path d="M43.2729 49.6406C42.6494 49.6406 42.2017 49.4767 41.7668 49.3175C41.3237 49.1552 40.8655 48.9874 40.1247 48.9709C39.4167 48.9549 39.1322 49.0968 38.8315 49.2467C38.4779 49.4227 38.0772 49.6221 37.2781 49.5318C36.6496 49.4607 36.0793 49.2461 35.6291 48.9114C35.2799 48.6517 35.1149 48.4054 35.0854 48.3586L36.0168 47.7702C36.0168 47.7702 36.0151 47.7674 36.0116 47.7622C36.0273 47.785 36.4056 48.3241 37.4017 48.4368C37.8776 48.4908 38.0519 48.4037 38.3405 48.2602C38.7098 48.0765 39.1688 47.8476 40.1492 47.8693C41.0726 47.89 41.6674 48.1076 42.1455 48.2828C42.5803 48.442 42.924 48.5676 43.4478 48.5329C44.3323 48.474 44.5333 48.0451 44.5587 47.9804C44.6019 47.6983 44.8555 47.4928 45.1452 47.5154C45.4484 47.5388 45.6756 47.8035 45.6522 48.1068C45.6175 48.5605 45.0508 49.5304 43.521 49.6323C43.4351 49.6381 43.3525 49.6406 43.2729 49.6406ZM44.554 48.0217C44.554 48.0217 44.554 48.0219 44.554 48.0222C44.554 48.0222 44.554 48.0219 44.554 48.0217Z" fill="#26190D"/>
<path d="M36.0335 34.6612L33.3067 34.044C32.5405 33.8706 31.7789 34.3513 31.6055 35.1177C31.4322 35.8841 31.9127 36.6459 32.6789 36.8194L35.4057 37.4365C36.1718 37.61 36.9335 37.1293 37.1069 36.3629C37.2802 35.5965 36.7997 34.8346 36.0335 34.6612Z" fill="#FFF6E1"/>
<path d="M35.724 38.0227C35.578 38.0227 35.4307 38.0064 35.2848 37.9734L32.5579 37.3563C31.4968 37.1161 30.8288 36.0572 31.0689 34.9956C31.1851 34.4813 31.4946 34.0433 31.9405 33.7618C32.3863 33.4803 32.9148 33.3896 33.4289 33.5059L36.1558 34.1229C36.6699 34.2392 37.1078 34.5488 37.3892 34.9948C37.6704 35.4407 37.7613 35.9694 37.6451 36.4837C37.5289 36.9979 37.2193 37.4359 36.7735 37.7175C36.4543 37.9188 36.0927 38.0227 35.7243 38.0227H35.724ZM32.9933 34.559C32.5951 34.559 32.2349 34.8342 32.1432 35.2386C32.0372 35.7074 32.3321 36.1751 32.8011 36.2815L35.5279 36.8985C35.7551 36.9497 35.9884 36.9098 36.1855 36.7856C36.3824 36.6613 36.5193 36.4677 36.5705 36.2407C36.622 36.0134 36.5818 35.7798 36.4576 35.5829C36.3334 35.3859 36.1398 35.249 35.9129 35.1978L33.1861 34.5808C33.1216 34.5662 33.0572 34.5593 32.9936 34.5593L32.9933 34.559Z" fill="#26190D"/>
<path d="M48.3296 33.9746L45.693 34.9044C44.9521 35.1656 44.5633 35.9782 44.8245 36.7193C45.0857 37.4603 45.898 37.8493 46.6388 37.588L49.2755 36.6582C50.0163 36.397 50.4052 35.5844 50.144 34.8433C49.8828 34.1023 49.0705 33.7133 48.3296 33.9746Z" fill="#FFF6E1"/>
<path d="M46.1646 38.223C45.8738 38.223 45.5841 38.1577 45.3139 38.0285C44.8386 37.801 44.4803 37.4015 44.3052 36.9043C44.13 36.4071 44.1587 35.8713 44.3864 35.3959C44.6141 34.9204 45.0132 34.5621 45.5102 34.3869L48.1471 33.4572C49.1731 33.0952 50.3022 33.6362 50.6641 34.6626C51.0256 35.689 50.4851 36.8184 49.459 37.1803L46.8222 38.11C46.6077 38.1858 46.3857 38.2232 46.1648 38.2232L46.1646 38.223ZM48.8019 34.4466C48.7061 34.4466 48.6083 34.4626 48.513 34.4962L45.8762 35.4259C45.6568 35.5033 45.4802 35.6617 45.3797 35.8716C45.2792 36.0815 45.2665 36.3184 45.3439 36.538C45.4213 36.7575 45.5796 36.9341 45.7895 37.0346C45.9993 37.1352 46.2362 37.1481 46.4556 37.0704L49.0924 36.1407C49.5457 35.981 49.7845 35.4821 49.6248 35.0287C49.4986 34.6709 49.1613 34.4466 48.8019 34.4466Z" fill="#26190D"/>
<path d="M39.9996 60.6342C39.9569 60.6342 39.9139 60.6298 39.8718 60.621C37.6079 60.1442 34.1375 58.2909 32.6556 57.4992C32.5794 57.4584 32.5025 57.4174 32.4295 57.3785C32.2701 57.6543 32.0481 57.9496 31.6676 57.9879C31.3153 58.0231 30.9348 57.9768 30.1596 57.8044C29.6936 57.7008 29.302 57.505 29.0057 57.338C28.8496 57.7408 28.7055 58.0834 28.3241 58.1713C28.0135 58.2429 27.7453 58.0961 27.4748 57.9259C27.2576 57.789 26.9659 57.5851 26.5248 57.2766C26.2642 57.0942 25.9688 56.8879 25.6132 56.6422C24.477 55.8574 23.8571 54.7666 23.4867 54.1148C23.4005 53.9631 23.2962 53.7796 23.2342 53.6931C23.0497 53.651 22.5835 53.7077 22.3755 53.733C22.2577 53.7474 22.1467 53.7609 22.044 53.7694C21.7848 53.7909 21.1603 53.7903 20.5641 53.7518C19.4446 53.6796 19.11 53.5306 18.9104 53.2973C18.7688 53.132 18.6119 52.846 18.521 51.9789C18.467 51.4646 18.448 50.8418 18.4673 50.2253C18.4913 49.4584 18.657 48.5788 18.7834 48.0067L16.9458 47.5332C16.6222 47.4497 16.4231 47.1247 16.4955 46.7985C16.5231 46.6746 17.1782 43.7439 17.9264 41.9479C18.5185 40.5268 19.9183 38.3638 20.5294 37.4465C20.0538 36.9639 19.2535 36.0979 18.8603 35.3657C18.3996 34.5084 16.7841 31.3613 15.9294 29.3405C15.4805 28.2791 15.6402 27.2164 16.3912 26.2674C17.0838 25.3923 18.074 24.8672 18.6025 24.6322C19.8985 24.056 25.3428 22.9701 26.3582 22.7707C26.7222 22.5632 28.0735 21.8275 30.1615 21.0881C31.5728 20.5884 33.0318 20.1901 34.498 19.9047C36.3317 19.5475 38.1829 19.3662 39.9996 19.3662C41.8163 19.3662 43.741 19.5475 45.5855 19.9045C47.061 20.1901 48.5175 20.5887 49.9153 21.0887C51.9716 21.8244 53.2825 22.5577 53.646 22.7712C54.6726 22.9731 60.1029 24.0568 61.3972 24.632C61.9257 24.8669 62.916 25.3917 63.6085 26.2671C64.3598 27.2161 64.5195 28.2788 64.0704 29.3402C63.2153 31.3615 61.5999 34.5082 61.1395 35.3654C60.7459 36.0976 59.9459 36.9636 59.4703 37.4463C60.0812 38.3636 61.4812 40.5265 62.073 41.9476C62.8212 43.7436 63.4764 46.6746 63.5039 46.7982C63.5763 47.1244 63.3772 47.4494 63.0536 47.5329L61.216 48.0064C61.3424 48.5786 61.5082 49.4581 61.5321 50.225C61.5514 50.8415 61.5321 51.4643 61.4784 51.9786C61.3876 52.846 61.2306 53.1317 61.0891 53.297C60.8894 53.53 60.5548 53.6791 59.4354 53.7512C58.8389 53.7898 58.2146 53.7903 57.9555 53.7689C57.8527 53.7603 57.7418 53.7468 57.6239 53.7325C57.416 53.7071 56.9498 53.6504 56.7652 53.6925C56.7033 53.779 56.5989 53.9625 56.5127 54.1143C56.1423 54.766 55.5224 55.8569 54.3862 56.6417C54.0307 56.8874 53.7352 57.094 53.4747 57.2761C53.0335 57.5846 52.7422 57.7884 52.5246 57.9253C52.2545 58.0956 51.9862 58.2421 51.6753 58.1705C51.2939 58.0826 51.1499 57.7399 50.9937 57.3372C50.6974 57.5044 50.3058 57.7 49.8402 57.8036C49.0647 57.976 48.6844 58.0223 48.3322 57.987C47.9516 57.949 47.7299 57.6534 47.5702 57.3777C47.4972 57.4165 47.4204 57.4576 47.3441 57.4984C45.8622 58.2898 42.3918 60.1434 40.1279 60.6202C40.0858 60.629 40.0431 60.6334 40.0001 60.6334L39.9996 60.6342ZM32.2252 55.9662C32.2439 55.9662 32.2618 55.967 32.2792 55.9684C32.4441 55.9811 32.489 56.0051 33.2395 56.4059C34.6458 57.1571 37.9014 58.8958 39.9996 59.3798C42.0975 58.8958 45.3533 57.1571 46.7597 56.4059C47.5101 56.0051 47.5553 55.9811 47.72 55.9684C47.9031 55.9541 48.17 56.0053 48.3949 56.3293C48.4575 56.4191 48.5131 56.5224 48.5671 56.6221C48.5874 56.6598 48.6147 56.7102 48.6409 56.7563C48.8155 56.7455 49.0856 56.7023 49.5703 56.5946C49.963 56.5072 50.3144 56.3009 50.5708 56.1502C50.8098 56.0097 50.9825 55.9084 51.1962 55.8943C51.4129 55.8795 51.7183 55.9571 51.9455 56.407C51.9953 56.5059 52.0416 56.6177 52.0862 56.7306C52.274 56.6036 52.51 56.4384 52.7634 56.2612C53.0253 56.0781 53.3224 55.8704 53.6809 55.6227C54.5839 54.9991 55.0956 54.0986 55.4343 53.5028C55.6816 53.0678 55.8449 52.7805 56.1186 52.6251C56.5884 52.3585 57.2452 52.4386 57.7732 52.5028C57.8789 52.5158 57.9786 52.5279 58.0576 52.5345C58.4569 52.5678 59.6978 52.5254 60.1536 52.4249C60.2392 52.1001 60.3246 51.2743 60.2929 50.2644C60.2588 49.1747 59.8763 47.7337 59.8724 47.7194C59.8297 47.5596 59.8526 47.3894 59.9357 47.2464C60.0192 47.1037 60.1561 46.9999 60.3163 46.9586L62.157 46.4842C61.9282 45.5397 61.4426 43.658 60.9291 42.4247C60.2268 40.7386 58.1782 37.7468 58.1579 37.7168C57.9846 37.4644 58.0215 37.1234 58.2446 36.9141C58.6131 36.5678 59.656 35.5086 60.0481 34.7789C60.5689 33.8099 62.1374 30.7299 62.9294 28.8576C63.1988 28.221 63.1032 27.6254 62.6373 27.0368C62.2517 26.5495 61.6164 26.0861 60.8941 25.765C59.8603 25.3055 55.0631 24.3113 53.3017 23.967C53.2279 23.9527 53.1574 23.9249 53.0938 23.8852C53.0809 23.8772 51.7395 23.0541 49.461 22.2426C47.3647 21.4958 44.0216 20.6058 39.9999 20.6058C35.9781 20.6058 32.7286 21.4969 30.6087 22.2448C28.3032 23.058 26.9109 23.8827 26.8971 23.891C26.8357 23.9276 26.7682 23.9535 26.698 23.9673C24.9366 24.3116 20.1394 25.3058 19.1056 25.7652C18.3836 26.0864 17.748 26.5497 17.3625 27.037C16.8965 27.6257 16.8009 28.2213 17.0703 28.8579C17.862 30.7296 19.4306 33.8099 19.9516 34.7792C20.3438 35.5092 21.3864 36.5681 21.7551 36.9146C21.9779 37.1242 22.0148 37.465 21.8419 37.7173C21.8212 37.7473 19.7729 40.7391 19.0704 42.4253C18.5568 43.6585 18.0713 45.5402 17.8425 46.4848L19.6831 46.9591C19.8434 47.0004 19.9803 47.104 20.0637 47.247C20.1471 47.3899 20.1697 47.5602 20.127 47.7199C20.1232 47.7343 19.7404 49.1749 19.7065 50.265C19.6749 51.2745 19.7602 52.1006 19.8459 52.4254C20.3016 52.526 21.5422 52.5681 21.9418 52.535C22.0209 52.5284 22.1205 52.5163 22.2263 52.5034C22.7539 52.4389 23.4107 52.359 23.8808 52.6257C24.1545 52.781 24.3178 53.0683 24.5649 53.5033C24.9036 54.0991 25.4152 54.9996 26.3182 55.6233C26.6768 55.8709 26.9736 56.0786 27.2358 56.2618C27.4892 56.4392 27.7254 56.6042 27.9132 56.7312C27.9579 56.6182 28.0041 56.5064 28.054 56.4075C28.2812 55.9577 28.5866 55.8803 28.8033 55.8949C29.0173 55.9092 29.1899 56.0106 29.4287 56.1508C29.6851 56.3015 30.0362 56.5078 30.4292 56.5951C30.9138 56.7028 31.184 56.7461 31.3586 56.7568C31.385 56.7108 31.412 56.6604 31.4324 56.6227C31.4864 56.5229 31.542 56.4196 31.6045 56.3298C31.8086 56.0365 32.0462 55.9668 32.2255 55.9668L32.2252 55.9662Z" fill="#26190D"/>
<path d="M21.3733 37.9861C21.3557 37.9861 21.3383 37.9861 21.3207 37.9855C20.9787 37.98 20.7055 37.6982 20.711 37.3558C20.7165 37.017 20.9927 36.746 21.3304 36.746C21.3337 36.746 21.337 36.746 21.3405 36.746C21.3516 36.746 21.3626 36.746 21.3736 36.746C22.6965 36.746 23.3572 35.4601 24.2103 33.5043C24.3877 33.0977 24.5711 32.6774 24.7633 32.2925C25.7117 30.3951 27.3596 25.2688 27.3761 25.2173C27.4808 24.8914 27.8294 24.7118 28.1555 24.8165C28.4813 24.9211 28.6608 25.2699 28.5562 25.596C28.4876 25.8103 26.8625 30.8648 25.8717 32.847C25.6938 33.2029 25.5247 33.5902 25.346 34.0004C24.9467 34.9158 24.5339 35.8623 23.9526 36.6104C23.2435 37.5233 22.376 37.9858 21.373 37.9858L21.3733 37.9861Z" fill="#26190D"/>
<path d="M58.6254 37.9862C57.6225 37.9862 56.755 37.5237 56.0459 36.6108C55.4646 35.8624 55.0518 34.9159 54.6525 34.0008C54.4735 33.5906 54.3047 33.2036 54.1268 32.8474C53.1359 30.8652 51.5112 25.8107 51.4423 25.5964C51.3379 25.2705 51.5172 24.9215 51.843 24.8168C52.1688 24.7124 52.5177 24.8918 52.6223 25.2176C52.6389 25.2691 54.2868 30.3955 55.2352 32.2929C55.4277 32.6777 55.6108 33.0981 55.7882 33.5047C56.6413 35.4605 57.3022 36.7463 58.6249 36.7463C58.6359 36.7463 58.6469 36.7463 58.6579 36.7463C58.6612 36.7463 58.6648 36.7463 58.6681 36.7463C59.0057 36.7463 59.282 37.0174 59.2875 37.3562C59.293 37.6983 59.0201 37.9804 58.6778 37.9859C58.6601 37.9859 58.6425 37.9865 58.6252 37.9865L58.6254 37.9862Z" fill="#26190D"/>
</svg>
