<svg width="80" height="80" viewBox="0 0 80 80" fill="none" xmlns="http://www.w3.org/2000/svg">
<rect width="80" height="80" rx="40" fill="#D0BCDF"/>
<g clip-path="url(#clip0_1897_30030)">
<path d="M31.4238 56.4946C31.4238 56.4946 32.5396 60.2339 39.0419 60.2339C45.5442 60.2339 46.177 58.6869 47.2817 57.1942L31.4238 56.4946Z" fill="#E24B17"/>
<path d="M39.042 60.8547C37.4896 60.8547 36.0981 60.6467 34.9058 60.2365C33.9298 59.9007 33.0832 59.4293 32.3896 58.8354C31.173 57.7937 30.8414 56.717 30.8279 56.6718L30.5786 55.8359L48.4757 56.6252L47.7819 57.5625C47.7092 57.6605 47.6363 57.7623 47.5658 57.8608C47.0571 58.5703 46.4807 59.3747 45.2066 59.9532C43.8524 60.568 41.8936 60.8541 39.042 60.8541V60.8547ZM32.5065 57.1637C32.6913 57.4061 32.9389 57.6781 33.2655 57.9488C33.8428 58.4268 34.5523 58.8089 35.3747 59.0842C36.4225 59.4351 37.6562 59.613 39.0422 59.613C41.6736 59.613 43.5216 59.3548 44.6921 58.8232C45.3459 58.5264 45.7468 58.1683 46.0848 57.7623L32.5065 57.1634V57.1637Z" fill="#26190D"/>
<path d="M39.501 64.1791C40.6846 64.1791 41.6442 63.2211 41.6442 62.0395C41.6442 60.8578 40.6846 59.8999 39.501 59.8999C38.3174 59.8999 37.3579 60.8578 37.3579 62.0395C37.3579 63.2211 38.3174 64.1791 39.501 64.1791Z" fill="#FFC217"/>
<path d="M39.5012 64.8001C37.9764 64.8001 36.7363 63.5618 36.7363 62.0398C36.7363 60.5179 37.9767 59.2793 39.5012 59.2793C41.0256 59.2793 42.266 60.5176 42.266 62.0398C42.266 63.562 41.0256 64.8001 39.5012 64.8001ZM39.5012 60.5207C38.6623 60.5207 37.9798 61.202 37.9798 62.0398C37.9798 62.8776 38.6623 63.5587 39.5012 63.5587C40.3401 63.5587 41.0226 62.8773 41.0226 62.0398C41.0226 61.2023 40.3401 60.5207 39.5012 60.5207Z" fill="#26190D"/>
<path d="M39.5007 64.1797C39.8908 64.1797 40.207 63.864 40.207 63.4746C40.207 63.0852 39.8908 62.7695 39.5007 62.7695C39.1106 62.7695 38.7944 63.0852 38.7944 63.4746C38.7944 63.864 39.1106 64.1797 39.5007 64.1797Z" fill="#26190D"/>
<path d="M41.6444 61.4878H37.3579V62.5912H41.6444V61.4878Z" fill="#26190D"/>
<path d="M40.054 62.0396H38.9487V63.3965H40.054V62.0396Z" fill="#26190D"/>
<path d="M59.4948 36.6088C59.4072 35.8737 59.2723 35.0149 59.0665 34.0808C61.8783 32.9269 63.8584 30.1655 63.8584 26.9424C63.8584 22.6812 60.3983 19.2269 56.13 19.2269C53.9294 19.2269 51.9438 20.1449 50.5365 21.6186C48.5658 20.5104 46.1699 19.7071 43.2566 19.3841C43.3089 19.1673 43.3368 18.9408 43.3368 18.708C43.3368 17.1135 42.042 15.8208 40.4448 15.8208C39.1075 15.8208 37.9823 16.727 37.6515 17.9582C37.6186 17.9571 37.5858 17.9562 37.5529 17.9562C36.3495 17.9562 35.318 18.69 34.8823 19.7339C32.9428 20.1215 31.2514 20.7135 29.777 21.4486C28.3595 19.7728 26.2396 18.708 23.8704 18.708C19.6021 18.708 16.1421 22.1623 16.1421 26.4235C16.1421 29.4444 17.8815 32.0593 20.4148 33.3258C19.8265 35.4874 19.7638 37.0168 19.7638 37.0168H19.7643C18.7165 38.0943 18.0512 39.7056 18.0512 41.5062C18.0512 44.0435 19.3723 46.2052 21.2225 47.0264C20.7146 47.7889 20.4181 48.7045 20.4181 49.689C20.4181 52.3483 22.5775 54.5042 25.2412 54.5042C25.485 54.5042 25.7243 54.486 25.9583 54.4512C26.3316 56.6242 28.7146 58.2997 31.5985 58.2997C32.9414 58.2997 34.1754 57.9362 35.1489 57.3287C36.0859 58.2829 37.8502 58.9259 39.872 58.9259C41.7427 58.9259 43.3929 58.3756 44.3713 57.5373C45.3611 58.1883 46.6391 58.5806 48.0342 58.5806C50.9433 58.5806 53.3423 56.8757 53.6838 54.6755C53.9499 54.721 54.2234 54.745 54.5028 54.745C57.1665 54.745 59.3259 52.5891 59.3259 49.9299C59.3259 48.8587 58.9756 47.8692 58.3829 47.0695C60.2859 46.283 61.6553 44.0893 61.6553 41.5062C61.6553 39.4612 60.7968 37.6604 59.4953 36.6085L59.4948 36.6088Z" fill="#FFF6E1"/>
<path d="M39.8717 59.547C37.9515 59.547 36.1986 59.0096 35.0668 58.0918C34.0383 58.6353 32.8493 58.9208 31.5982 58.9208C30.0867 58.9208 28.6252 58.4877 27.4835 57.7015C26.4968 57.022 25.8018 56.1202 25.4827 55.1194C25.402 55.123 25.3213 55.1247 25.2406 55.1247C22.2384 55.1247 19.7958 52.6863 19.7958 49.6891C19.7958 48.8439 19.99 48.0202 20.3622 47.2731C19.583 46.792 18.9146 46.0935 18.4053 45.2229C17.7665 44.1305 17.4285 42.8453 17.4285 41.5063C17.4285 39.6991 18.0558 37.9824 19.1566 36.7565C19.1937 36.2848 19.3153 35.143 19.6894 33.6409C18.5186 32.9642 17.5269 32.012 16.8016 30.8638C15.9635 29.5358 15.52 28.0004 15.52 26.4236C15.52 24.1968 16.3885 22.1036 17.9657 20.529C19.5429 18.9544 21.6396 18.0874 23.8701 18.0874C26.1005 18.0874 28.3528 19.0289 29.9275 20.6865C31.3191 20.0366 32.8383 19.5337 34.4536 19.1886C35.0063 18.1547 36.0353 17.4678 37.203 17.3527C37.7426 16.065 39.0159 15.2002 40.4445 15.2002C42.382 15.2002 43.9581 16.7737 43.9581 18.708C43.9581 18.7538 43.9573 18.7996 43.9554 18.8457C46.3453 19.1751 48.5177 19.8487 50.4276 20.8526C51.1214 20.2038 51.9131 19.6829 52.7868 19.3014C53.8431 18.8402 54.968 18.6062 56.1302 18.6062C58.3607 18.6062 60.4574 19.4733 62.0346 21.0479C63.6118 22.6225 64.4803 24.7157 64.4803 26.9425C64.4803 28.6277 63.9791 30.2511 63.0305 31.6376C62.2034 32.8467 61.086 33.8084 59.7779 34.4426C59.9006 35.0547 60.0026 35.6743 60.0821 36.2925C61.4607 37.5154 62.2767 39.4434 62.2767 41.5065C62.2767 43.9865 61.0962 46.2251 59.2764 47.3134C59.7171 48.1112 59.9473 49.0033 59.9473 49.9305C59.9473 52.9277 57.5049 55.366 54.5024 55.366C54.3897 55.366 54.2767 55.3625 54.1634 55.3556C53.8542 56.3638 53.1648 57.2744 52.1775 57.9627C51.0311 58.7619 49.5594 59.2019 48.0338 59.2019C46.7362 59.2019 45.4677 58.8802 44.413 58.2893C43.2787 59.0827 41.6208 59.547 39.8717 59.547ZM35.1486 56.7081C35.3113 56.7081 35.4724 56.7718 35.5929 56.8943C36.4475 57.7646 38.0872 58.3056 39.8719 58.3056C41.5299 58.3056 43.0607 57.8424 43.9664 57.0664C44.177 56.886 44.4818 56.867 44.7133 57.0193C45.6359 57.6262 46.8153 57.9602 48.0344 57.9602C49.2535 57.9602 50.5265 57.5994 51.466 56.9445C52.3601 56.3213 52.9296 55.4819 53.0695 54.5807C53.0949 54.4163 53.1855 54.2692 53.3206 54.1721C53.4558 54.075 53.6243 54.0358 53.7884 54.064C54.0241 54.1043 54.2645 54.1247 54.5027 54.1247C56.8194 54.1247 58.7041 52.243 58.7041 49.9305C58.7041 49.0257 58.4201 48.1642 57.8829 47.4392C57.7691 47.2855 57.7323 47.0883 57.7837 46.904C57.8348 46.72 57.9683 46.5697 58.1451 46.4966C58.9666 46.157 59.6768 45.5164 60.199 44.6439C60.745 43.7316 61.0335 42.6467 61.0335 41.5068C61.0335 39.7187 60.3123 38.0679 59.104 37.0917C58.978 36.9899 58.897 36.8431 58.8777 36.6826C58.7793 35.8566 58.6387 35.0263 58.4596 34.2147C58.3947 33.9204 58.5511 33.6219 58.8304 33.5071C60.1183 32.9786 61.2156 32.09 62.0039 30.938C62.8108 29.7587 63.2371 28.3772 63.2371 26.943C63.2371 25.0479 62.498 23.2664 61.1556 21.9262C59.8133 20.5861 58.0288 19.8482 56.1305 19.8482C55.141 19.8482 54.1838 20.0471 53.2855 20.4393C52.4173 20.8184 51.6439 21.3596 50.9869 22.0473C50.7907 22.2528 50.4798 22.2992 50.2319 22.1599C48.2074 21.0214 45.8377 20.2953 43.1886 20.0015C43.0112 19.982 42.8509 19.8871 42.7484 19.7414C42.6459 19.5958 42.6111 19.4129 42.6525 19.2399C42.6943 19.0664 42.7153 18.8876 42.7153 18.7086C42.7153 17.4589 41.6968 16.4421 40.445 16.4421C39.4193 16.4421 38.5177 17.1318 38.2522 18.1196C38.1773 18.3985 37.9198 18.5894 37.6307 18.5792C37.6048 18.5784 37.5791 18.5778 37.5528 18.5778C36.6329 18.5778 35.8101 19.1257 35.4561 19.9737C35.3765 20.1643 35.2071 20.3031 35.0043 20.3436C33.2138 20.7014 31.5487 21.2603 30.0549 22.0048C29.7982 22.1328 29.4874 22.0688 29.3022 21.8501C27.9472 20.2484 25.9676 19.3296 23.8706 19.3296C21.9723 19.3296 20.1879 20.0675 18.8455 21.4076C17.5032 22.7477 16.764 24.5292 16.764 26.4244C16.764 27.7667 17.1412 29.0729 17.8546 30.2026C18.5493 31.3025 19.5311 32.1907 20.6932 32.772C20.958 32.9044 21.0925 33.2045 21.0149 33.4897C20.4885 35.4238 20.3959 36.8478 20.386 37.0252C20.3843 37.181 20.3238 37.3339 20.2105 37.4503C19.2335 38.4552 18.6728 39.9341 18.6728 41.5074C18.6728 43.7261 19.7988 45.7164 21.475 46.4604C21.6424 46.5346 21.7684 46.6789 21.8195 46.8544C21.8706 47.0298 21.8416 47.2191 21.7402 47.3713C21.2821 48.059 21.04 48.861 21.04 49.6902C21.04 52.003 22.9248 53.8844 25.2414 53.8844C25.4503 53.8844 25.6609 53.8689 25.867 53.8383C26.2014 53.7889 26.5142 54.0149 26.5711 54.3473C26.8977 56.2474 29.0591 57.6802 31.5987 57.6802C32.77 57.6802 33.914 57.3688 34.8195 56.8036C34.9212 56.7401 35.0353 56.7092 35.1488 56.7092L35.1486 56.7081Z" fill="#26190D"/>
<path d="M34.174 46.0929C35.5966 46.0929 36.7498 44.9415 36.7498 43.5213C36.7498 42.101 35.5966 40.9497 34.174 40.9497C32.7514 40.9497 31.5981 42.101 31.5981 43.5213C31.5981 44.9415 32.7514 46.0929 34.174 46.0929Z" fill="#26190D"/>
<path d="M46.7145 46.0929C48.1371 46.0929 49.2904 44.9415 49.2904 43.5213C49.2904 42.101 48.1371 40.9497 46.7145 40.9497C45.2919 40.9497 44.1387 42.101 44.1387 43.5213C44.1387 44.9415 45.2919 46.0929 46.7145 46.0929Z" fill="#26190D"/>
<path d="M39.693 47.6898C40.1081 47.6898 40.4446 47.4382 40.4446 47.1278C40.4446 46.8175 40.1081 46.5659 39.693 46.5659C39.2779 46.5659 38.9414 46.8175 38.9414 47.1278C38.9414 47.4382 39.2779 47.6898 39.693 47.6898Z" fill="#26190D"/>
<path d="M42.754 51.9386C42.4094 52.442 41.6222 53.2037 39.678 53.1915C37.7341 53.1794 36.4545 52.0983 36.2945 51.1033C36.1348 50.1082 36.859 49.4081 36.859 49.4081C37.0693 49.4318 37.2414 49.4324 37.3895 49.4164C38.1605 49.3344 38.2724 48.812 39.6656 48.8431C41.087 48.8746 41.5893 49.4007 42.5139 49.4983C42.67 49.5146 42.838 49.519 43.0245 49.5066C43.4553 50.7841 43.0983 51.4351 42.7537 51.9388L42.754 51.9386Z" fill="#E24B17"/>
<path d="M39.7242 53.7433C39.7079 53.7433 39.6913 53.7433 39.675 53.7433C38.6623 53.7369 37.7397 53.4702 37.0069 52.972C36.3142 52.5011 35.8558 51.852 35.7494 51.1907C35.546 49.9265 36.4371 49.0487 36.4753 49.0117L37.244 49.8045L37.2473 49.8012C37.226 49.8225 36.73 50.3278 36.8408 51.0156C36.945 51.6638 37.9201 52.6282 39.6822 52.6396C39.6969 52.6396 39.7115 52.6396 39.7259 52.6396C40.9734 52.6396 41.8386 52.2991 42.2981 51.6272C42.6128 51.167 42.8455 50.703 42.5015 49.6823L43.549 49.3303C44.0304 50.7579 43.6709 51.5769 43.2108 52.2495C42.9256 52.6663 42.5427 53.002 42.0721 53.2473C41.441 53.5764 40.6513 53.743 39.7242 53.743V53.7433Z" fill="#26190D"/>
<path d="M39.4247 51.5701C39.1754 51.5701 38.9488 51.4002 38.8872 51.1478C38.8742 51.0948 38.5777 49.8391 39.1674 48.6057C39.2989 48.3307 39.6286 48.2143 39.9041 48.3453C40.1796 48.4766 40.2962 48.806 40.1649 49.0808C39.749 49.9506 39.9596 50.8791 39.9618 50.8885C40.0342 51.1845 39.8521 51.4819 39.5556 51.5539C39.512 51.5646 39.468 51.5696 39.4249 51.5696L39.4247 51.5701Z" fill="#26190D"/>
<path d="M42.703 49.9068C42.0774 49.9068 41.6281 49.7427 41.1918 49.5832C40.7472 49.4208 40.2874 49.2528 39.5441 49.2362C38.8337 49.2205 38.5483 49.3623 38.2465 49.5123C37.8918 49.6886 37.49 49.8886 36.6878 49.7979C36.0573 49.7267 35.485 49.5118 35.0332 49.1766C34.6829 48.9165 34.5174 48.6699 34.4878 48.623L35.4223 48.0337C35.4223 48.0337 35.4206 48.031 35.4171 48.0257C35.4328 48.0486 35.8125 48.5885 36.8119 48.7013C37.2894 48.7554 37.4643 48.6682 37.7539 48.5245C38.1244 48.3405 38.585 48.1112 39.5687 48.133C40.4952 48.1537 41.0921 48.3717 41.5718 48.5471C42.0081 48.7065 42.3529 48.8326 42.8785 48.7976C43.7663 48.7386 43.9677 48.309 43.9931 48.2442C44.0365 47.9617 44.2913 47.7559 44.5817 47.7786C44.8859 47.802 45.1136 48.0671 45.0904 48.3711C45.0553 48.8254 44.4866 49.7967 42.952 49.8988C42.8658 49.9046 42.7829 49.9071 42.7027 49.9071L42.703 49.9068ZM43.9884 48.2856C43.9884 48.2856 43.9884 48.2859 43.9884 48.2861C43.9884 48.2861 43.9884 48.2859 43.9884 48.2856Z" fill="#26190D"/>
<path d="M35.439 34.9057L32.703 34.2876C31.9343 34.1139 31.17 34.5953 30.9961 35.3628C30.8221 36.1303 31.3043 36.8933 32.0731 37.067L34.8091 37.685C35.5779 37.8587 36.3421 37.3773 36.5161 36.6098C36.69 35.8423 36.2078 35.0793 35.439 34.9057Z" fill="#FFF6E1"/>
<path d="M35.1286 38.2724C34.9819 38.2724 34.8343 38.2561 34.6879 38.223L31.9518 37.6051C30.8871 37.3645 30.2168 36.3041 30.4577 35.2409C30.5743 34.7259 30.8849 34.2873 31.3323 34.0054C31.7796 33.7237 32.3099 33.6327 32.8258 33.7491L35.5619 34.367C36.0778 34.4834 36.5171 34.7935 36.7995 35.2401C37.0816 35.6867 37.1728 36.2161 37.0562 36.7311C36.9396 37.2462 36.629 37.6848 36.1817 37.9667C35.8614 38.1684 35.4986 38.2724 35.1289 38.2724H35.1286ZM32.3886 34.804C31.9891 34.804 31.6274 35.0796 31.5357 35.4845C31.4293 35.954 31.7252 36.4224 32.1958 36.5289L34.9319 37.1469C35.1598 37.1982 35.3939 37.1582 35.5915 37.0338C35.789 36.9093 35.9261 36.7154 35.9777 36.4881C36.0841 36.0186 35.7882 35.5502 35.3176 35.4437L32.5815 34.8258C32.5169 34.8111 32.4522 34.8042 32.3884 34.8042L32.3886 34.804Z" fill="#26190D"/>
<path d="M47.7777 34.2182L45.1321 35.1493C44.3887 35.4109 43.9986 36.2247 44.2607 36.9668C44.5227 37.7089 45.3378 38.0985 46.0812 37.8368L48.7268 36.9057C49.4701 36.644 49.8603 35.8303 49.5982 35.0882C49.3361 34.346 48.5211 33.9565 47.7777 34.2182Z" fill="#FFF6E1"/>
<path d="M45.6045 38.473C45.3128 38.473 45.0221 38.4077 44.751 38.2783C44.2741 38.0504 43.9146 37.6504 43.7386 37.1525C43.5628 36.6546 43.5918 36.118 43.8201 35.6419C44.0483 35.1658 44.449 34.8069 44.9477 34.6314L47.5935 33.7004C48.623 33.3382 49.756 33.8797 50.119 34.9075C50.4818 35.9354 49.9394 37.0664 48.9099 37.4289L46.2641 38.3599C46.0489 38.4358 45.8262 38.4733 45.6045 38.4733V38.473ZM48.2511 34.691C48.155 34.691 48.0571 34.707 47.9613 34.7407L45.3155 35.6717C45.0953 35.7492 44.9182 35.9078 44.8173 36.118C44.7165 36.3282 44.7037 36.5655 44.7814 36.7853C44.859 37.0052 45.0179 37.182 45.2285 37.2827C45.439 37.3834 45.6767 37.3961 45.8969 37.3186L48.5426 36.3875C48.9975 36.2275 49.237 35.728 49.0768 35.2739C48.9502 34.9155 48.6117 34.691 48.2511 34.691Z" fill="#26190D"/>
<path d="M23.8701 34.7596C21.6396 34.7596 19.5429 33.8926 17.9657 32.3179C16.3885 30.7436 15.52 28.6501 15.52 26.4236C15.52 24.1972 16.3885 22.1037 17.9657 20.529C19.5429 18.9544 21.6396 18.0874 23.8701 18.0874C26.3346 18.0874 28.6606 19.1666 30.2522 21.0479C30.4738 21.3097 30.4407 21.7015 30.1784 21.9227C29.9162 22.1439 29.5238 22.1108 29.3022 21.849C27.9474 20.2474 25.9676 19.3291 23.8701 19.3291C21.9718 19.3291 20.1873 20.067 18.845 21.4071C17.5026 22.7472 16.7635 24.5287 16.7635 26.4239C16.7635 28.3191 17.5026 30.1006 18.845 31.4407C20.1873 32.7808 21.9718 33.5188 23.8701 33.5188C25.5976 33.5188 27.263 32.8926 28.5592 31.7552C28.817 31.529 29.2099 31.5541 29.4365 31.8117C29.6631 32.0691 29.6379 32.4614 29.3799 32.6876C27.8568 34.0241 25.8999 34.7601 23.8701 34.7601V34.7596Z" fill="#26190D"/>
<path d="M56.1301 35.2786C54.9394 35.2786 53.7894 35.0334 52.7114 34.5501C51.6706 34.0833 50.7501 33.4191 49.9756 32.5763C49.7435 32.3236 49.7604 31.9311 50.0135 31.6993C50.2666 31.4676 50.6598 31.4844 50.8919 31.7371C51.5515 32.4549 52.3351 33.0202 53.221 33.4177C54.1375 33.8287 55.1162 34.0373 56.1301 34.0373C58.0284 34.0373 59.8128 33.2993 61.1552 31.9592C62.4975 30.6191 63.2367 28.8376 63.2367 26.9424C63.2367 25.0472 62.4975 23.2657 61.1552 21.9256C59.8128 20.5855 58.0284 19.8475 56.1301 19.8475C55.1389 19.8475 54.1801 20.0473 53.2804 20.4409C52.4108 20.8213 51.6368 21.3642 50.9795 22.0544C50.743 22.3027 50.3495 22.3126 50.1005 22.0765C49.8516 21.8404 49.8419 21.4475 50.0784 21.199C50.8502 20.3888 51.7595 19.751 52.7814 19.3041C53.8394 18.8412 54.9662 18.6064 56.1303 18.6064C58.3608 18.6064 60.4575 19.4735 62.0347 21.0481C63.6119 22.6227 64.4804 24.7159 64.4804 26.9427C64.4804 29.1694 63.6119 31.2627 62.0347 32.8373C60.4575 34.4119 58.3608 35.2789 56.1303 35.2789L56.1301 35.2786Z" fill="#26190D"/>
<path d="M39.6663 25.6219C38.5867 25.6219 37.577 25.1301 36.9128 24.2931C36.1609 24.1549 35.4734 23.7742 34.9531 23.2035C34.3637 22.5566 34.0391 21.7185 34.0391 20.8435C34.0391 19.0269 35.4292 17.5287 37.2032 17.3527C37.7428 16.065 39.0161 15.2002 40.4447 15.2002C42.3822 15.2002 43.9583 16.7737 43.9583 18.708C43.9583 18.985 43.9257 19.2611 43.8616 19.5284C43.7815 19.8617 43.446 20.0672 43.112 19.9872C42.7782 19.9072 42.5723 19.5723 42.6525 19.2388C42.6939 19.0661 42.7149 18.8876 42.7149 18.7078C42.7149 17.4581 41.6964 16.4413 40.4447 16.4413C39.419 16.4413 38.5174 17.1309 38.2518 18.1188L38.1239 18.5949L37.6304 18.5784C37.6044 18.5776 37.5787 18.577 37.5524 18.577C36.3007 18.577 35.2822 19.5938 35.2822 20.8435C35.2822 21.409 35.4919 21.9502 35.8727 22.3682C36.251 22.7833 36.7658 23.0426 37.3223 23.0984L37.6141 23.1276L37.7771 23.3712C38.2001 24.0032 38.9064 24.3806 39.6663 24.3806C40.0097 24.3806 40.288 24.6583 40.288 25.0012C40.288 25.3441 40.0097 25.6219 39.6663 25.6219Z" fill="#26190D"/>
</g>
<defs>
<clipPath id="clip0_1897_30030">
<rect width="48.96" height="49.6" fill="white" transform="translate(15.52 15.2002)"/>
</clipPath>
</defs>
</svg>
