<svg width="80" height="80" viewBox="0 0 80 80" fill="none" xmlns="http://www.w3.org/2000/svg">
<rect width="80" height="80" rx="40" fill="#E7DBCF"/>
<g clip-path="url(#clip0_1897_30574)">
<path d="M31.522 54.564C31.522 54.564 32.6337 58.308 39.1127 58.308C45.5917 58.308 46.2222 56.759 47.323 55.2644L31.522 54.564Z" fill="#E24B17"/>
<path d="M39.1132 58.9294C37.5664 58.9294 36.1798 58.7211 34.9918 58.3104C34.0193 57.9743 33.1757 57.5022 32.4847 56.9075C31.2724 55.8646 30.942 54.7865 30.9285 54.7412L30.6802 53.9043L48.5131 54.6948L47.8217 55.6334C47.7493 55.7314 47.6766 55.8333 47.6064 55.932C47.0996 56.6424 46.5252 57.4478 45.2557 58.027C43.9063 58.6427 41.9545 58.9291 39.1132 58.9291V58.9294ZM32.6009 55.2337C32.785 55.4765 33.0317 55.7488 33.3572 56.0198C33.9323 56.4985 34.6394 56.881 35.4587 57.1567C36.5028 57.508 37.7321 57.6862 39.1132 57.6862C41.7351 57.6862 43.5765 57.4276 44.7428 56.8954C45.3942 56.5982 45.7934 56.2397 46.1304 55.8331L32.6009 55.2334V55.2337Z" fill="#26190D"/>
<path d="M40.193 17.7417C31.9547 17.7417 25.0404 21.5051 19.5972 27.925C14.154 34.3452 12.6827 41.7245 13.1978 43.5693C13.7129 45.4141 15.1102 48.5134 21.1418 47.7754C21.1418 47.7754 22.1715 52.4243 28.2769 53.9001C34.382 55.3759 43.7536 56.1175 48.7992 55.0069C53.1023 54.0597 56.5739 51.6064 57.9714 48.7286C57.9714 48.7286 63.3634 49.1772 65.7907 46.9633C68.218 44.7495 66.093 39.1982 64.8345 36.042C63.7558 33.3362 61.2844 28.8804 58.1407 25.5634C54.8308 22.071 49.0197 17.7417 40.193 17.7417Z" fill="#FF9C39"/>
<path d="M39.5705 62.2582C40.7499 62.2582 41.7059 61.2991 41.7059 60.1159C41.7059 58.9328 40.7499 57.9736 39.5705 57.9736C38.3911 57.9736 37.4351 58.9328 37.4351 60.1159C37.4351 61.2991 38.3911 62.2582 39.5705 62.2582Z" fill="#FFC217"/>
<path d="M39.5703 62.8801C38.0511 62.8801 36.8154 61.6401 36.8154 60.1163C36.8154 58.5924 38.0514 57.3525 39.5703 57.3525C41.0893 57.3525 42.3253 58.5924 42.3253 60.1163C42.3253 61.6401 41.0893 62.8801 39.5703 62.8801ZM39.5703 58.5952C38.7345 58.5952 38.0544 59.2774 38.0544 60.116C38.0544 60.9546 38.7345 61.6368 39.5703 61.6368C40.4062 61.6368 41.0863 60.9546 41.0863 60.116C41.0863 59.2774 40.4062 58.5952 39.5703 58.5952Z" fill="#26190D"/>
<path d="M39.5704 62.2587C39.9591 62.2587 40.2742 61.9426 40.2742 61.5527C40.2742 61.1628 39.9591 60.8467 39.5704 60.8467C39.1818 60.8467 38.8667 61.1628 38.8667 61.5527C38.8667 61.9426 39.1818 62.2587 39.5704 62.2587Z" fill="#26190D"/>
<path d="M41.7057 59.5635H37.4346V60.6683H41.7057V59.5635Z" fill="#26190D"/>
<path d="M40.1208 60.1162H39.0195V61.4749H40.1208V60.1162Z" fill="#26190D"/>
<path d="M34.363 43.9573C35.7805 43.9573 36.9296 42.8045 36.9296 41.3824C36.9296 39.9604 35.7805 38.8076 34.363 38.8076C32.9455 38.8076 31.7964 39.9604 31.7964 41.3824C31.7964 42.8045 32.9455 43.9573 34.363 43.9573Z" fill="#26190D"/>
<path d="M46.8586 43.9573C48.2761 43.9573 49.4252 42.8045 49.4252 41.3824C49.4252 39.9604 48.2761 38.8076 46.8586 38.8076C45.4411 38.8076 44.292 39.9604 44.292 41.3824C44.292 42.8045 45.4411 43.9573 46.8586 43.9573Z" fill="#26190D"/>
<path d="M39.8617 45.5564C40.2753 45.5564 40.6106 45.3045 40.6106 44.9938C40.6106 44.6831 40.2753 44.4312 39.8617 44.4312C39.4481 44.4312 39.1128 44.6831 39.1128 44.9938C39.1128 45.3045 39.4481 45.5564 39.8617 45.5564Z" fill="#26190D"/>
<path d="M42.803 49.6515C42.4597 50.1556 41.6752 50.9182 39.738 50.906C37.8011 50.8939 36.5261 49.8114 36.3667 48.8151C36.2075 47.8188 36.9292 47.1178 36.9292 47.1178C37.1387 47.1416 37.3102 47.1421 37.4578 47.1261C38.226 47.0441 38.3375 46.5209 39.7257 46.5521C41.1419 46.5836 41.6425 47.1103 42.5637 47.2081C42.7193 47.2244 42.8867 47.2288 43.0725 47.2164C43.5018 48.4955 43.146 49.1474 42.8027 49.6518L42.803 49.6515Z" fill="#E24B17"/>
<path d="M42.861 47.776C42.2377 47.776 41.79 47.6116 41.3553 47.452C40.9123 47.2893 40.4541 47.1211 39.7135 47.1045C39.0054 47.089 38.7212 47.2307 38.4206 47.381C38.067 47.5575 37.6667 47.7575 36.8674 47.6669C36.2391 47.5956 35.6689 47.3804 35.2188 47.0448C34.8697 46.7844 34.7048 46.5374 34.6753 46.4905L35.6064 45.9005C35.6064 45.9005 35.6048 45.8977 35.6012 45.8925C35.6169 45.9154 35.9952 46.456 36.9911 46.5689C37.4668 46.6228 37.6411 46.5358 37.9297 46.3919C38.2989 46.2076 38.7581 45.9784 39.738 45.9999C40.6612 46.0207 41.2559 46.2389 41.7338 46.4143C42.1686 46.5739 42.5122 46.7001 43.0359 46.6651C43.9205 46.6059 44.1212 46.1759 44.1465 46.111C44.1898 45.8281 44.4439 45.6224 44.733 45.6447C45.0361 45.6682 45.263 45.9336 45.2399 46.2378C45.2049 46.6927 44.6383 47.6652 43.1091 47.7674C43.0232 47.7732 42.9406 47.7757 42.8608 47.7757L42.861 47.776ZM44.1418 46.1527C44.1418 46.1527 44.1418 46.153 44.1418 46.1532C44.1418 46.1532 44.1418 46.153 44.1418 46.1527Z" fill="#26190D"/>
<path d="M39.7841 51.4587C39.7678 51.4587 39.7516 51.4587 39.7351 51.4587C38.726 51.4524 37.8067 51.1853 37.0765 50.6865C36.3863 50.215 35.9295 49.5651 35.8235 48.903C35.6208 47.6371 36.5088 46.7582 36.5468 46.7212L37.3127 47.515L37.316 47.5117C37.2948 47.533 36.8006 48.039 36.911 48.7276C37.0148 49.3767 37.9865 50.3423 39.7422 50.3536C41.0087 50.3627 41.8856 50.0205 42.3487 49.3399C42.6623 48.8792 42.8941 48.4146 42.5514 47.3927L43.5951 47.0402C44.0747 48.4696 43.7165 49.2897 43.2581 49.9631C42.974 50.3804 42.5924 50.7166 42.1235 50.9621C41.4947 51.2916 40.7078 51.4585 39.7841 51.4585V51.4587Z" fill="#26190D"/>
<path d="M50.5493 47.1182L51.0779 47.1264C50.9306 47.1425 50.7588 47.1419 50.5493 47.1182Z" fill="#E24B17"/>
<path d="M56.6929 47.2163C56.507 47.2287 56.3396 47.2246 56.1841 47.208L56.6929 47.2163Z" fill="#E24B17"/>
<path d="M50.5493 47.1182L51.0779 47.1264C50.9306 47.1425 50.7588 47.1419 50.5493 47.1182Z" fill="#E24B17"/>
<path d="M56.6929 47.2163C56.507 47.2287 56.3396 47.2246 56.1841 47.208L56.6929 47.2163Z" fill="#E24B17"/>
<path d="M39.4854 49.2828C39.2371 49.2828 39.0113 49.1126 38.9499 48.8599C38.937 48.8069 38.6415 47.5496 39.2291 46.3146C39.3601 46.0392 39.6889 45.9227 39.9631 46.0539C40.2376 46.1854 40.3538 46.5152 40.223 46.7903C39.8086 47.6612 40.0184 48.5909 40.0206 48.6003C40.0928 48.8966 39.9113 49.1944 39.6159 49.2665C39.5724 49.2773 39.5286 49.2822 39.4857 49.2822L39.4854 49.2828Z" fill="#26190D"/>
<path d="M35.6288 32.2067L32.9026 31.5878C32.1366 31.4139 31.3751 31.8959 31.2018 32.6644C31.0284 33.4329 31.5089 34.1968 32.2749 34.3707L35.0011 34.9896C35.7671 35.1634 36.5286 34.6814 36.702 33.913C36.8753 33.1445 36.3948 32.3805 35.6288 32.2067Z" fill="#AF6019"/>
<path d="M35.3192 35.577C35.173 35.577 35.026 35.5607 34.8801 35.5275L32.1538 34.9088C31.0929 34.668 30.425 33.6062 30.6651 32.5417C30.7813 32.026 31.0907 31.5869 31.5365 31.3046C31.9822 31.0226 32.5106 30.9314 33.0246 31.048L35.7509 31.6667C36.265 31.7832 36.7027 32.0937 36.9841 32.5409C37.2652 32.9881 37.3561 33.5181 37.2399 34.0338C37.1237 34.5495 36.8142 34.9887 36.3685 35.2709C36.0494 35.4729 35.6879 35.577 35.3195 35.577H35.3192ZM32.5874 32.1039C32.4247 32.1039 32.265 32.1498 32.124 32.239C31.9272 32.3636 31.7906 32.5577 31.7391 32.7853C31.6331 33.2554 31.928 33.7244 32.3969 33.8311L35.1232 34.4498C35.5918 34.5558 36.0593 34.2603 36.1656 33.7899C36.2716 33.3198 35.9767 32.8508 35.5078 32.7442L32.7815 32.1255C32.7171 32.1108 32.6521 32.1036 32.5874 32.1036V32.1039Z" fill="#26190D"/>
<path d="M47.923 31.5172L45.287 32.4495C44.5463 32.7115 44.1575 33.5262 44.4186 34.2693C44.6798 35.0124 45.4919 35.4024 46.2326 35.1404L48.8687 34.2081C49.6094 33.9461 49.9982 33.1314 49.737 32.3883C49.4759 31.6452 48.6637 31.2552 47.923 31.5172Z" fill="#AF6019"/>
<path d="M45.7581 35.7771C45.4673 35.7771 45.1777 35.7116 44.9076 35.5821C44.4324 35.3539 44.0742 34.9534 43.8988 34.4549C43.7237 33.9563 43.7526 33.4191 43.98 32.9423C44.2074 32.4656 44.6067 32.1063 45.1036 31.9306L47.7399 30.9984C48.7658 30.6357 49.8946 31.1779 50.2564 32.2071C50.6179 33.2362 50.0774 34.3687 49.0515 34.7316L46.4153 35.6638C46.2008 35.7398 45.9789 35.7774 45.7581 35.7774V35.7771ZM48.3949 31.9905C48.2991 31.9905 48.2016 32.0065 48.1061 32.0402L45.4698 32.9725C45.2504 33.0501 45.0739 33.2089 44.9734 33.4194C44.8729 33.6298 44.8602 33.8674 44.9376 34.0875C45.015 34.3077 45.1733 34.4847 45.3831 34.5855C45.5932 34.6863 45.8297 34.699 46.0491 34.6214L48.6854 33.6892C49.1385 33.529 49.3773 33.0288 49.2176 32.5742C49.0915 32.2154 48.7542 31.9905 48.3949 31.9905Z" fill="#26190D"/>
<path d="M65.7424 46.9451C63.3148 49.1589 57.9228 48.7101 57.9228 48.7101C59.9302 44.9649 59.4525 40.4064 58.9289 37.3711C58.2667 33.5343 55.6189 25.0491 52.0151 22.9819C52.0749 23.0073 55.2667 23.5048 59.9506 28.7006C61.1161 29.9932 62.4343 31.6384 63.6034 33.4707C64.0918 34.4134 64.4907 35.2838 64.7859 36.0237C66.0444 39.1797 68.1694 44.731 65.7421 46.9451H65.7424Z" fill="#AF6019"/>
<path d="M21.3257 36.6417C20.4144 41.3227 19.9375 44.9626 20.8414 47.7863C14.885 48.4829 13.499 45.405 12.9864 43.5694C12.6414 42.3336 13.1874 38.6153 15.2215 34.3652C15.7223 33.5636 16.2509 32.7452 16.8062 31.9172C21.9262 24.2841 26.8444 23.1978 27.1244 23.0127C26.8846 23.2558 23.1759 27.1373 21.3257 36.6417Z" fill="#AF6019"/>
<path d="M57.9706 49.3503C57.8714 49.3503 57.771 49.3265 57.6776 49.276C57.3764 49.1133 57.2632 48.7366 57.4254 48.4344C58.2676 46.8633 58.7313 44.9583 58.804 42.7724C58.8725 40.7121 58.5873 38.7742 58.3668 37.4959C57.6881 33.5621 55.0521 25.43 51.7556 23.5401C51.4585 23.3697 51.3553 22.9902 51.5252 22.6922C51.695 22.3941 52.0733 22.2906 52.3704 22.461C53.2977 22.9927 54.211 23.926 55.0854 25.2352C55.8197 26.3345 56.5292 27.699 57.1947 29.2911C58.4692 32.3396 59.2803 35.5025 59.5876 37.2843C59.8175 38.6168 60.1145 40.6395 60.0424 42.8141C59.9634 45.1931 59.4499 47.282 58.5168 49.0233C58.405 49.2318 58.1914 49.3506 57.9706 49.3506V49.3503Z" fill="#26190D"/>
<path d="M22.6402 51.1845C22.4715 51.1845 22.3032 51.1157 22.181 50.9801C21.3919 50.1059 20.8297 49.1234 20.4627 47.976C20.0098 46.561 19.8614 44.9385 19.996 42.87C20.1298 40.8128 20.5428 38.507 20.9291 36.5227C21.3715 34.2497 21.9574 32.1061 22.67 30.1519C23.2424 28.5822 23.8982 27.1296 24.6187 25.8339C25.8621 23.5985 26.8728 22.597 26.9152 22.5556C27.16 22.3158 27.5523 22.3208 27.7913 22.5663C28.0303 22.8119 28.0253 23.2055 27.7806 23.4452C27.7723 23.4535 26.8266 24.3998 25.6652 26.5034C24.5917 28.4479 23.1094 31.8058 22.1449 36.761C21.7661 38.7069 21.3613 40.9639 21.2322 42.9512C21.11 44.8327 21.244 46.3522 21.6424 47.5962C21.9544 48.5715 22.431 49.4054 23.0992 50.1456C23.3288 50.4 23.3095 50.7931 23.056 51.0234C22.9373 51.1311 22.7886 51.1842 22.6402 51.1842V51.1845Z" fill="#26190D"/>
<path d="M42.5868 56.1632C40.9282 56.1632 39.1334 56.0831 37.2669 55.9235C34.2793 55.668 31.2527 55.215 28.7442 54.6477C28.5336 54.5999 28.3273 54.5518 28.131 54.5043C26.7591 54.1726 25.5215 53.6583 24.4527 52.9758C23.5727 52.4137 22.8021 51.735 22.1622 50.9589C21.3387 49.9601 20.9084 49.0138 20.7022 48.4473C20.2614 48.4874 19.8363 48.5075 19.428 48.5075C17.4588 48.5075 15.8732 48.0418 14.7 47.1157C13.3705 46.0661 12.865 44.6845 12.6007 43.7365C12.2626 42.5259 12.6458 39.9842 13.5767 37.2611C14.4115 34.8188 16.0519 31.1466 19.1248 27.5222C21.951 24.1889 25.128 21.6146 28.5671 19.8712C32.1676 18.0457 36.0789 17.1201 40.1923 17.1201C44.3056 17.1201 48.0537 18.0181 51.5164 19.7891C54.0998 21.1102 56.4792 22.9092 58.589 25.1355C61.6457 28.361 64.2167 32.8218 65.4089 35.8115C66.1242 37.6052 66.919 39.6903 67.3028 41.7418C67.5253 42.9317 67.5768 43.9782 67.4551 44.853C67.304 45.9413 66.8838 46.8061 66.2068 47.4237C63.992 49.4433 59.6953 49.432 58.3352 49.3729C56.7212 52.3109 53.1632 54.683 48.9311 55.6141C48.0404 55.81 46.9942 55.9558 45.821 56.047C44.8235 56.1246 43.7379 56.1632 42.5868 56.1632ZM21.624 47.0906L21.7459 47.6405C21.7481 47.6502 22.0336 48.8528 23.1171 50.1667C24.3786 51.6972 26.1633 52.7501 28.4215 53.2959C28.612 53.342 28.8122 53.389 29.0168 53.4351C31.4718 53.9903 34.4393 54.4342 37.3721 54.685C40.4681 54.9496 43.3569 54.9921 45.7252 54.8076C46.8414 54.7206 47.8309 54.5836 48.6657 54.3999C50.6797 53.9569 52.5665 53.1548 54.1221 52.0806C55.6293 51.0401 56.7672 49.7872 57.4131 48.4578L57.4159 48.452L57.6034 48.0758L58.0219 48.1092C58.0348 48.1103 59.3498 48.215 60.9293 48.0556C62.9466 47.8521 64.4832 47.3154 65.3734 46.5036C66.2574 45.6971 66.497 44.1721 66.0854 41.9707C65.7222 40.0298 64.9521 38.0121 64.2586 36.2731C63.1105 33.3936 60.6344 29.0977 57.6912 25.9917C55.6786 23.8677 53.4115 22.1535 50.9537 20.8965C47.6668 19.2154 44.046 18.3631 40.1923 18.3631C36.3385 18.3631 32.5514 19.2436 29.1258 20.9804C25.8345 22.649 22.7872 25.1208 20.0684 28.3276C17.121 31.8037 15.5486 35.3237 14.7485 37.6643C13.716 40.6844 13.612 42.7499 13.7937 43.4015C14.0115 44.1818 14.4217 45.3143 15.4663 46.1387C16.6926 47.1066 18.5477 47.4532 20.9805 47.1687C21.0061 47.1657 21.0309 47.1627 21.0562 47.1596L21.6242 47.0906H21.624Z" fill="#26190D"/>
</g>
<defs>
<clipPath id="clip0_1897_30574">
<rect width="55.04" height="45.76" fill="white" transform="translate(12.48 17.1201)"/>
</clipPath>
</defs>
</svg>
