<svg width="80" height="80" viewBox="0 0 80 80" fill="none" xmlns="http://www.w3.org/2000/svg">
<rect width="80" height="80" rx="40" fill="#F4D4DC"/>
<g clip-path="url(#clip0_1897_30135)">
<path d="M31.8799 56.189C31.8799 56.189 33.0003 59.9218 39.5298 59.9218C46.0593 59.9218 46.6948 58.3775 47.8041 56.8873L31.8799 56.189Z" fill="#E24B17"/>
<path d="M39.53 60.5413C37.9711 60.5413 36.5738 60.3337 35.3765 59.9242C34.3964 59.5891 33.5463 59.1184 32.8498 58.5255C31.6281 57.4857 31.2951 56.4108 31.2815 56.3657L31.0312 55.5312L49.0032 56.3194L48.3065 57.2552C48.2335 57.3529 48.1602 57.4545 48.0895 57.5529C47.5787 58.2611 46.9999 59.0642 45.7204 59.6417C44.3605 60.2555 42.3935 60.5411 39.53 60.5411V60.5413ZM32.9672 56.857C33.1528 57.099 33.4014 57.3706 33.7294 57.6407C34.309 58.1179 35.0216 58.4994 35.8474 58.7742C36.8995 59.1245 38.1385 59.3021 39.5303 59.3021C42.1726 59.3021 44.0284 59.0443 45.2038 58.5137C45.8603 58.2174 46.2626 57.8599 46.6022 57.4545L32.9672 56.8567V56.857Z" fill="#26190D"/>
<path d="M39.991 63.8607C41.1795 63.8607 42.143 62.9044 42.143 61.7248C42.143 60.5451 41.1795 59.5889 39.991 59.5889C38.8024 59.5889 37.8389 60.5451 37.8389 61.7248C37.8389 62.9044 38.8024 63.8607 39.991 63.8607Z" fill="#FFC217"/>
<path d="M39.9908 64.4803C38.4597 64.4803 37.2144 63.2441 37.2144 61.7247C37.2144 60.2054 38.4599 58.9692 39.9908 58.9692C41.5216 58.9692 42.7672 60.2054 42.7672 61.7247C42.7672 63.2441 41.5216 64.4803 39.9908 64.4803ZM39.9908 60.2082C39.1483 60.2082 38.463 60.8884 38.463 61.7245C38.463 62.5605 39.1483 63.2407 39.9908 63.2407C40.8332 63.2407 41.5185 62.5605 41.5185 61.7245C41.5185 60.8884 40.8332 60.2082 39.9908 60.2082Z" fill="#26190D"/>
<path d="M39.991 63.8604C40.3827 63.8604 40.7002 63.5453 40.7002 63.1565C40.7002 62.7678 40.3827 62.4526 39.991 62.4526C39.5993 62.4526 39.2817 62.7678 39.2817 63.1565C39.2817 63.5453 39.5993 63.8604 39.991 63.8604Z" fill="#26190D"/>
<path d="M42.1433 61.1733H37.8389V62.2749H42.1433V61.1733Z" fill="#26190D"/>
<path d="M40.5459 61.7241H39.436V63.0787H40.5459V61.7241Z" fill="#26190D"/>
<path d="M46.627 21.4469C46.627 21.4469 47.7141 20.2696 50.6795 18.9946C53.6446 17.7193 58.6854 15.6484 59.6741 16.2424C60.6624 16.8364 60.8603 20.9509 60.4649 24.2399C60.0695 27.5288 58.4881 30.3735 56.709 31.5508C56.709 31.5508 58.5869 35.2784 59.5753 42.2432C60.5636 49.208 58.4881 53.6224 52.2611 55.5843C46.034 57.5461 42.7723 57.4481 39.6094 57.252C36.4465 57.0559 29.5277 57.154 24.5856 54.1129C19.6435 51.0718 19.5447 45.7748 20.4343 41.9488C21.3239 38.1229 23.2018 32.2374 23.2018 32.2374C23.2018 32.2374 20.8297 30.2755 19.9401 26.94C19.0505 23.6048 19.2481 17.5227 19.9401 16.6398C20.6321 15.7569 23.2018 16.4437 26.7601 17.7187C30.3185 18.9941 33.5466 21.0539 33.5466 21.0539C33.5466 21.0539 36.7556 20.2201 39.8319 20.404C42.9083 20.588 46.6272 21.4464 46.6272 21.4464L46.627 21.4469Z" fill="#FFF6E1"/>
<path d="M42.2521 57.9712C41.3151 57.9712 40.4421 57.925 39.57 57.8707C39.1816 57.8465 38.7218 57.8264 38.2348 57.8052C34.6765 57.6488 28.7208 57.3871 24.2563 54.6399C21.8847 53.1806 20.3569 51.105 19.716 48.471C19.1077 45.9718 19.4399 43.4691 19.8256 41.8099C20.5808 38.562 22.0584 33.7932 22.4871 32.4281C21.7795 31.7468 20.0786 29.883 19.3361 27.0991C18.9235 25.5514 18.694 23.2203 18.7226 20.8633C18.7354 19.8135 18.7981 18.8474 18.9043 18.0698C19.07 16.857 19.2934 16.456 19.4471 16.2597C20.0908 15.4384 21.4357 15.5822 22.3911 15.7618C23.4746 15.9655 24.8872 16.3894 26.9719 17.1365C30.053 18.2408 32.8463 19.8939 33.6543 20.3902C34.5022 20.1922 37.2096 19.6271 39.8689 19.786C42.4655 19.9413 45.455 20.5557 46.4397 20.7702C46.9408 20.3326 48.1661 19.3999 50.4309 18.4258C52.601 17.4926 54.3288 16.8077 55.7134 16.3318C58.6929 15.3079 59.5509 15.444 59.9971 15.7122C60.3778 15.941 60.663 16.3976 60.8697 17.1081C61.0279 17.6523 61.1425 18.3496 61.2102 19.1804C61.3364 20.727 61.2904 22.5977 61.0842 24.3133C60.8855 25.9659 60.3927 27.5775 59.6588 28.9739C59.0439 30.1438 58.2995 31.0933 57.4857 31.7504C57.6849 32.2081 58.0023 32.9921 58.3644 34.0931C58.9133 35.7614 59.676 38.5147 60.193 42.1572C60.7199 45.8699 60.3872 48.7882 59.1763 51.0783C58.5462 52.2696 57.6621 53.3015 56.5481 54.1447C55.4382 54.9852 54.0591 55.6685 52.4495 56.1754C49.5913 57.076 47.1048 57.622 44.8476 57.8446C43.9083 57.9371 43.0565 57.9712 42.2521 57.9712ZM21.1092 16.8627C20.5783 16.8627 20.4499 16.9985 20.4324 17.0208C20.2939 17.2161 19.9965 18.43 19.9704 20.9252C19.9468 23.1594 20.161 25.3488 20.5431 26.7819C20.7798 27.6697 21.2901 29.0238 22.3761 30.4327C23.0332 31.285 23.5961 31.7575 23.6017 31.7622L23.9216 32.0288L23.7965 32.4245C23.7779 32.4832 21.9158 38.331 21.042 42.0884C20.6866 43.6176 20.3783 45.9157 20.9293 48.1799C21.4907 50.486 22.8312 52.3049 24.9139 53.5865C29.1015 56.1633 34.8532 56.4161 38.2898 56.567C38.7823 56.5888 39.2476 56.6092 39.6474 56.634C41.2152 56.7312 42.7832 56.8028 44.7235 56.6114C46.8934 56.3974 49.2969 55.8684 52.071 54.9943C54.9967 54.0726 56.959 52.6031 58.07 50.5025C59.1552 48.4503 59.4452 45.7771 58.956 42.3301C58.4543 38.7958 57.7179 36.1287 57.1885 34.5136C56.6147 32.7632 56.1538 31.8371 56.1491 31.8278L55.9041 31.3389L56.3616 31.0355C57.1574 30.5089 57.9352 29.5732 58.5512 28.4009C59.216 27.136 59.663 25.6718 59.8439 24.1668C60.0356 22.5715 60.0822 20.7606 59.9685 19.3222C59.825 17.5085 59.484 16.8776 59.3555 16.7768C59.2656 16.7474 58.6469 16.6251 55.9978 17.5457C54.6635 18.0095 53.0047 18.6693 50.9267 19.5629C48.1939 20.7382 47.1259 21.8244 47.0851 21.8668L46.8398 22.1383L46.4847 22.0505C46.448 22.0419 42.7798 21.2017 39.7931 21.0233C36.8569 20.8476 33.7345 21.6462 33.7034 21.6542L33.4384 21.7228L33.2078 21.5757C33.1762 21.5556 29.9939 19.5373 26.5471 18.3019C24.5273 17.5782 23.1738 17.1701 22.158 16.979C21.6985 16.8925 21.3589 16.8625 21.1086 16.8625L21.1092 16.8627Z" fill="#26190D"/>
<path d="M23.2017 32.8573C23.1421 32.8573 23.0816 32.8487 23.0217 32.8308C22.6915 32.7322 22.5045 32.3866 22.6038 32.0589C23.3832 29.4885 24.5775 27.5875 25.4421 26.4455C26.3888 25.1947 27.1552 24.5541 27.1874 24.5274C27.4521 24.3079 27.8458 24.3432 28.0667 24.6059C28.2876 24.8683 28.2523 25.2583 27.9887 25.478C27.9818 25.4838 27.2784 26.0762 26.4138 27.2253C25.6188 28.2817 24.52 30.0398 23.7997 32.4164C23.7184 32.6846 23.4703 32.8575 23.202 32.8575L23.2017 32.8573Z" fill="#26190D"/>
<path d="M56.7086 32.1707C56.4778 32.1707 56.2558 32.043 56.1473 31.8232C54.1087 27.688 51.4028 25.1366 51.3758 25.1112C51.1247 24.8769 51.1125 24.4847 51.3484 24.2355C51.5842 23.9863 51.9791 23.9736 52.2305 24.2077C52.3476 24.3167 55.1245 26.9288 57.2691 31.2785C57.4206 31.5858 57.2924 31.957 56.9828 32.1074C56.8945 32.1504 56.801 32.1705 56.7089 32.1705L56.7086 32.1707Z" fill="#26190D"/>
<path d="M20.0045 45.8682C19.7245 45.8682 19.4839 45.6586 19.4534 45.3763C19.4207 45.074 19.641 44.8024 19.9459 44.7699L24.7917 44.2528C25.0964 44.22 25.37 44.4392 25.4027 44.7416C25.4355 45.0439 25.2152 45.3155 24.9102 45.348L20.0644 45.8651C20.0442 45.8673 20.0242 45.8684 20.0045 45.8684V45.8682Z" fill="#26190D"/>
<path d="M22.4283 52.8946C22.2149 52.8946 22.0115 52.7718 21.9203 52.5658C21.7968 52.2874 21.9239 51.9625 22.2044 51.8396L26.3324 50.0348C26.6129 49.9119 26.9403 50.0383 27.0641 50.3168C27.1878 50.5952 27.0604 50.9201 26.7799 51.0429L22.6519 52.8478C22.5793 52.8798 22.5032 52.8946 22.4286 52.8946H22.4283Z" fill="#26190D"/>
<path d="M59.8081 46.1628C59.7762 46.1628 59.7437 46.1601 59.711 46.1543L55.0738 45.3427C54.772 45.2899 54.5705 45.0043 54.6238 44.7047C54.6771 44.405 54.9648 44.2051 55.2667 44.258L59.9038 45.0696C60.2057 45.1224 60.4072 45.408 60.3539 45.7076C60.3064 45.9747 60.0722 46.1628 59.8081 46.1628Z" fill="#26190D"/>
<path d="M57.7672 52.6519C57.7039 52.6519 57.6395 52.6412 57.5766 52.6183L53.2746 51.0564C52.9869 50.952 52.8387 50.6356 52.9441 50.35C53.0493 50.0644 53.3681 49.9174 53.6559 50.022L57.9578 51.584C58.2455 51.6884 58.3937 52.0048 58.2883 52.2904C58.2059 52.5137 57.9933 52.6519 57.7672 52.6519Z" fill="#26190D"/>
<path d="M34.3005 45.9487C35.729 45.9487 36.8871 44.7994 36.8871 43.3816C36.8871 41.9638 35.729 40.8145 34.3005 40.8145C32.8719 40.8145 31.7139 41.9638 31.7139 43.3816C31.7139 44.7994 32.8719 45.9487 34.3005 45.9487Z" fill="#3B86F2"/>
<path d="M46.8932 45.9487C48.3218 45.9487 49.4799 44.7994 49.4799 43.3816C49.4799 41.9638 48.3218 40.8145 46.8932 40.8145C45.4647 40.8145 44.3066 41.9638 44.3066 43.3816C44.3066 44.7994 45.4647 45.9487 46.8932 45.9487Z" fill="#3B86F2"/>
<path d="M39.8421 47.5428C40.259 47.5428 40.5969 47.2917 40.5969 46.9819C40.5969 46.672 40.259 46.4209 39.8421 46.4209C39.4253 46.4209 39.0874 46.672 39.0874 46.9819C39.0874 47.2917 39.4253 47.5428 39.8421 47.5428Z" fill="#26190D"/>
<path d="M41.7505 48.9922L42.9139 51.011L43.9558 48.9922" fill="white"/>
<path d="M42.9137 51.5618C42.7151 51.5618 42.5311 51.4564 42.4321 51.2845L41.2686 49.2654C41.1165 49.0013 41.2087 48.6648 41.4748 48.5139C41.7409 48.363 42.0799 48.4544 42.232 48.7185L42.8868 49.8547L43.4615 48.7408C43.601 48.4701 43.9357 48.363 44.2084 48.5015C44.4812 48.6403 44.5891 48.9721 44.4496 49.2428L43.4076 51.262C43.3147 51.4418 43.1302 51.5569 42.9265 51.5616C42.9223 51.5616 42.9179 51.5616 42.9137 51.5616V51.5618Z" fill="#26190D"/>
<path d="M42.8653 49.7565C42.2371 49.7565 41.7859 49.5926 41.3478 49.4334C40.9013 49.2712 40.4396 49.1035 39.6932 49.087C38.9795 49.071 38.6932 49.2128 38.3902 49.3627C38.0339 49.5386 37.6305 49.7383 36.825 49.6477C36.1918 49.5766 35.6171 49.3621 35.1635 49.0275C34.8116 48.7678 34.6454 48.5216 34.6157 48.4748L35.5541 47.8866C35.5541 47.8866 35.5525 47.8838 35.5489 47.8786C35.5647 47.9015 35.9459 48.4404 36.9496 48.553C37.429 48.6067 37.6047 48.52 37.8952 48.3765C38.2673 48.1928 38.7298 47.964 39.7176 47.9857C40.648 48.0064 41.2473 48.2239 41.729 48.3988C42.1672 48.558 42.5135 48.6836 43.0412 48.6489C43.9327 48.5899 44.135 48.1611 44.1605 48.0964C44.2041 47.8144 44.4602 47.609 44.7516 47.6316C45.0571 47.655 45.2857 47.9196 45.2624 48.2231C45.2271 48.6767 44.6561 49.6463 43.115 49.7482C43.0284 49.754 42.9452 49.7565 42.8647 49.7565H42.8653ZM44.1561 48.138C44.1561 48.138 44.1561 48.1383 44.1561 48.1386C44.1561 48.1386 44.1561 48.1383 44.1561 48.138Z" fill="#26190D"/>
<path d="M36.5642 36.4198C36.5389 36.4198 36.5134 36.4185 36.4876 36.4151L31.6379 35.8267C31.2958 35.7851 31.0521 35.4761 31.094 35.1363C31.1359 34.7967 31.4473 34.5546 31.7894 34.5965L36.6391 35.185C36.9812 35.2266 37.2248 35.5356 37.1829 35.8754C37.1444 36.1896 36.8749 36.4198 36.5639 36.4198H36.5642Z" fill="#26190D"/>
<path d="M44.468 36.4198C44.1569 36.4198 43.8878 36.1896 43.8489 35.8753C43.807 35.5358 44.0506 35.2265 44.3928 35.1849L49.2425 34.5964C49.5846 34.5549 49.8962 34.7967 49.9378 35.1362C49.9797 35.4758 49.7361 35.785 49.394 35.8266L44.5443 36.4151C44.5185 36.4181 44.4929 36.4198 44.4677 36.4198H44.468Z" fill="#26190D"/>
</g>
<defs>
<clipPath id="clip0_1897_30135">
<rect width="42.56" height="48.96" fill="white" transform="translate(18.7202 15.52)"/>
</clipPath>
</defs>
</svg>
