<svg width="34" height="34" viewBox="0 0 34 34" fill="none" xmlns="http://www.w3.org/2000/svg">
<path d="M28.3772 29.4525C29.0289 30.1041 30.0347 29.0983 29.3831 28.4608L24.0706 23.1341C25.9346 21.0725 26.9647 18.391 26.9606 15.6116C26.9606 9.39246 21.9031 4.33496 15.6839 4.33496C9.46473 4.33496 4.40723 9.39246 4.40723 15.6116C4.40723 21.8308 9.46473 26.8883 15.6839 26.8883C18.4889 26.8883 21.0814 25.8541 23.0647 24.14L28.3772 29.4525ZM5.82248 15.6116C5.82248 10.1716 10.2566 5.75163 15.6825 5.75163C21.1225 5.75163 25.5425 10.1716 25.5425 15.6116C25.5425 21.0516 21.1225 25.4716 15.6825 25.4716C10.2566 25.4716 5.82248 21.0516 5.82248 15.6116Z" fill="#6C4E39"/>
</svg>
