<svg width="28" height="28" viewBox="0 0 28 28" fill="none" xmlns="http://www.w3.org/2000/svg">
<path d="M22.7501 11.6666C22.7501 11.5119 22.6886 11.3635 22.5792 11.2541C22.4698 11.1447 22.3215 11.0832 22.1668 11.0832C22.012 11.0832 21.8637 11.1447 21.7543 11.2541C21.6449 11.3635 21.5834 11.5119 21.5834 11.6666H22.7501ZM6.41675 11.6666C6.41675 11.5119 6.35529 11.3635 6.2459 11.2541C6.1365 11.1447 5.98813 11.0832 5.83342 11.0832C5.67871 11.0832 5.53034 11.1447 5.42094 11.2541C5.31154 11.3635 5.25009 11.5119 5.25009 11.6666H6.41675ZM24.0871 14.4129C24.1966 14.5224 24.3452 14.584 24.5001 14.584C24.655 14.584 24.8036 14.5224 24.9131 14.4129C25.0226 14.3034 25.0842 14.1548 25.0842 13.9999C25.0842 13.845 25.0226 13.6964 24.9131 13.5869L24.0871 14.4129ZM14.0001 3.4999L14.4131 3.0869C14.3589 3.03258 14.2945 2.98948 14.2237 2.96007C14.1528 2.93066 14.0768 2.91553 14.0001 2.91553C13.9234 2.91553 13.8474 2.93066 13.7765 2.96007C13.7056 2.98948 13.6413 3.03258 13.5871 3.0869L14.0001 3.4999ZM3.08709 13.5869C2.97755 13.6964 2.91602 13.845 2.91602 13.9999C2.91602 14.1548 2.97755 14.3034 3.08709 14.4129C3.19662 14.5224 3.34518 14.584 3.50009 14.584C3.65499 14.584 3.80355 14.5224 3.91309 14.4129L3.08709 13.5869ZM8.16675 25.0832H19.8334V23.9166H8.16675V25.0832ZM22.7501 22.1666V11.6666H21.5834V22.1666H22.7501ZM6.41675 22.1666V11.6666H5.25009V22.1666H6.41675ZM24.9131 13.5869L14.4131 3.0869L13.5871 3.9129L24.0871 14.4129L24.9131 13.5869ZM13.5871 3.0869L3.08709 13.5869L3.91309 14.4129L14.4131 3.9129L13.5871 3.0869ZM19.8334 25.0832C20.607 25.0832 21.3488 24.7759 21.8958 24.229C22.4428 23.682 22.7501 22.9401 22.7501 22.1666H21.5834C21.5834 22.6307 21.399 23.0758 21.0709 23.404C20.7427 23.7322 20.2975 23.9166 19.8334 23.9166V25.0832ZM8.16675 23.9166C7.70262 23.9166 7.2575 23.7322 6.92932 23.404C6.60113 23.0758 6.41675 22.6307 6.41675 22.1666H5.25009C5.25009 22.9401 5.55738 23.682 6.10436 24.229C6.65134 24.7759 7.3932 25.0832 8.16675 25.0832V23.9166Z" fill="#6C4E39"/>
</svg>
