<svg width="28" height="28" viewBox="0 0 28 28" fill="none" xmlns="http://www.w3.org/2000/svg">
<path d="M23.5783 5.33866C23.3132 5.1305 23.0041 4.98553 22.6746 4.91478C22.3451 4.84402 22.0037 4.84934 21.6766 4.93032L17.5583 5.96866C17.3889 6.00323 17.2143 6.00323 17.0449 5.96866L11.2349 4.52199C10.8818 4.44026 10.5147 4.44026 10.1616 4.52199L5.24992 5.75866C4.76979 5.87636 4.34314 6.15198 4.03847 6.54129C3.7338 6.93059 3.56878 7.41098 3.56992 7.90532V20.9137C3.56674 21.2514 3.64201 21.5852 3.7898 21.8889C3.93759 22.1926 4.15386 22.4578 4.42159 22.6637C4.68666 22.8718 4.99572 23.0168 5.32524 23.0875C5.65477 23.1583 5.99609 23.153 6.32325 23.072L10.4416 22.0337C10.611 21.9991 10.7856 21.9991 10.9549 22.0337L16.7649 23.4803C16.9414 23.5178 17.1212 23.5373 17.3016 23.5387C17.4819 23.5365 17.6617 23.517 17.8383 23.4803L22.7499 22.2437C23.2301 22.126 23.6567 21.8503 23.9614 21.461C24.266 21.0717 24.4311 20.5913 24.4299 20.097V7.08866C24.4331 6.75094 24.3578 6.4171 24.21 6.11342C24.0623 5.80975 23.846 5.54453 23.5783 5.33866ZM10.1149 20.9137L6.04325 21.9287C5.88845 21.9701 5.72616 21.9751 5.56909 21.9434C5.41203 21.9116 5.26444 21.8439 5.13788 21.7456C5.01133 21.6473 4.90925 21.5211 4.83963 21.3767C4.77001 21.2324 4.73474 21.0739 4.73659 20.9137V7.90532C4.73729 7.67205 4.81565 7.44565 4.9593 7.26186C5.10296 7.07807 5.30372 6.94734 5.52992 6.89032L10.1149 5.73532V20.9137ZM16.7183 22.267L11.2816 20.9137V5.73532L16.7183 7.08866V22.267ZM23.2633 20.097C23.2626 20.3303 23.1842 20.5567 23.0405 20.7405C22.8969 20.9242 22.6961 21.055 22.4699 21.112L17.8849 22.267V7.08866L21.9566 6.07366C22.1124 6.03288 22.2756 6.02851 22.4334 6.06088C22.5912 6.09325 22.7394 6.16149 22.8666 6.26032C22.9918 6.35873 23.0927 6.48461 23.1615 6.62825C23.2303 6.77188 23.2651 6.92941 23.2633 7.08866V20.097Z" fill="#6C4E39"/>
</svg>
