<svg width="28" height="28" viewBox="0 0 28 28" fill="none" xmlns="http://www.w3.org/2000/svg">
<path d="M9.85156 20.4277V5.37891L19.434 6.39128L18.2531 22.9918L9.85156 20.4277Z" fill="#FFE0F0"/>
<path fill-rule="evenodd" clip-rule="evenodd" d="M10.5002 5.89592C10.4243 7.81159 10.5002 19.8644 10.5002 19.8644C10.6884 19.8644 10.8727 19.8944 11.0532 19.9543L17.5002 22.1033V8.13475C17.3122 8.1347 17.1255 8.10437 16.9472 8.04492L10.5002 5.89592ZM9.94716 3.62092C10.3061 3.50136 10.6942 3.50136 11.0532 3.62092L17.5002 5.76992L23.6707 3.71309C23.8986 3.63712 24.1414 3.61641 24.3789 3.65264C24.6164 3.68888 24.8419 3.78103 25.0369 3.9215C25.2318 4.06198 25.3906 4.24676 25.5001 4.46062C25.6096 4.67449 25.6668 4.91131 25.6668 5.15159V20.5796C25.6668 20.9469 25.5512 21.3049 25.3363 21.6029C25.1215 21.9009 24.8183 22.1237 24.4698 22.2398L18.0532 24.3783C17.6938 24.4984 17.3065 24.4984 16.9472 24.3783L10.5002 22.2293L4.32966 24.2861C4.10171 24.3621 3.85897 24.3828 3.62144 24.3465C3.38391 24.3103 3.15839 24.2181 2.96346 24.0777C2.76852 23.9372 2.60975 23.7524 2.50023 23.5386C2.3907 23.3247 2.33356 23.0879 2.3335 22.8476V7.41959C2.33353 7.05225 2.44916 6.69424 2.66399 6.39627C2.87883 6.09831 3.18198 5.8755 3.5305 5.75942L9.94716 3.62092Z" fill="#F37BBB"/>
</svg>
