<svg width="28" height="28" viewBox="0 0 28 28" fill="none" xmlns="http://www.w3.org/2000/svg">
<circle cx="14" cy="14" r="12.2871" fill="#F37BBB"/>
<path d="M13.9999 12.7018C11.9445 12.7018 10.2079 14.4966 9.64714 16.8018C9.40053 17.8155 9.77239 18.8915 10.6852 19.3971C11.4088 19.7978 12.4851 20.1652 13.9999 20.1652C15.5146 20.1652 16.5913 19.7978 17.3149 19.3971C18.2277 18.8915 18.5992 17.8155 18.3526 16.8018C17.7919 14.4963 16.0552 12.7018 13.9999 12.7018ZM7.18555 12.1969C7.18555 13.0932 7.76639 13.9998 8.48351 13.9998C9.20064 13.9998 9.78148 13.0932 9.78148 12.1969C9.78148 11.3007 9.20064 10.7549 8.48351 10.7549C7.76639 10.7549 7.18555 11.301 7.18555 12.1969ZM20.8142 12.1969C20.8142 13.0932 20.2334 13.9998 19.5162 13.9998C18.7991 13.9998 18.2183 13.0932 18.2183 12.1969C18.2183 11.3007 18.7991 10.7549 19.5162 10.7549C20.2334 10.7549 20.8142 11.301 20.8142 12.1969ZM10.5927 9.27651C10.5927 10.1728 11.1735 11.0794 11.8907 11.0794C12.6078 11.0794 13.1886 10.1728 13.1886 9.27651C13.1886 8.38027 12.6078 7.83447 11.8907 7.83447C11.1735 7.83447 10.5927 8.38059 10.5927 9.27651ZM17.407 9.27651C17.407 10.1728 16.8262 11.0794 16.1091 11.0794C15.3919 11.0794 14.8111 10.1728 14.8111 9.27651C14.8111 8.38027 15.3919 7.83447 16.1091 7.83447C16.8262 7.83447 17.407 8.38059 17.407 9.27651Z" fill="#FFE0F0"/>
</svg>
