<svg width="15" height="19" viewBox="0 0 15 19" fill="none" xmlns="http://www.w3.org/2000/svg">
<path d="M7.10449 0.991324C6.48362 0.991324 3.62171 1.2449 3.10547 1.58984C2.58923 1.93478 1.34307 3.51623 1.10547 4.08984C0.867871 4.66346 0.870198 7.3175 0.991325 7.92645C1.11245 8.53539 0.166445 9.15082 0.605469 9.58984C1.04449 10.0289 1.62264 13.2987 2.23158 13.4199C2.84053 13.541 6.81506 17.8274 7.38867 17.5898C7.96229 17.3522 11.7808 13.1061 12.1257 12.5898C12.4707 12.0736 13.6055 5.74099 13.6055 5.12012C13.6055 4.28755 10.3033 1.58004 9.71464 0.991324C9.12592 0.402611 7.93706 0.991324 7.10449 0.991324ZM7.10449 9.25236C6.67968 9.25236 6.26442 9.12639 5.9112 8.89038C5.55798 8.65437 5.28269 8.31892 5.12012 7.92645C4.95755 7.53397 4.91502 7.10211 4.99789 6.68546C5.08077 6.26882 5.28533 5.8861 5.58572 5.58572C5.8861 5.28533 6.26882 5.08077 6.68546 4.99789C7.10211 4.91502 7.53397 4.95755 7.92645 5.12012C8.31892 5.28269 8.65437 5.55798 8.89038 5.9112C9.12639 6.26441 9.25236 6.67968 9.25236 7.10449C9.25236 7.67414 9.02607 8.22046 8.62327 8.62326C8.22046 9.02607 7.67414 9.25236 7.10449 9.25236ZM7.10449 0C5.22093 0.00218637 3.41515 0.751395 2.08327 2.08327C0.751395 3.41515 0.00218637 5.22093 0 7.10449C0 9.65798 1.18463 12.3701 3.42585 14.9475C4.43742 16.1166 5.57591 17.1694 6.82031 18.0867C6.90361 18.145 7.00282 18.1763 7.10449 18.1763C7.20616 18.1763 7.30537 18.145 7.38867 18.0867C8.63308 17.1694 9.77157 16.1166 10.7831 14.9475C13.0244 12.3701 14.209 9.66046 14.209 7.10449C14.2068 5.22093 13.4576 3.41515 12.1257 2.08327C10.7938 0.751395 8.98805 0.00218637 7.10449 0ZM7.10449 17.0599C5.86534 16.1032 0.991325 12.0297 0.991325 7.10449C0.991325 5.48318 1.63539 3.92827 2.78183 2.78183C3.92827 1.63539 5.48318 0.991324 7.10449 0.991324C8.72581 0.991324 10.2807 1.63539 11.4272 2.78183C12.5736 3.92827 13.2177 5.48318 13.2177 7.10449C13.2177 12.0297 8.34365 16.1032 7.10449 17.0599Z" fill="#F37BBB"/>
</svg>
