<svg width="18" height="18" viewBox="0 0 18 18" fill="none" xmlns="http://www.w3.org/2000/svg">
<path d="M6.74452 3.11747L6.21322 3.27752C5.74016 3.42019 5.31769 3.69502 4.99554 4.06967C4.6734 4.44433 4.46498 4.90321 4.39483 5.39232C4.17475 6.92469 4.66677 8.71641 5.8531 10.7712C7.03647 12.8208 8.33913 14.1412 9.77296 14.7192C10.2337 14.9049 10.738 14.9543 11.226 14.8617C11.714 14.7691 12.1651 14.5383 12.5257 14.1968L12.9274 13.8159C13.1882 13.5691 13.3505 13.236 13.3841 12.8785C13.4178 12.521 13.3205 12.1635 13.1104 11.8723L12.1056 10.4792C11.9698 10.2912 11.7785 10.1503 11.5585 10.0764C11.3386 10.0026 11.1011 9.99934 10.8793 10.0672L9.35948 10.5318L9.32021 10.5393C9.15274 10.5637 8.76595 10.2014 8.2843 9.36701C7.78042 8.49412 7.67669 7.98357 7.81525 7.85167L8.58811 7.13069C8.87045 6.86705 9.06331 6.52174 9.1397 6.14308C9.2161 5.76442 9.17221 5.37134 9.01418 5.01886L8.52364 3.92886C8.37614 3.60085 8.11439 3.33768 7.78719 3.18839C7.45999 3.03911 7.08893 3.0139 6.74452 3.11747ZM7.84934 4.23266L8.33839 5.32266C8.4333 5.53408 8.45975 5.76988 8.41405 5.99707C8.36835 6.22427 8.25277 6.43149 8.08349 6.58976L7.30841 7.31149C6.81195 7.78128 6.97645 8.58304 7.64334 9.7375C8.27022 10.8238 8.84227 11.3603 9.45729 11.2669L9.54918 11.2476L11.0964 10.7756C11.1703 10.7529 11.2495 10.7539 11.3229 10.7785C11.3962 10.8031 11.4601 10.85 11.5054 10.9127L12.5102 12.3058C12.6154 12.4514 12.6642 12.6302 12.6474 12.809C12.6306 12.9878 12.5495 13.1545 12.419 13.278L12.0167 13.6588C11.7591 13.9026 11.4369 14.0674 11.0884 14.1334C10.7399 14.1995 10.3798 14.1641 10.0508 14.0316C8.79262 13.5247 7.60333 12.3191 6.49554 10.4007C5.38479 8.47781 4.93501 6.84244 5.12841 5.49754C5.17847 5.14811 5.32733 4.82026 5.55746 4.55258C5.78759 4.28491 6.0894 4.08856 6.42737 3.98665L6.95866 3.8266C7.13091 3.77484 7.31611 3.7875 7.47972 3.86221C7.64332 3.93692 7.77417 4.06859 7.84786 4.23266" fill="#6C4E39"/>
</svg>
