<svg width="18" height="18" viewBox="0 0 18 18" fill="none" xmlns="http://www.w3.org/2000/svg">
<path d="M9 5.22674C8.54247 5.22674 8.09522 5.36242 7.7148 5.6166C7.33438 5.87079 7.03788 6.23208 6.86279 6.65478C6.68771 7.07748 6.6419 7.5426 6.73115 7.99134C6.82041 8.44008 7.04073 8.85227 7.36425 9.17579C7.68777 9.49931 8.09996 9.71962 8.5487 9.80888C8.99743 9.89814 9.46256 9.85233 9.88526 9.67724C10.308 9.50216 10.6692 9.20566 10.9234 8.82524C11.1776 8.44482 11.3133 7.99757 11.3133 7.54004C11.3133 6.92652 11.0696 6.33812 10.6357 5.90429C10.2019 5.47047 9.61352 5.22674 9 5.22674ZM9 9.12282C8.68696 9.12282 8.38094 9.02999 8.12065 8.85607C7.86037 8.68215 7.6575 8.43496 7.5377 8.14574C7.4179 7.85653 7.38656 7.53828 7.44763 7.23125C7.5087 6.92422 7.65945 6.6422 7.88081 6.42084C8.10216 6.19949 8.38419 6.04874 8.69121 5.98767C8.99824 5.9266 9.31649 5.95794 9.6057 6.07774C9.89492 6.19754 10.1421 6.40041 10.316 6.66069C10.49 6.92098 10.5828 7.22699 10.5828 7.54004C10.5828 7.95982 10.416 8.3624 10.1192 8.65923C9.82237 8.95606 9.41978 9.12282 9 9.12282ZM9 2.30469C7.61199 2.3063 6.2813 2.8584 5.29983 3.83987C4.31836 4.82134 3.76626 6.15203 3.76465 7.54004C3.76465 9.42172 4.63761 11.4203 6.28918 13.3196C7.03461 14.1811 7.87357 14.957 8.79059 15.6329C8.85197 15.6759 8.92508 15.6989 9 15.6989C9.07492 15.6989 9.14803 15.6759 9.20941 15.6329C10.1264 14.957 10.9654 14.1811 11.7108 13.3196C13.3624 11.4203 14.2354 9.42355 14.2354 7.54004C14.2337 6.15203 13.6816 4.82134 12.7002 3.83987C11.7187 2.8584 10.388 2.3063 9 2.30469ZM9 14.8762C8.08686 14.1713 4.49516 11.1695 4.49516 7.54004C4.49516 6.34528 4.96978 5.19946 5.8146 4.35464C6.65942 3.50982 7.80524 3.0352 9 3.0352C10.1948 3.0352 11.3406 3.50982 12.1854 4.35464C13.0302 5.19946 13.5048 6.34528 13.5048 7.54004C13.5048 11.1695 9.91314 14.1713 9 14.8762Z" fill="#6C4E39"/>
</svg>
