<svg width="24" height="24" viewBox="0 0 24 24" fill="none" xmlns="http://www.w3.org/2000/svg">
<path d="M11.999 6.87545C11.3781 6.87545 10.7712 7.05956 10.255 7.4045C9.73874 7.74944 9.33638 8.23972 9.09879 8.81333C8.86119 9.38694 8.79902 10.0181 8.92015 10.6271C9.04127 11.236 9.34025 11.7954 9.77928 12.2344C10.2183 12.6734 10.7777 12.9724 11.3866 13.0935C11.9955 13.2146 12.6267 13.1525 13.2003 12.9149C13.774 12.6773 14.2642 12.2749 14.6092 11.7587C14.9541 11.2425 15.1382 10.6355 15.1382 10.0146C15.1382 9.18208 14.8075 8.38362 14.2188 7.7949C13.6301 7.20619 12.8316 6.87545 11.999 6.87545ZM11.999 12.1625C11.5742 12.1625 11.1589 12.0365 10.8057 11.8005C10.4525 11.5645 10.1772 11.2291 10.0147 10.8366C9.85208 10.4441 9.80955 10.0123 9.89242 9.59562C9.9753 9.17897 10.1799 8.79626 10.4803 8.49587C10.7806 8.19549 11.1633 7.99092 11.58 7.90805C11.9966 7.82517 12.4285 7.86771 12.821 8.03028C13.2134 8.19284 13.5489 8.46814 13.7849 8.82136C14.0209 9.17457 14.1469 9.58984 14.1469 10.0146C14.1469 10.5843 13.9206 11.1306 13.5178 11.5334C13.115 11.9362 12.5687 12.1625 11.999 12.1625ZM11.999 2.91016C10.1155 2.91234 8.30968 3.66155 6.9778 4.99343C5.64593 6.32531 4.89672 8.13109 4.89453 10.0146C4.89453 12.5681 6.07916 15.2802 8.32038 17.8577C9.33195 19.0267 10.4704 20.0796 11.7148 20.9969C11.7981 21.0552 11.8974 21.0864 11.999 21.0864C12.1007 21.0864 12.1999 21.0552 12.2832 20.9969C13.5276 20.0796 14.6661 19.0267 15.6777 17.8577C17.9189 15.2802 19.1035 12.5706 19.1035 10.0146C19.1013 8.13109 18.3521 6.32531 17.0202 4.99343C15.6884 3.66155 13.8826 2.91234 11.999 2.91016ZM11.999 19.97C10.7599 19.0134 5.88586 14.9399 5.88586 10.0146C5.88586 8.39334 6.52992 6.83843 7.67636 5.69199C8.8228 4.54554 10.3777 3.90148 11.999 3.90148C13.6203 3.90148 15.1752 4.54554 16.3217 5.69199C17.4681 6.83843 18.1122 8.39334 18.1122 10.0146C18.1122 14.9399 13.2382 19.0134 11.999 19.97Z" fill="#F37BBB"/>
</svg>
