<svg width="24" height="24" viewBox="0 0 24 24" fill="none" xmlns="http://www.w3.org/2000/svg">
<path d="M4.00098 11.4698V13.5878C4.00085 14.144 4.11029 14.6948 4.32306 15.2088C4.53583 15.7227 4.84776 16.1897 5.24103 16.583C5.63429 16.9764 6.1012 17.2884 6.61508 17.5013C7.12896 17.7142 7.67974 17.8238 8.23598 17.8238H20.941M4.00098 6.17578H16.706C17.2623 6.17565 17.8132 6.28513 18.3272 6.49796C18.8412 6.71079 19.3082 7.02281 19.7016 7.41618C20.0949 7.80956 20.407 8.27658 20.6198 8.79058C20.8326 9.30457 20.9421 9.85546 20.942 10.4118V12.5288" stroke="white" stroke-width="1.3" stroke-linecap="round" stroke-linejoin="round"/>
<path d="M17.765 14.647L20.942 17.823L17.765 21M7.177 9.353L4 6.176L7.177 3" stroke="white" stroke-width="1.5625" stroke-linecap="round" stroke-linejoin="round"/>
</svg>
