<svg width="20" height="20" viewBox="0 0 20 20" fill="none" xmlns="http://www.w3.org/2000/svg">
<path d="M15.8333 2.5H4.16667C3.25 2.5 2.5 3.25 2.5 4.16667V15.8333C2.5 16.75 3.25 17.5 4.16667 17.5H15.8333C16.75 17.5 17.5 16.75 17.5 15.8333V4.16667C17.5 3.25 16.75 2.5 15.8333 2.5ZM8.925 13.575C8.84791 13.6523 8.75633 13.7135 8.65552 13.7554C8.55471 13.7972 8.44664 13.8187 8.3375 13.8187C8.22836 13.8187 8.12029 13.7972 8.01948 13.7554C7.91867 13.7135 7.82709 13.6523 7.75 13.575L4.75833 10.5833C4.68118 10.5062 4.61998 10.4146 4.57823 10.3138C4.53647 10.213 4.51498 10.1049 4.51498 9.99583C4.51498 9.88672 4.53647 9.77868 4.57823 9.67788C4.61998 9.57708 4.68118 9.48548 4.75833 9.40833C4.83548 9.33118 4.92708 9.26998 5.02788 9.22823C5.12868 9.18647 5.23672 9.16498 5.34583 9.16498C5.45494 9.16498 5.56298 9.18647 5.66379 9.22823C5.76459 9.26998 5.85618 9.33118 5.93333 9.40833L8.33333 11.8083L14.0667 6.075C14.2225 5.91919 14.4338 5.83165 14.6542 5.83165C14.8745 5.83165 15.0859 5.91919 15.2417 6.075C15.3975 6.23081 15.485 6.44214 15.485 6.6625C15.485 6.88285 15.3975 7.09418 15.2417 7.25L8.925 13.575Z" fill="#F37BBB"/>
</svg>
