<svg width="20" height="20" viewBox="0 0 20 20" fill="none" xmlns="http://www.w3.org/2000/svg">
<path d="M7.58925 4.53935C8.08759 3.08102 10.1026 3.03685 10.6934 4.40685L10.7434 4.54018L11.4159 6.50685C11.57 6.95788 11.8191 7.37061 12.1463 7.7172C12.4735 8.0638 12.8712 8.33619 13.3126 8.51602L13.4934 8.58351L15.4601 9.25518C16.9184 9.75352 16.9626 11.7685 15.5934 12.3593L15.4601 12.4093L13.4934 13.0818C13.0422 13.2359 12.6293 13.4849 12.2826 13.8121C11.9359 14.1393 11.6633 14.537 11.4834 14.9785L11.4159 15.1585L10.7443 17.126C10.2459 18.5843 8.23092 18.6285 7.64092 17.2593L7.58925 17.126L6.91759 15.1593C6.76357 14.7082 6.51456 14.2953 6.18737 13.9485C5.86018 13.6018 5.46241 13.3293 5.02092 13.1493L4.84092 13.0818L2.87425 12.4102C1.41509 11.9118 1.37092 9.89685 2.74092 9.30685L2.87425 9.25518L4.84092 8.58351C5.29195 8.4294 5.70468 8.18034 6.05127 7.85316C6.39787 7.52597 6.67026 7.12826 6.85009 6.68685L6.91759 6.50685L7.58925 4.53935ZM15.8334 1.66602C15.9893 1.66602 16.1421 1.70975 16.2744 1.79224C16.4067 1.87474 16.5132 1.99268 16.5818 2.13268L16.6218 2.23018L16.9134 3.08518L17.7693 3.37685C17.9255 3.42993 18.0624 3.5282 18.1628 3.65919C18.2631 3.79019 18.3223 3.94803 18.3328 4.1127C18.3433 4.27737 18.3048 4.44146 18.2219 4.58417C18.1391 4.72689 18.0158 4.8418 17.8676 4.91435L17.7693 4.95435L16.9143 5.24602L16.6226 6.10185C16.5694 6.25804 16.4711 6.39493 16.34 6.49518C16.209 6.59542 16.0511 6.65451 15.8865 6.66495C15.7218 6.67539 15.5577 6.63672 15.4151 6.55383C15.2724 6.47094 15.1576 6.34757 15.0851 6.19935L15.0451 6.10185L14.7534 5.24685L13.8976 4.95518C13.7414 4.9021 13.6044 4.80384 13.5041 4.67284C13.4037 4.54184 13.3446 4.384 13.334 4.21933C13.3235 4.05466 13.3621 3.89057 13.4449 3.74786C13.5277 3.60515 13.6511 3.49023 13.7993 3.41768L13.8976 3.37768L14.7526 3.08602L15.0443 2.23018C15.1004 2.06554 15.2068 1.92261 15.3483 1.82143C15.4898 1.72026 15.6594 1.66591 15.8334 1.66602Z" fill="#F37BBB"/>
</svg>
