<svg width="34" height="34" viewBox="0 0 34 34" fill="none" xmlns="http://www.w3.org/2000/svg">
<path fill-rule="evenodd" clip-rule="evenodd" d="M20.6637 4.25C21.415 4.25016 22.1356 4.54878 22.6668 5.08017L24.67 7.08333H28.3335C29.0849 7.08333 29.8056 7.38184 30.337 7.9132C30.8683 8.44455 31.1668 9.16522 31.1668 9.91667V26.9167C31.1668 27.6681 30.8683 28.3888 30.337 28.9201C29.8056 29.4515 29.0849 29.75 28.3335 29.75H5.66683C4.91538 29.75 4.19471 29.4515 3.66336 28.9201C3.13201 28.3888 2.8335 27.6681 2.8335 26.9167V9.91667C2.8335 9.16522 3.13201 8.44455 3.66336 7.9132C4.19471 7.38184 4.91538 7.08333 5.66683 7.08333H9.33033L11.3335 5.08017C11.8647 4.54878 12.5853 4.25016 13.3367 4.25H20.6637ZM12.2628 17.7083C11.9604 17.7049 11.6649 17.7984 11.4194 17.975C11.1739 18.1517 10.9914 18.4023 10.8986 18.6901L9.98483 21.5234C9.92753 21.7004 9.90566 21.887 9.92046 22.0725C9.93526 22.2579 9.98645 22.4387 10.0711 22.6044C10.1558 22.7701 10.2722 22.9174 10.4138 23.0381C10.5554 23.1588 10.7194 23.2504 10.8965 23.3077C11.0735 23.365 11.26 23.3869 11.4455 23.3721C11.631 23.3573 11.8117 23.3061 11.9774 23.2214C12.312 23.0505 12.565 22.7536 12.6807 22.3961C13.3764 23.0379 14.2063 23.5167 15.1101 23.7976C16.0139 24.0786 16.969 24.1547 17.9059 24.0203C18.8428 23.886 19.738 23.5447 20.5265 23.0212C21.315 22.4976 21.9769 21.805 22.4642 20.9936C22.5659 20.8341 22.6346 20.6559 22.6664 20.4695C22.6981 20.283 22.6921 20.0921 22.6489 19.908C22.6056 19.7239 22.526 19.5503 22.4146 19.3975C22.3032 19.2447 22.1623 19.1157 22.0003 19.0182C21.8382 18.9206 21.6583 18.8565 21.4711 18.8297C21.2839 18.8028 21.0932 18.8136 20.9103 18.8616C20.7274 18.9096 20.5559 18.9937 20.406 19.109C20.2561 19.2243 20.1308 19.3685 20.0375 19.533C19.6832 20.1212 19.1657 20.5938 18.5479 20.8934C17.9302 21.193 17.2386 21.3067 16.5574 21.2207C15.8762 21.1348 15.2346 20.8528 14.7107 20.4091C14.1867 19.9653 13.8029 19.379 13.6058 18.7212C13.5196 18.4311 13.3426 18.1762 13.1009 17.9939C12.8593 17.8116 12.5655 17.7115 12.2628 17.7083ZM17.0002 11.3333C15.9001 11.3317 14.8184 11.6153 13.8607 12.1566C12.903 12.6979 12.102 13.4783 11.5361 14.4217C11.4401 14.5811 11.3764 14.7579 11.3488 14.9419C11.3211 15.126 11.3299 15.3136 11.3748 15.4943C11.4196 15.6749 11.4996 15.8449 11.6102 15.9946C11.7208 16.1443 11.8597 16.2708 12.0192 16.3668C12.1786 16.4627 12.3554 16.5264 12.5394 16.5541C12.7235 16.5817 12.9111 16.5729 13.0918 16.528C13.2724 16.4832 13.4424 16.4032 13.5921 16.2926C13.7418 16.1821 13.8682 16.0431 13.9642 15.8837C14.2791 15.3598 14.7242 14.9264 15.2562 14.6255C15.7882 14.3247 16.389 14.1666 17.0002 14.1667C18.6024 14.1667 19.961 15.232 20.3959 16.6954C20.4782 16.9715 20.6426 17.2159 20.8673 17.3961C21.092 17.5763 21.3664 17.6837 21.6537 17.704C21.941 17.7243 22.2277 17.6566 22.4755 17.5098C22.7234 17.363 22.9206 17.1441 23.0408 16.8824L23.1017 16.7266L24.0155 13.8932C24.0728 13.7162 24.0947 13.5297 24.0799 13.3442C24.0651 13.1587 24.0139 12.978 23.9292 12.8123C23.8446 12.6466 23.7281 12.4992 23.5865 12.3785C23.4449 12.2579 23.2809 12.1663 23.1039 12.109C22.9269 12.0517 22.7403 12.0298 22.5548 12.0446C22.3693 12.0594 22.1886 12.1106 22.0229 12.1952C21.8572 12.2799 21.7098 12.3963 21.5892 12.538C21.4685 12.6796 21.3769 12.8436 21.3196 13.0206C20.1441 11.9335 18.6012 11.3308 17.0002 11.3333Z" fill="white"/>
</svg>
