<svg width="34" height="34" viewBox="0 0 34 34" fill="none" xmlns="http://www.w3.org/2000/svg">
<path fill-rule="evenodd" clip-rule="evenodd" d="M18.7456 3.2398C18.9588 3.30918 19.1447 3.44425 19.2765 3.62569C19.4083 3.80713 19.4793 4.02562 19.4794 4.24989V13.1041H26.9169C27.1129 13.104 27.3051 13.1581 27.4723 13.2605C27.6395 13.3628 27.775 13.5094 27.864 13.6841C27.9531 13.8587 27.992 14.0546 27.9766 14.25C27.9612 14.4454 27.8921 14.6328 27.7768 14.7913L16.4435 30.3746C16.3117 30.5562 16.1258 30.6914 15.9125 30.7609C15.6991 30.8303 15.4693 30.8305 15.2559 30.7613C15.0424 30.6921 14.8564 30.5571 14.7244 30.3757C14.5924 30.1942 14.5212 29.9757 14.5211 29.7513V20.8971H7.08357C6.88731 20.8974 6.69482 20.8433 6.52742 20.7409C6.36003 20.6385 6.22428 20.4917 6.13522 20.3168C6.04617 20.1419 6.00729 19.9458 6.0229 19.7501C6.03851 19.5545 6.10799 19.367 6.22365 19.2085L17.557 3.62514C17.689 3.44359 17.8751 3.30851 18.0886 3.23929C18.3022 3.17006 18.5321 3.17024 18.7456 3.2398Z" fill="white"/>
</svg>
