<svg width="34" height="34" viewBox="0 0 34 34" fill="none" xmlns="http://www.w3.org/2000/svg">
<path d="M27.2708 5.1875V12.2708M30.8125 8.72917H23.7292M3.1875 24.3125L10.4961 17.0039C10.7921 16.7079 11.1435 16.4731 11.5302 16.3129C11.9169 16.1528 12.3314 16.0703 12.75 16.0703C13.1686 16.0703 13.5831 16.1528 13.9698 16.3129C14.3565 16.4731 14.7079 16.7079 15.0039 17.0039L22.3125 24.3125M20.1875 22.1875L22.1836 20.1914C22.4796 19.8954 22.831 19.6606 23.2177 19.5004C23.6044 19.3403 24.0189 19.2578 24.4375 19.2578C24.8561 19.2578 25.2706 19.3403 25.6573 19.5004C26.044 19.6606 26.3954 19.8954 26.6914 20.1914L30.8125 24.3125M19.4792 8.375H5.3125C4.74891 8.375 4.20841 8.59888 3.8099 8.9974C3.41138 9.39591 3.1875 9.93641 3.1875 10.5V27.5C3.1875 28.0636 3.41138 28.6041 3.8099 29.0026C4.20841 29.4011 4.74891 29.625 5.3125 29.625H28.6875C29.2511 29.625 29.7916 29.4011 30.1901 29.0026C30.5886 28.6041 30.8125 28.0636 30.8125 27.5V15.1042M20.1875 13.6875H20.1988V13.6988H20.1875V13.6875ZM20.7187 13.6875C20.7187 13.8284 20.6628 13.9635 20.5632 14.0632C20.4635 14.1628 20.3284 14.2187 20.1875 14.2187C20.0466 14.2187 19.9115 14.1628 19.8118 14.0632C19.7122 13.9635 19.6562 13.8284 19.6562 13.6875C19.6562 13.5466 19.7122 13.4115 19.8118 13.3118C19.9115 13.2122 20.0466 13.1562 20.1875 13.1562C20.3284 13.1562 20.4635 13.2122 20.5632 13.3118C20.6628 13.4115 20.7187 13.5466 20.7187 13.6875Z" stroke="#6C4E39" stroke-width="2" stroke-linecap="round" stroke-linejoin="round"/>
</svg>
