<svg width="28" height="28" viewBox="0 0 28 28" fill="none" xmlns="http://www.w3.org/2000/svg">
<path d="M6.125 13.125H23.625C23.8571 13.125 24.0796 13.2172 24.2437 13.3813C24.4078 13.5454 24.5 13.7679 24.5 14C24.5 14.2321 24.4078 14.4546 24.2437 14.6187C24.0796 14.7828 23.8571 14.875 23.625 14.875H6.125C5.89294 14.875 5.67038 14.7828 5.50628 14.6187C5.34219 14.4546 5.25 14.2321 5.25 14C5.25 13.7679 5.34219 13.5454 5.50628 13.3813C5.67038 13.2172 5.89294 13.125 6.125 13.125Z" fill="white"/>
<path d="M6.48601 14.0009L13.7458 21.2552C13.8273 21.3367 13.8919 21.4334 13.9361 21.5399C13.9802 21.6464 14.0029 21.7606 14.0029 21.8759C14.0029 21.9911 13.9802 22.1053 13.9361 22.2118C13.8919 22.3183 13.8273 22.415 13.7458 22.4966C13.6643 22.5781 13.5675 22.6427 13.461 22.6868C13.3545 22.731 13.2403 22.7537 13.1251 22.7537C13.0098 22.7537 12.8956 22.731 12.7891 22.6868C12.6826 22.6427 12.5859 22.5781 12.5044 22.4966L4.62937 14.6216C4.54752 14.5402 4.48256 14.4435 4.43824 14.337C4.39391 14.2305 4.37109 14.1162 4.37109 14.0009C4.37109 13.8855 4.39391 13.7712 4.43824 13.6647C4.48256 13.5582 4.54752 13.4615 4.62937 13.3802L12.5044 5.50515C12.5859 5.42364 12.6826 5.35898 12.7891 5.31487C12.8956 5.27075 13.0098 5.24805 13.1251 5.24805C13.2403 5.24805 13.3545 5.27075 13.461 5.31487C13.5675 5.35898 13.6643 5.42364 13.7458 5.50515C13.8273 5.58666 13.8919 5.68343 13.9361 5.78993C13.9802 5.89643 14.0029 6.01058 14.0029 6.12585C14.0029 6.24113 13.9802 6.35528 13.9361 6.46178C13.8919 6.56828 13.8273 6.66504 13.7458 6.74656L6.48601 14.0009Z" fill="white"/>
</svg>
