<svg width="308" height="46" viewBox="0 0 308 46" fill="none" xmlns="http://www.w3.org/2000/svg">
<rect x="0.5" y="0.5" width="307" height="45" rx="22.5" fill="#03A94D"/>
<rect x="0.5" y="0.5" width="307" height="45" rx="22.5" stroke="#03A94D"/>
<g clip-path="url(#clip0_953_3228)">
<path fill-rule="evenodd" clip-rule="evenodd" d="M33.2045 23.6355L26.5312 14H21V32H26.7955V22.3679L33.4688 32H39V14H33.2045V23.6355Z" fill="white"/>
<path d="M105.641 17.7812V25.5625C107.078 25.5391 108.438 25.4453 109.984 25.125L110.188 26.3906C108.359 26.7656 106.812 26.8438 105.078 26.8438H104.156V17.7812H105.641ZM115.547 16.3281V30.3281H114.141V16.3281H115.547ZM112.547 16.6406V29.6406H111.141V22.1562H108.078V20.9375H111.141V16.6406H112.547ZM128.637 16.3281V30.3594H127.153V16.3281H128.637ZM121.153 17.375C123.231 17.375 124.762 19.2812 124.762 22.2812C124.762 25.2969 123.231 27.2031 121.153 27.2031C119.044 27.2031 117.528 25.2969 117.528 22.2812C117.528 19.2812 119.044 17.375 121.153 17.375ZM121.153 18.7031C119.856 18.7031 118.966 20.0781 118.966 22.2812C118.966 24.5 119.856 25.875 121.153 25.875C122.434 25.875 123.325 24.5 123.325 22.2812C123.325 20.0781 122.434 18.7031 121.153 18.7031ZM142.244 16.3281V30.3594H140.775V22.6562H137.681V26.8906H131.119V17.4062H132.619V20.9844H136.228V17.4062H137.681V21.4375H140.775V16.3281H142.244ZM132.619 25.6719H136.228V22.1562H132.619V25.6719ZM156.912 27.4062V28.6562H144.1V27.4062H149.741V24.9531H145.662V20.5H153.881V18.5312H145.631V17.3125H155.35V21.6875H147.131V23.7344H155.678V24.9531H151.209V27.4062H156.912ZM166.375 19.8906C166.359 22.4531 167.906 25.0156 170.078 25.9844L169.188 27.1562C167.578 26.3906 166.305 24.8203 165.656 22.9062C165 24.9531 163.711 26.6484 162.031 27.4688L161.125 26.2188C163.328 25.2344 164.875 22.5625 164.875 19.8906V17.5H166.375V19.8906ZM172.828 16.3281V30.3594H171.344V16.3281H172.828ZM179.653 18.8438C179.653 20.625 180.887 22.3281 183.028 23.0469L182.278 24.2031C180.692 23.6562 179.528 22.5625 178.919 21.1875C178.309 22.7031 177.098 23.8906 175.45 24.4688L174.653 23.3125C176.841 22.5625 178.153 20.7656 178.169 18.8281V18.4531H175.091V17.25H182.669V18.4531H179.653V18.8438ZM185.762 16.3281V19.9219H187.794V21.1719H185.762V24.7656H184.278V16.3281H185.762ZM185.762 25.4531V30.3281H184.278V26.6562H176.512V25.4531H185.762ZM199.197 16.3281V22H201.447V23.2344H199.197V30.3281H197.728V16.3281H199.197ZM196.509 18.5156V19.7344H188.213V18.5156H191.666V16.5156H193.15V18.5156H196.509ZM192.416 20.7656C194.416 20.7656 195.884 22.1094 195.9 24.0156C195.884 25.9375 194.416 27.2656 192.416 27.2812C190.4 27.2656 188.931 25.9375 188.931 24.0156C188.931 22.1094 190.4 20.7656 192.416 20.7656ZM192.416 21.9844C191.228 21.9844 190.338 22.8125 190.353 24.0156C190.338 25.2344 191.228 26.0469 192.416 26.0312C193.603 26.0469 194.478 25.2344 194.478 24.0156C194.478 22.8125 193.603 21.9844 192.416 21.9844ZM213.459 16.3281V30.3281H211.959V16.3281H213.459ZM209.287 17.8281C209.287 21.9219 207.537 25.4844 202.741 27.7812L201.959 26.5781C205.686 24.8047 207.498 22.2812 207.787 19.0156H202.631V17.8281H209.287Z" fill="white"/>
</g>
<defs>
<clipPath id="clip0_953_3228">
<rect width="195" height="24" fill="white" transform="translate(21 11)"/>
</clipPath>
</defs>
</svg>
