<svg width="25" height="25" viewBox="0 0 25 25" fill="none" xmlns="http://www.w3.org/2000/svg">
<path d="M7.57262 7.98318V17.4259C7.57252 17.6956 7.62556 17.9626 7.72871 18.2118C7.83185 18.4609 7.98309 18.6873 8.17377 18.878C8.36444 19.0687 8.59082 19.2199 8.83997 19.323C9.08912 19.4262 9.35616 19.4792 9.62582 19.4791H15.3742C15.9185 19.4791 16.4406 19.2629 16.8255 18.878C17.2104 18.4931 17.4266 17.971 17.4266 17.4267V7.98242M5.93066 7.98318H19.0693" stroke="#F37BBB" stroke-linecap="round" stroke-linejoin="round"/>
<path d="M10.0361 7.98322V6.751C10.0359 6.58916 10.0677 6.42888 10.1295 6.27933C10.1914 6.12978 10.2822 5.99391 10.3966 5.87951C10.5111 5.76511 10.647 5.67442 10.7966 5.61265C10.9462 5.55088 11.1065 5.51924 11.2684 5.51953H13.7313C13.8931 5.51924 14.0534 5.55088 14.203 5.61265C14.3526 5.67442 14.4885 5.76511 14.603 5.87951C14.7175 5.99391 14.8082 6.12978 14.8701 6.27933C14.932 6.42888 14.9637 6.58916 14.9635 6.751V7.98322M10.8579 16.2662V12.1621M14.1425 16.2662V12.1621" stroke="#F37BBB" stroke-linecap="round" stroke-linejoin="round"/>
</svg>
