<svg width="25" height="25" viewBox="0 0 25 25" fill="none" xmlns="http://www.w3.org/2000/svg">
<path d="M19.4565 5.64664C19.1914 5.3678 18.8733 5.14484 18.5207 4.99089C18.1681 4.83693 17.7883 4.75511 17.4037 4.75023C17.019 4.74536 16.6372 4.81753 16.2809 4.96249C15.9246 5.10746 15.6008 5.32229 15.3288 5.59432L6.24508 14.6781C5.92802 14.9956 5.70789 15.3969 5.61043 15.835L4.75971 19.6622C4.74191 19.7419 4.74452 19.8247 4.76729 19.9031C4.79006 19.9814 4.83225 20.0528 4.88994 20.1105C4.94764 20.1682 5.01898 20.2103 5.09733 20.2331C5.17569 20.2559 5.25853 20.2585 5.33816 20.2407L9.14218 19.3948C9.59545 19.2949 10.0105 19.0669 10.3378 18.7379L18.0699 11.0058L18.3965 11.3314C18.5781 11.5131 18.6801 11.7595 18.6801 12.0164C18.6801 12.2733 18.5781 12.5197 18.3965 12.7014L17.4857 13.6122C17.3975 13.7037 17.3489 13.8262 17.3501 13.9532C17.3514 14.0802 17.4025 14.2017 17.4925 14.2914C17.5825 14.3811 17.704 14.4319 17.8311 14.4328C17.9581 14.4337 18.0804 14.3847 18.1717 14.2963L19.0815 13.3855C19.4448 13.0221 19.6489 12.5293 19.6489 12.0154C19.6489 11.5016 19.4448 11.0088 19.0815 10.6454L18.7559 10.3198L19.4051 9.67062C19.9366 9.1389 20.2393 8.4206 20.2487 7.66888C20.2581 6.91715 19.9745 6.19149 19.4565 5.64664ZM16.0129 6.27935C16.3726 5.92473 16.858 5.72673 17.3632 5.72854C17.8683 5.73035 18.3522 5.93182 18.7094 6.28902C19.0666 6.64622 19.2681 7.13016 19.2699 7.63531C19.2717 8.14046 19.0737 8.62583 18.7191 8.98558L9.65281 18.0528C9.45569 18.2516 9.20537 18.3892 8.93193 18.4491L5.8701 19.1293L6.55611 16.0452C6.61335 15.7867 6.74348 15.55 6.93108 15.3631L16.0129 6.27935Z" fill="#CCC4C1"/>
</svg>
