<svg width="66" height="36" viewBox="0 0 66 36" fill="none" xmlns="http://www.w3.org/2000/svg">
<rect width="66" height="36" rx="18" fill="#E7F3FE"/>
<g clip-path="url(#clip0_2033_14729)">
<path d="M44.1708 6C44.628 6 45 6.372 45 6.834V13.0296C45 13.4892 44.628 13.8624 44.1708 13.8624C44.0616 13.8622 43.9535 13.8406 43.8527 13.7986C43.7518 13.7567 43.6602 13.6953 43.5831 13.618C43.506 13.5406 43.4449 13.4489 43.4032 13.3479C43.3616 13.247 43.3402 13.1388 43.3404 13.0296V8.8464L37.2828 15.1404C38.5631 16.7609 39.2579 18.7667 39.2544 20.832C39.2544 25.896 35.1684 30 30.1272 30C25.0872 30 21 25.896 21 20.832C21 15.768 25.086 11.664 30.1272 11.664C32.43 11.664 34.5324 12.5208 36.1392 13.9332L42.1656 7.6668H37.6716C37.5623 7.6668 37.4541 7.64525 37.3531 7.60338C37.2521 7.56152 37.1604 7.50015 37.0831 7.42281C37.0059 7.34546 36.9447 7.25364 36.903 7.15261C36.8612 7.05158 36.8398 6.94331 36.84 6.834C36.84 6.3732 37.212 6 37.6704 6H44.1708ZM30.1272 13.332C26.0028 13.332 22.6596 16.6896 22.6596 20.832C22.6596 24.9744 26.0028 28.3332 30.1272 28.3332C34.2516 28.3332 37.5948 24.9744 37.5948 20.8332C37.5948 16.6896 34.2516 13.332 30.1272 13.332Z" fill="#0084FF"/>
</g>
<defs>
<clipPath id="clip0_2033_14729">
<rect width="24" height="24" fill="white" transform="translate(21 6)"/>
</clipPath>
</defs>
</svg>
