<svg width="2760" height="662" viewBox="0 0 2760 662" fill="none" xmlns="http://www.w3.org/2000/svg">
<path d="M67.0757 651.9H21.8398L632.818 28.7994C640.951 20.6667 653.059 18.2819 663.637 22.6846C674.216 27.0872 681.126 37.3601 681.126 48.7948V637.53H640.584V78.3906L67.0757 651.9Z" fill="black" stroke="black" stroke-width="18.3445" stroke-miterlimit="10"/>
<path d="M1225.04 637.531H1184.5C1184.5 421.424 1022.28 376.921 964.223 367.901C953.089 366.171 944.363 356.71 944.584 345.444C944.806 334.139 953.999 325.071 965.306 325.004L1047.9 324.513C1123.23 324.085 1184.56 262.448 1184.56 187.113C1184.56 111.779 1122.92 49.7131 1047.16 49.7131H717.145V9.17188H1047.16C1145.3 9.17188 1225.1 89.0314 1225.1 187.113C1225.1 275.228 1160.35 348.85 1075.96 362.731C1153.31 405.168 1225.1 488.513 1225.1 637.531H1225.04Z" fill="black" stroke="black" stroke-width="18.3445" stroke-miterlimit="10"/>
<path d="M1311.69 637.531H1271.15V77.5881C1271.15 39.8028 1301.78 9.17188 1339.57 9.17188H1723.04V49.7131H1355.96C1331.51 49.7131 1311.69 69.5332 1311.69 93.9825V637.531Z" fill="black" stroke="black" stroke-width="18.3445" stroke-miterlimit="10"/>
<path d="M1608.4 259.33H1291.41V299.871H1608.4V259.33Z" fill="black" stroke="black" stroke-width="18.3445" stroke-miterlimit="10"/>
<path d="M2190.05 637.531H1803.72C1795.78 637.531 1789.35 631.096 1789.35 623.158V9.17188H1829.89V596.99H2190.05V637.531Z" fill="black" stroke="black" stroke-width="18.3445" stroke-miterlimit="10"/>
<path d="M2739.24 637.53L2458.99 312.833V126.698L2547.5 39.9155C2556.33 31.2632 2550.2 16.2646 2537.84 16.2646H2441.44H2438.2H2341.79C2329.43 16.2646 2323.31 31.2621 2332.13 39.9147L2418.45 124.558V312.833L2139.53 637.53H2194.46L2438.75 351.54L2683.04 637.53H2739.24Z" fill="black" stroke="black" stroke-width="18.3445" stroke-miterlimit="10"/>
</svg>
