<svg width="36" height="49" viewBox="0 0 36 49" fill="none" xmlns="http://www.w3.org/2000/svg">
<path d="M5.98455 12.2577C5.03773 13.2043 4.28665 14.3282 3.77422 15.5651C3.26179 16.8021 2.99805 18.1278 2.99805 19.4667C2.99805 20.8056 3.26179 22.1313 3.77422 23.3683C4.28665 24.6052 5.03773 25.7291 5.98455 26.6757L9.83055 30.5202L10.5731 30.3777H10.5746L10.5956 30.3732L10.7066 30.3462C10.8096 30.3222 10.9671 30.2767 11.1791 30.2097C11.6021 30.0747 12.2246 29.8452 12.9941 29.4747C14.5301 28.7352 16.6511 27.4287 18.9026 25.1757C21.1541 22.9242 22.4606 20.8032 23.2016 19.2672C23.5721 18.4992 23.8016 17.8752 23.9366 17.4522C23.9989 17.26 24.0534 17.0653 24.1001 16.8687L24.1046 16.8477L24.2471 16.1037L20.4026 12.2592C19.456 11.3126 18.3322 10.5617 17.0954 10.0494C15.8586 9.53711 14.533 9.27344 13.1943 9.27344C11.8556 9.27344 10.53 9.53711 9.29323 10.0494C8.05643 10.5617 6.93265 11.3126 5.98605 12.2592M26.1281 17.9832L26.0801 18.1377C25.9151 18.6522 25.6481 19.3737 25.2281 20.2437C24.3881 21.9867 22.9406 24.3207 20.4941 26.7672C18.0476 29.2137 15.7136 30.6627 13.9706 31.5027C13.2402 31.8574 12.4846 32.1577 11.7101 32.4012L15.5966 36.2862C16.5395 37.2486 17.664 38.0146 18.9048 38.5397C20.1457 39.0649 21.4783 39.3388 22.8257 39.3457C24.1731 39.3527 25.5085 39.0924 26.7547 38.58C28.0008 38.0676 29.133 37.3132 30.0859 36.3605C31.0387 35.4078 31.7931 34.2756 32.3057 33.0295C32.8182 31.7834 33.0786 30.448 33.0719 29.1007C33.0651 27.7533 32.7913 26.4206 32.2662 25.1797C31.7412 23.9388 30.9754 22.8143 30.0131 21.8712L26.1281 17.9832Z" fill="white"/>
</svg>
