<svg width="18" height="18" viewBox="0 0 18 18" fill="none" xmlns="http://www.w3.org/2000/svg">
<path d="M9 5.22479C8.54247 5.22479 8.09522 5.36046 7.7148 5.61465C7.33438 5.86884 7.03788 6.23013 6.86279 6.65283C6.68771 7.07553 6.6419 7.54065 6.73115 7.98939C6.82041 8.43812 7.04073 8.85031 7.36425 9.17383C7.68777 9.49735 8.09996 9.71767 8.5487 9.80693C8.99743 9.89619 9.46256 9.85038 9.88526 9.67529C10.308 9.5002 10.6692 9.2037 10.9234 8.82328C11.1776 8.44286 11.3133 7.99561 11.3133 7.53809C11.3133 6.92456 11.0696 6.33617 10.6357 5.90234C10.2019 5.46851 9.61352 5.22479 9 5.22479ZM9 9.12087C8.68696 9.12087 8.38094 9.02804 8.12065 8.85412C7.86037 8.6802 7.6575 8.433 7.5377 8.14379C7.4179 7.85457 7.38656 7.53633 7.44763 7.2293C7.5087 6.92227 7.65945 6.64025 7.88081 6.41889C8.10216 6.19754 8.38419 6.04679 8.69121 5.98572C8.99824 5.92465 9.31649 5.95599 9.6057 6.07579C9.89492 6.19558 10.1421 6.39845 10.316 6.65874C10.49 6.91903 10.5828 7.22504 10.5828 7.53809C10.5828 7.95787 10.416 8.36045 10.1192 8.65728C9.82237 8.95411 9.41978 9.12087 9 9.12087ZM9 2.30273C7.61199 2.30435 6.2813 2.85644 5.29983 3.83791C4.31836 4.81938 3.76626 6.15008 3.76465 7.53809C3.76465 9.41977 4.63761 11.4183 6.28918 13.3177C7.03461 14.1791 7.87357 14.955 8.79059 15.631C8.85197 15.6739 8.92508 15.697 9 15.697C9.07492 15.697 9.14803 15.6739 9.20941 15.631C10.1264 14.955 10.9654 14.1791 11.7108 13.3177C13.3624 11.4183 14.2354 9.42159 14.2354 7.53809C14.2337 6.15008 13.6816 4.81938 12.7002 3.83791C11.7187 2.85644 10.388 2.30435 9 2.30273ZM9 14.8743C8.08686 14.1693 4.49516 11.1675 4.49516 7.53809C4.49516 6.34333 4.96978 5.19751 5.8146 4.35268C6.65942 3.50786 7.80524 3.03325 9 3.03325C10.1948 3.03325 11.3406 3.50786 12.1854 4.35268C13.0302 5.19751 13.5048 6.34333 13.5048 7.53809C13.5048 11.1675 9.91314 14.1693 9 14.8743Z" fill="#858585"/>
</svg>
