<svg width="24" height="24" viewBox="0 0 24 24" fill="none" xmlns="http://www.w3.org/2000/svg">
<path d="M14.0626 11.9995L7.64757 18.4154C7.52561 18.5373 7.46519 18.6837 7.4663 18.8544C7.46741 19.0251 7.52949 19.1718 7.65255 19.2943C7.77562 19.4168 7.92224 19.478 8.09242 19.478C8.2626 19.478 8.40922 19.4168 8.53229 19.2943L14.8858 12.9449C15.02 12.8102 15.1181 12.6605 15.1802 12.4959C15.2417 12.3301 15.2725 12.1647 15.2725 11.9995C15.2725 11.8343 15.2417 11.6691 15.1802 11.5039C15.1181 11.3387 15.02 11.189 14.8858 11.0549L8.53312 4.69888C8.41061 4.57637 8.26316 4.51595 8.09076 4.51761C7.91891 4.51927 7.77146 4.58136 7.6484 4.70387C7.52644 4.82638 7.46547 4.973 7.46547 5.14373C7.46547 5.31447 7.52644 5.46109 7.6484 5.5836L14.0626 11.9995Z" fill="#CCC4C1"/>
</svg>
