<svg width="24" height="24" viewBox="0 0 24 24" fill="none" xmlns="http://www.w3.org/2000/svg">
<path d="M12.951 16.2762L18.141 17.4989C18.5097 17.5857 18.8947 17.5925 19.2667 17.5189C19.6386 17.4452 19.9878 17.293 20.2876 17.0737C20.5873 16.8545 20.8298 16.574 20.9966 16.2537C21.1634 15.9334 21.25 15.5816 21.25 15.2252V6.93023C21.25 6.57377 21.1634 6.22201 20.9966 5.90168C20.8298 5.58136 20.5873 5.30091 20.2876 5.08168C19.9878 4.86245 19.6386 4.71021 19.2667 4.63654C18.8947 4.56287 18.5097 4.56972 18.141 4.65655L4.641 7.83501C4.10083 7.96222 3.62143 8.2549 3.27885 8.66663C2.93628 9.07836 2.75015 9.58556 2.75 10.1078V12.0467C2.74999 12.5692 2.93616 13.0767 3.27894 13.4886C3.62173 13.9006 4.10148 14.1933 4.642 14.3204L7.142 14.9083L12.952 16.2772M7.141 14.9092C7.01801 15.2749 6.97606 15.6603 7.01774 16.0418C7.05942 16.4232 7.18383 16.7926 7.38335 17.1274C7.58286 17.4621 7.85326 17.755 8.17793 17.9882C8.5026 18.2213 8.87469 18.3898 9.27133 18.4832C9.66798 18.5766 10.0808 18.593 10.4844 18.5313C10.8881 18.4697 11.274 18.3313 11.6185 18.1247C11.9631 17.9181 12.2589 17.6476 12.4879 17.3299C12.7168 17.0122 12.8741 16.6539 12.95 16.2772" stroke="#6A6765" stroke-width="1.3"/>
<path d="M12.951 16.2762L18.141 17.4989C18.5097 17.5857 18.8947 17.5925 19.2667 17.5189C19.6386 17.4452 19.9878 17.293 20.2876 17.0737C20.5873 16.8545 20.8298 16.574 20.9966 16.2537C21.1634 15.9334 21.25 15.5816 21.25 15.2252V6.93023C21.25 6.57377 21.1634 6.22201 20.9966 5.90168C20.8298 5.58136 20.5873 5.30091 20.2876 5.08168C19.9878 4.86245 19.6386 4.71021 19.2667 4.63654C18.8947 4.56287 18.5097 4.56972 18.141 4.65655L4.641 7.83501C4.10083 7.96222 3.62143 8.2549 3.27885 8.66663C2.93628 9.07836 2.75015 9.58556 2.75 10.1078V12.0467C2.74999 12.5692 2.93616 13.0767 3.27894 13.4886C3.62173 13.9006 4.10148 14.1933 4.642 14.3204L7.142 14.9083L12.952 16.2772M7.141 14.9092C7.01801 15.2749 6.97606 15.6603 7.01774 16.0418C7.05942 16.4232 7.18383 16.7926 7.38335 17.1274C7.58286 17.4621 7.85326 17.755 8.17793 17.9882C8.5026 18.2213 8.87469 18.3898 9.27133 18.4832C9.66798 18.5766 10.0808 18.593 10.4844 18.5313C10.8881 18.4697 11.274 18.3313 11.6185 18.1247C11.9631 17.9181 12.2589 17.6476 12.4879 17.3299C12.7168 17.0122 12.8741 16.6539 12.95 16.2772" stroke="black" stroke-opacity="0.2" stroke-width="1.3"/>
</svg>
