<svg width="20" height="20" viewBox="0 0 20 20" fill="none" xmlns="http://www.w3.org/2000/svg">
<path d="M17.5 2.50126C17.5001 2.89907 17.4053 3.29116 17.2234 3.64496C17.0415 3.99875 16.7778 4.30404 16.4543 4.53545C16.1307 4.76685 15.7566 4.9177 15.363 4.97545C14.9694 5.03321 14.5677 4.9962 14.1912 4.86751L12.5863 7.29626C13.3 7.97626 13.7462 8.93501 13.75 9.99876L15.2125 10.2513C15.4581 9.69454 15.8982 9.24649 16.4505 8.99109C17.0028 8.73568 17.6292 8.69046 18.2125 8.8639C18.7957 9.03734 19.2957 9.41754 19.6186 9.93322C19.9416 10.4489 20.0654 11.0647 19.9669 11.6651C19.8683 12.2655 19.5542 12.8094 19.0833 13.1948C18.6124 13.5802 18.0172 13.7806 17.4091 13.7585C16.801 13.7364 16.2219 13.4934 15.7802 13.0748C15.3386 12.6563 15.0647 12.091 15.01 11.485L13.5475 11.2313C13.2393 12.1288 12.6024 12.8761 11.765 13.3225L12.32 15.0188C12.38 15.0138 12.44 15.0113 12.5 15.0113C13.1007 15.0115 13.6813 15.228 14.1355 15.6211C14.5896 16.0143 14.887 16.5579 14.9733 17.1524C15.0595 17.7469 14.9288 18.3526 14.6051 18.8586C14.2813 19.3646 13.7862 19.7371 13.2103 19.908C12.6344 20.0789 12.0162 20.0367 11.4689 19.7891C10.9215 19.5415 10.4817 19.1051 10.2297 18.5598C9.97774 18.0145 9.93057 17.3967 10.0968 16.8194C10.2631 16.2422 10.6316 15.7441 11.135 15.4163L10.5788 13.7163C9.90234 13.8217 9.20997 13.74 8.57669 13.48C7.94341 13.22 7.39339 12.7916 6.98625 12.2413L4.9425 13.2263C4.98083 13.3988 5 13.5771 5 13.7613C5.00018 14.3466 4.79498 14.9134 4.42016 15.3629C4.04535 15.8125 3.52468 16.1163 2.94888 16.2214C2.37309 16.3265 1.77867 16.2262 1.2692 15.9381C0.759742 15.6499 0.367536 15.1921 0.160929 14.6445C-0.0456771 14.0969 -0.0535859 13.4941 0.138581 12.9412C0.330749 12.3884 0.710808 11.9204 1.21253 11.619C1.71426 11.3176 2.30585 11.2018 2.8842 11.2917C3.46256 11.3817 3.99102 11.6717 4.3775 12.1113L6.41875 11.1275C6.22508 10.5058 6.19666 9.84433 6.33628 9.20827C6.47589 8.57221 6.77874 7.98348 7.215 7.50001L6.04625 6.03251C5.49352 6.28696 4.86697 6.33109 4.28404 6.15662C3.7011 5.98216 3.20181 5.60108 2.87974 5.08482C2.55767 4.56856 2.43495 3.95256 2.53457 3.35229C2.63419 2.75202 2.94931 2.20868 3.42088 1.82413C3.89244 1.43958 4.48806 1.24021 5.0961 1.2634C5.70414 1.28659 6.28285 1.53074 6.72376 1.95008C7.16467 2.36943 7.4375 2.93519 7.49111 3.5413C7.54473 4.14742 7.37545 4.75228 7.015 5.24251L8.195 6.72376C8.73 6.43001 9.345 6.26126 10 6.26126C10.5525 6.26126 11.0775 6.38001 11.55 6.59501L13.1475 4.17876C12.8749 3.87793 12.6796 3.51523 12.5786 3.12201C12.4776 2.7288 12.4739 2.3169 12.5678 1.92192C12.6616 1.52694 12.8503 1.16076 13.1174 0.855042C13.3845 0.549323 13.7221 0.31326 14.1009 0.167259C14.4798 0.0212567 14.8884 -0.0302911 15.2916 0.0170706C15.6949 0.0644323 16.0805 0.209278 16.4151 0.439089C16.7498 0.668899 17.0235 0.976759 17.2125 1.33606C17.4015 1.69535 17.5002 2.09528 17.5 2.50126ZM16.25 2.50126C16.25 2.16974 16.1183 1.8518 15.8839 1.61738C15.6495 1.38296 15.3315 1.25126 15 1.25126C14.6685 1.25126 14.3505 1.38296 14.1161 1.61738C13.8817 1.8518 13.75 2.16974 13.75 2.50126C13.75 2.83278 13.8817 3.15073 14.1161 3.38515C14.3505 3.61957 14.6685 3.75126 15 3.75126C15.3315 3.75126 15.6495 3.61957 15.8839 3.38515C16.1183 3.15073 16.25 2.83278 16.25 2.50126ZM5 5.01251C5.33152 5.01251 5.64946 4.88082 5.88388 4.6464C6.1183 4.41198 6.25 4.09403 6.25 3.76251C6.25 3.43099 6.1183 3.11305 5.88388 2.87863C5.64946 2.64421 5.33152 2.51251 5 2.51251C4.66848 2.51251 4.35054 2.64421 4.11612 2.87863C3.8817 3.11305 3.75 3.43099 3.75 3.76251C3.75 4.09403 3.8817 4.41198 4.11612 4.6464C4.35054 4.88082 4.66848 5.01251 5 5.01251ZM10 12.5125C10.663 12.5125 11.2989 12.2491 11.7678 11.7803C12.2366 11.3114 12.5 10.6756 12.5 10.0125C12.5 9.34947 12.2366 8.71359 11.7678 8.24475C11.2989 7.7759 10.663 7.51251 10 7.51251C9.33696 7.51251 8.70107 7.7759 8.23223 8.24475C7.76339 8.71359 7.5 9.34947 7.5 10.0125C7.5 10.6756 7.76339 11.3114 8.23223 11.7803C8.70107 12.2491 9.33696 12.5125 10 12.5125ZM3.75 13.7625C3.75 13.431 3.6183 13.113 3.38388 12.8786C3.14946 12.6442 2.83152 12.5125 2.5 12.5125C2.16848 12.5125 1.85054 12.6442 1.61612 12.8786C1.3817 13.113 1.25 13.431 1.25 13.7625C1.25 14.094 1.3817 14.412 1.61612 14.6464C1.85054 14.8808 2.16848 15.0125 2.5 15.0125C2.83152 15.0125 3.14946 14.8808 3.38388 14.6464C3.6183 14.412 3.75 14.094 3.75 13.7625ZM13.75 17.5125C13.75 17.181 13.6183 16.863 13.3839 16.6286C13.1495 16.3942 12.8315 16.2625 12.5 16.2625C12.1685 16.2625 11.8505 16.3942 11.6161 16.6286C11.3817 16.863 11.25 17.181 11.25 17.5125C11.25 17.844 11.3817 18.162 11.6161 18.3964C11.8505 18.6308 12.1685 18.7625 12.5 18.7625C12.8315 18.7625 13.1495 18.6308 13.3839 18.3964C13.6183 18.162 13.75 17.844 13.75 17.5125ZM17.5 12.5125C17.8315 12.5125 18.1495 12.3808 18.3839 12.1464C18.6183 11.912 18.75 11.594 18.75 11.2625C18.75 10.931 18.6183 10.613 18.3839 10.3786C18.1495 10.1442 17.8315 10.0125 17.5 10.0125C17.1685 10.0125 16.8505 10.1442 16.6161 10.3786C16.3817 10.613 16.25 10.931 16.25 11.2625C16.25 11.594 16.3817 11.912 16.6161 12.1464C16.8505 12.3808 17.1685 12.5125 17.5 12.5125Z" fill="#6A6765"/>
<path d="M17.5 2.50126C17.5001 2.89907 17.4053 3.29116 17.2234 3.64496C17.0415 3.99875 16.7778 4.30404 16.4543 4.53545C16.1307 4.76685 15.7566 4.9177 15.363 4.97545C14.9694 5.03321 14.5677 4.9962 14.1912 4.86751L12.5863 7.29626C13.3 7.97626 13.7462 8.93501 13.75 9.99876L15.2125 10.2513C15.4581 9.69454 15.8982 9.24649 16.4505 8.99109C17.0028 8.73568 17.6292 8.69046 18.2125 8.8639C18.7957 9.03734 19.2957 9.41754 19.6186 9.93322C19.9416 10.4489 20.0654 11.0647 19.9669 11.6651C19.8683 12.2655 19.5542 12.8094 19.0833 13.1948C18.6124 13.5802 18.0172 13.7806 17.4091 13.7585C16.801 13.7364 16.2219 13.4934 15.7802 13.0748C15.3386 12.6563 15.0647 12.091 15.01 11.485L13.5475 11.2313C13.2393 12.1288 12.6024 12.8761 11.765 13.3225L12.32 15.0188C12.38 15.0138 12.44 15.0113 12.5 15.0113C13.1007 15.0115 13.6813 15.228 14.1355 15.6211C14.5896 16.0143 14.887 16.5579 14.9733 17.1524C15.0595 17.7469 14.9288 18.3526 14.6051 18.8586C14.2813 19.3646 13.7862 19.7371 13.2103 19.908C12.6344 20.0789 12.0162 20.0367 11.4689 19.7891C10.9215 19.5415 10.4817 19.1051 10.2297 18.5598C9.97774 18.0145 9.93057 17.3967 10.0968 16.8194C10.2631 16.2422 10.6316 15.7441 11.135 15.4163L10.5788 13.7163C9.90234 13.8217 9.20997 13.74 8.57669 13.48C7.94341 13.22 7.39339 12.7916 6.98625 12.2413L4.9425 13.2263C4.98083 13.3988 5 13.5771 5 13.7613C5.00018 14.3466 4.79498 14.9134 4.42016 15.3629C4.04535 15.8125 3.52468 16.1163 2.94888 16.2214C2.37309 16.3265 1.77867 16.2262 1.2692 15.9381C0.759742 15.6499 0.367536 15.1921 0.160929 14.6445C-0.0456771 14.0969 -0.0535859 13.4941 0.138581 12.9412C0.330749 12.3884 0.710808 11.9204 1.21253 11.619C1.71426 11.3176 2.30585 11.2018 2.8842 11.2917C3.46256 11.3817 3.99102 11.6717 4.3775 12.1113L6.41875 11.1275C6.22508 10.5058 6.19666 9.84433 6.33628 9.20827C6.47589 8.57221 6.77874 7.98348 7.215 7.50001L6.04625 6.03251C5.49352 6.28696 4.86697 6.33109 4.28404 6.15662C3.7011 5.98216 3.20181 5.60108 2.87974 5.08482C2.55767 4.56856 2.43495 3.95256 2.53457 3.35229C2.63419 2.75202 2.94931 2.20868 3.42088 1.82413C3.89244 1.43958 4.48806 1.24021 5.0961 1.2634C5.70414 1.28659 6.28285 1.53074 6.72376 1.95008C7.16467 2.36943 7.4375 2.93519 7.49111 3.5413C7.54473 4.14742 7.37545 4.75228 7.015 5.24251L8.195 6.72376C8.73 6.43001 9.345 6.26126 10 6.26126C10.5525 6.26126 11.0775 6.38001 11.55 6.59501L13.1475 4.17876C12.8749 3.87793 12.6796 3.51523 12.5786 3.12201C12.4776 2.7288 12.4739 2.3169 12.5678 1.92192C12.6616 1.52694 12.8503 1.16076 13.1174 0.855042C13.3845 0.549323 13.7221 0.31326 14.1009 0.167259C14.4798 0.0212567 14.8884 -0.0302911 15.2916 0.0170706C15.6949 0.0644323 16.0805 0.209278 16.4151 0.439089C16.7498 0.668899 17.0235 0.976759 17.2125 1.33606C17.4015 1.69535 17.5002 2.09528 17.5 2.50126ZM16.25 2.50126C16.25 2.16974 16.1183 1.8518 15.8839 1.61738C15.6495 1.38296 15.3315 1.25126 15 1.25126C14.6685 1.25126 14.3505 1.38296 14.1161 1.61738C13.8817 1.8518 13.75 2.16974 13.75 2.50126C13.75 2.83278 13.8817 3.15073 14.1161 3.38515C14.3505 3.61957 14.6685 3.75126 15 3.75126C15.3315 3.75126 15.6495 3.61957 15.8839 3.38515C16.1183 3.15073 16.25 2.83278 16.25 2.50126ZM5 5.01251C5.33152 5.01251 5.64946 4.88082 5.88388 4.6464C6.1183 4.41198 6.25 4.09403 6.25 3.76251C6.25 3.43099 6.1183 3.11305 5.88388 2.87863C5.64946 2.64421 5.33152 2.51251 5 2.51251C4.66848 2.51251 4.35054 2.64421 4.11612 2.87863C3.8817 3.11305 3.75 3.43099 3.75 3.76251C3.75 4.09403 3.8817 4.41198 4.11612 4.6464C4.35054 4.88082 4.66848 5.01251 5 5.01251ZM10 12.5125C10.663 12.5125 11.2989 12.2491 11.7678 11.7803C12.2366 11.3114 12.5 10.6756 12.5 10.0125C12.5 9.34947 12.2366 8.71359 11.7678 8.24475C11.2989 7.7759 10.663 7.51251 10 7.51251C9.33696 7.51251 8.70107 7.7759 8.23223 8.24475C7.76339 8.71359 7.5 9.34947 7.5 10.0125C7.5 10.6756 7.76339 11.3114 8.23223 11.7803C8.70107 12.2491 9.33696 12.5125 10 12.5125ZM3.75 13.7625C3.75 13.431 3.6183 13.113 3.38388 12.8786C3.14946 12.6442 2.83152 12.5125 2.5 12.5125C2.16848 12.5125 1.85054 12.6442 1.61612 12.8786C1.3817 13.113 1.25 13.431 1.25 13.7625C1.25 14.094 1.3817 14.412 1.61612 14.6464C1.85054 14.8808 2.16848 15.0125 2.5 15.0125C2.83152 15.0125 3.14946 14.8808 3.38388 14.6464C3.6183 14.412 3.75 14.094 3.75 13.7625ZM13.75 17.5125C13.75 17.181 13.6183 16.863 13.3839 16.6286C13.1495 16.3942 12.8315 16.2625 12.5 16.2625C12.1685 16.2625 11.8505 16.3942 11.6161 16.6286C11.3817 16.863 11.25 17.181 11.25 17.5125C11.25 17.844 11.3817 18.162 11.6161 18.3964C11.8505 18.6308 12.1685 18.7625 12.5 18.7625C12.8315 18.7625 13.1495 18.6308 13.3839 18.3964C13.6183 18.162 13.75 17.844 13.75 17.5125ZM17.5 12.5125C17.8315 12.5125 18.1495 12.3808 18.3839 12.1464C18.6183 11.912 18.75 11.594 18.75 11.2625C18.75 10.931 18.6183 10.613 18.3839 10.3786C18.1495 10.1442 17.8315 10.0125 17.5 10.0125C17.1685 10.0125 16.8505 10.1442 16.6161 10.3786C16.3817 10.613 16.25 10.931 16.25 11.2625C16.25 11.594 16.3817 11.912 16.6161 12.1464C16.8505 12.3808 17.1685 12.5125 17.5 12.5125Z" fill="black" fill-opacity="0.2"/>
</svg>
