<svg width="24" height="24" viewBox="0 0 24 24" fill="none" xmlns="http://www.w3.org/2000/svg">
<path d="M12 19.6893C13.78 19.6893 15.5201 19.1944 17.0001 18.2672C18.4802 17.34 19.6337 16.0221 20.3149 14.4801C20.9961 12.9382 21.1743 11.2415 20.8271 9.60465C20.4798 7.96777 19.6226 6.46419 18.364 5.28405C17.1053 4.10392 15.5016 3.30024 13.7558 2.97465C12.01 2.64905 10.2004 2.81616 8.55585 3.45484C6.91131 4.09352 5.50571 5.17509 4.51677 6.56278C3.52784 7.95047 3 9.58195 3 11.2509C3 12.601 3.338 13.8762 3.94 15.0079C4.393 15.862 3.763 17.0143 3.523 17.8554C3.46983 18.0414 3.46982 18.2372 3.52297 18.4232C3.57613 18.6092 3.68057 18.7789 3.8258 18.915C3.97103 19.0512 4.15194 19.1491 4.35033 19.199C4.54872 19.2488 4.75761 19.2488 4.956 19.1989C5.853 18.9739 7.082 18.3832 7.993 18.8089C9.23821 19.3886 10.6097 19.69 12 19.6893Z" stroke="#6A6765" stroke-width="1.3" stroke-linecap="round" stroke-linejoin="round"/>
<path d="M12 19.6893C13.78 19.6893 15.5201 19.1944 17.0001 18.2672C18.4802 17.34 19.6337 16.0221 20.3149 14.4801C20.9961 12.9382 21.1743 11.2415 20.8271 9.60465C20.4798 7.96777 19.6226 6.46419 18.364 5.28405C17.1053 4.10392 15.5016 3.30024 13.7558 2.97465C12.01 2.64905 10.2004 2.81616 8.55585 3.45484C6.91131 4.09352 5.50571 5.17509 4.51677 6.56278C3.52784 7.95047 3 9.58195 3 11.2509C3 12.601 3.338 13.8762 3.94 15.0079C4.393 15.862 3.763 17.0143 3.523 17.8554C3.46983 18.0414 3.46982 18.2372 3.52297 18.4232C3.57613 18.6092 3.68057 18.7789 3.8258 18.915C3.97103 19.0512 4.15194 19.1491 4.35033 19.199C4.54872 19.2488 4.75761 19.2488 4.956 19.1989C5.853 18.9739 7.082 18.3832 7.993 18.8089C9.23821 19.3886 10.6097 19.69 12 19.6893Z" stroke="black" stroke-opacity="0.2" stroke-width="1.3" stroke-linecap="round" stroke-linejoin="round"/>
</svg>
